<svg width="41" height="40" viewBox="0 0 41 40" fill="none" xmlns="http://www.w3.org/2000/svg">
<path d="M32.8383 32.1011C32.8383 33.2658 31.8853 34.2188 30.7206 34.2188H10.2501C9.08535 34.2188 8.13241 33.2658 8.13241 32.1011V19.3953C8.13241 18.2306 9.08535 17.2776 10.2501 17.2776H30.7206C31.8853 17.2776 32.8383 18.2306 32.8383 19.3953V32.1011Z" fill="#E6E6E6"/>
<path d="M32.8383 32.1011C32.8383 33.2658 31.8853 34.2188 30.7206 34.2188H10.2501C9.08535 34.2188 8.13241 33.2658 8.13241 32.1011V19.3953C8.13241 18.2306 9.08535 17.2776 10.2501 17.2776H30.7206C31.8853 17.2776 32.8383 18.2306 32.8383 19.3953V32.1011Z" fill="#888888"/>
<path d="M30.7203 17.2776H29.3086C30.4733 17.2776 31.4262 18.2306 31.4262 19.3953V32.1011C31.4262 33.2658 30.4733 34.2188 29.3086 34.2188H30.7203C31.885 34.2188 32.838 33.2658 32.838 32.1011V19.3953C32.838 18.2306 31.885 17.2776 30.7203 17.2776Z" fill="#9A9A9A"/>
<path d="M14.8383 17.2775V11.9834C14.8383 8.8698 17.3717 6.33639 20.4853 6.33639C23.599 6.33639 26.1324 8.8698 26.1324 11.9834V17.2775H28.25V11.9834C28.25 7.70192 24.7669 4.21875 20.4853 4.21875C16.2038 4.21875 12.7206 7.70192 12.7206 11.9834V17.2775H14.8383Z" fill="#D3D3D3"/>
<path d="M20.4853 4.21881C16.2038 4.21881 12.7206 7.70198 12.7206 11.9835V13.0423C13.3051 13.0423 13.7794 12.5683 13.7794 11.9835C13.7794 8.28574 16.7875 5.27763 20.4853 5.27763C24.1831 5.27763 27.1912 8.28574 27.1912 11.9835C27.1912 12.5683 27.6656 13.0423 28.25 13.0423V11.9835C28.25 7.70198 24.7668 4.21881 20.4853 4.21881Z" fill="#E4E4E4"/>
<path d="M32.8383 19.0423H8.13237V20.4541H32.8383V19.0423Z" fill="#F5F5F5"/>
<path d="M32.8383 31.0422H8.13237V32.454H32.8383V31.0422Z" fill="#F5F5F5"/>
<path d="M14.8383 16.9249H12.7206V17.2778H14.8383V16.9249Z" fill="#888888"/>
<path d="M28.25 16.9247H26.1324V17.2776H28.25V16.9247Z" fill="#888888"/>
</svg>
