<svg width="40" height="40" viewBox="0 0 40 40" fill="none" xmlns="http://www.w3.org/2000/svg">
<path d="M18.3333 3.33331C21.5711 3.33281 24.6985 4.51049 27.1317 6.64654C29.565 8.7826 31.1378 11.7311 31.5567 14.9416L35.3067 20.84C35.5533 21.2283 35.5033 21.8067 34.9317 22.0533L31.6667 23.45V28.3333C31.6667 29.2174 31.3155 30.0652 30.6904 30.6903C30.0653 31.3155 29.2174 31.6666 28.3333 31.6666H25.0017L25 36.6666H10V30.51C10 28.5433 9.27335 26.6817 7.92668 25.0016C6.35627 23.0409 5.37176 20.6763 5.08655 18.1804C4.80134 15.6845 5.22706 13.1588 6.31464 10.8943C7.40222 8.62973 9.10743 6.71853 11.2338 5.38084C13.3602 4.04314 15.8212 3.33338 18.3333 3.33331Z" fill="url(#paint0_linear_37_903)" stroke="#151318" stroke-width="2"/>
<path d="M19.5267 21.8873L19.1165 22.8311C19.0524 22.9848 18.9443 23.116 18.8057 23.2084C18.6672 23.3007 18.5044 23.35 18.3379 23.35C18.1713 23.35 18.0085 23.3007 17.87 23.2084C17.7314 23.116 17.6233 22.9848 17.5592 22.8311L17.149 21.8873C16.4278 20.2177 15.107 18.8791 13.4472 18.1356L12.1817 17.5703C12.0281 17.4997 11.898 17.3865 11.8069 17.2442C11.7157 17.1019 11.6672 16.9364 11.6672 16.7674C11.6672 16.5984 11.7157 16.433 11.8069 16.2907C11.898 16.1484 12.0281 16.0352 12.1817 15.9646L13.3772 15.4327C15.0787 14.6679 16.4221 13.2798 17.1306 11.5542L17.5542 10.5354C17.6161 10.3776 17.7242 10.2421 17.8643 10.1466C18.0044 10.0511 18.17 10 18.3395 10C18.5091 10 18.6747 10.0511 18.8148 10.1466C18.9549 10.2421 19.0629 10.3776 19.1249 10.5354L19.5467 11.5525C20.2546 13.2785 21.5973 14.6672 23.2985 15.4327L24.4957 15.9662C24.6488 16.0371 24.7784 16.1502 24.8692 16.2923C24.9601 16.4345 25.0083 16.5996 25.0083 16.7683C25.0083 16.9369 24.9601 17.1021 24.8692 17.2442C24.7784 17.3863 24.6488 17.4995 24.4957 17.5703L23.2285 18.1339C21.569 18.8782 20.2489 20.2174 19.5284 21.8873" fill="white"/>
<path d="M19.5267 21.8873L19.1165 22.8311C19.0524 22.9848 18.9443 23.116 18.8057 23.2084C18.6672 23.3007 18.5044 23.35 18.3379 23.35C18.1713 23.35 18.0085 23.3007 17.87 23.2084C17.7314 23.116 17.6233 22.9848 17.5592 22.8311L17.149 21.8873C16.4278 20.2177 15.107 18.8791 13.4472 18.1356L12.1817 17.5703C12.0281 17.4997 11.898 17.3865 11.8069 17.2442C11.7157 17.1019 11.6672 16.9364 11.6672 16.7674C11.6672 16.5984 11.7157 16.433 11.8069 16.2907C11.898 16.1484 12.0281 16.0352 12.1817 15.9646L13.3772 15.4327C15.0787 14.6679 16.4221 13.2798 17.1306 11.5542L17.5542 10.5354C17.6161 10.3776 17.7242 10.2421 17.8643 10.1466C18.0044 10.0511 18.17 10 18.3395 10C18.5091 10 18.6747 10.0511 18.8148 10.1466C18.9549 10.2421 19.0629 10.3776 19.1249 10.5354L19.5467 11.5525C20.2546 13.2785 21.5973 14.6672 23.2985 15.4327L24.4957 15.9662C24.6488 16.0371 24.7784 16.1502 24.8692 16.2923C24.9601 16.4345 25.0083 16.5996 25.0083 16.7683C25.0083 16.9369 24.9601 17.1021 24.8692 17.2442C24.7784 17.3863 24.6488 17.4995 24.4957 17.5703L23.2285 18.1339C21.569 18.8782 20.2489 20.2174 19.5284 21.8873" stroke="#151318" stroke-width="2"/>
<defs>
<linearGradient id="paint0_linear_37_903" x1="24.1672" y1="-0.00164806" x2="24.1672" y2="36.6668" gradientUnits="userSpaceOnUse">
<stop stop-color="#F8DD31"/>
<stop offset="1" stop-color="#C9A700"/>
</linearGradient>
</defs>
</svg>
