<svg width="25" height="24" viewBox="0 0 25 24" fill="none" xmlns="http://www.w3.org/2000/svg">
<path d="M17.6667 3.50005C17.6667 3.36745 17.614 3.24027 17.5202 3.1465C17.4265 3.05273 17.2993 3.00005 17.1667 3.00005H14.6667C13.4078 2.93734 12.1753 3.37544 11.2384 4.21863C10.3015 5.06182 9.73647 6.24155 9.66669 7.50005V10.2001H7.16669C7.03408 10.2001 6.9069 10.2527 6.81313 10.3465C6.71937 10.4403 6.66669 10.5674 6.66669 10.7001V13.3001C6.66669 13.4327 6.71937 13.5598 6.81313 13.6536C6.9069 13.7474 7.03408 13.8001 7.16669 13.8001H9.66669V20.5001C9.66669 20.6327 9.71936 20.7598 9.81313 20.8536C9.9069 20.9474 10.0341 21.0001 10.1667 21.0001H13.1667C13.2993 21.0001 13.4265 20.9474 13.5202 20.8536C13.614 20.7598 13.6667 20.6327 13.6667 20.5001V13.8001H16.2867C16.3979 13.8017 16.5064 13.7661 16.5952 13.6991C16.6839 13.6321 16.7478 13.5374 16.7767 13.4301L17.4967 10.8301C17.5166 10.7562 17.5193 10.6787 17.5045 10.6036C17.4898 10.5286 17.458 10.4579 17.4116 10.397C17.3652 10.3362 17.3055 10.2868 17.2371 10.2526C17.1686 10.2185 17.0932 10.2005 17.0167 10.2001H13.6667V7.50005C13.6916 7.25253 13.8078 7.02317 13.9927 6.85675C14.1776 6.69033 14.4179 6.59881 14.6667 6.60005H17.1667C17.2993 6.60005 17.4265 6.54737 17.5202 6.45361C17.614 6.35984 17.6667 6.23266 17.6667 6.10005V3.50005Z" fill="#A2A1A2"/>
</svg>
