<svg width="130" height="166" viewBox="0 0 130 166" fill="none" xmlns="http://www.w3.org/2000/svg">
<path d="M2.07658 134.85C19.7159 160.988 44.2137 171.642 44.2137 171.642C44.2137 171.642 38.1581 150.977 32.7493 138.528C24.8423 120.33 12.6115 106.922 12.6115 106.922C12.6115 106.922 26.6925 119.387 35.1375 136.56C40.9807 148.442 48.99 167.705 48.99 167.705C48.99 167.705 59.1103 128.503 36.9345 98.3447C8.98118 60.3295 -21.7706 77.0179 -21.7706 77.0179C-21.7706 77.0179 -14.8007 84.5789 -11.3916 96.8024C-8.01012 108.927 -5.77281 123.219 2.07658 134.85Z" fill="#B5B8EE"/>
<path d="M6.0201 58.4446C20.8112 80.362 41.3532 89.2962 41.3532 89.2962C41.3532 89.2962 36.2754 71.9675 31.7401 61.5291C25.1098 46.2692 14.8539 35.0261 14.8539 35.0261C14.8539 35.0261 26.6613 45.4785 33.7426 59.8785C38.6423 69.8421 45.3583 85.995 45.3583 85.995C45.3583 85.995 53.8445 53.1223 35.2495 27.834C11.8098 -4.04278 -13.9765 9.95095 -13.9765 9.95095C-13.9765 9.95095 -8.13197 16.2911 -5.27336 26.5408C-2.43788 36.7077 -0.561842 48.6915 6.0201 58.4446Z" fill="#B5B8EE"/>
<path d="M89.0786 51.3454C76.0842 70.6006 58.0374 78.4496 58.0374 78.4496C58.0374 78.4496 62.4984 63.2258 66.4828 54.0553C72.3077 40.649 81.3179 30.7716 81.3179 30.7716C81.3179 30.7716 70.9447 39.9543 64.7235 52.6052C60.419 61.3585 54.5188 75.5494 54.5188 75.5494C54.5188 75.5494 47.0634 46.6696 63.3997 24.4531C83.9922 -3.55171 106.646 8.74223 106.646 8.74223C106.646 8.74223 101.512 14.3122 99.0003 23.317C96.5093 32.2489 94.8611 42.777 89.0786 51.3454Z" fill="#B5B8EE"/>
<path d="M104.981 117.709C87.3417 143.847 62.8439 154.501 62.8439 154.501C62.8439 154.501 68.8996 133.836 74.3083 121.387C82.2153 103.189 94.4462 89.7807 94.4462 89.7807C94.4462 89.7807 80.3651 102.246 71.9201 119.419C66.0769 131.301 58.0676 150.564 58.0676 150.564C58.0676 150.564 47.9473 111.362 70.1231 81.2037C98.0764 43.1885 128.828 59.8769 128.828 59.8769C128.828 59.8769 121.858 67.4379 118.449 79.6615C115.068 91.7861 112.83 106.078 104.981 117.709Z" fill="#B5B8EE"/>
</svg>
