<svg width="318" height="288" viewBox="0 0 318 288" fill="none" xmlns="http://www.w3.org/2000/svg">
<path d="M147.297 203.43C140.949 207.455 134.475 208.26 128.127 203.609C121.841 198.988 121.278 192.668 123.686 184.916C115.461 186.615 108.049 186.556 103.202 179.579C99.0423 173.587 100.043 167.743 104.14 162.078C104.64 161.601 105.172 161.124 105.672 160.647C108.612 158.62 112.021 156.682 115.461 157.338C121.716 158.531 120.559 155.758 120.903 151.584C121.372 145.77 120.715 143.415 113.897 144.339C111.427 144.667 108.581 142.58 105.891 141.566C105.172 140.881 104.453 140.195 103.733 139.509C100.106 133.725 99.011 127.852 103.389 122.009C108.237 115.539 115.117 114.973 123.561 117.119C121.434 109.189 121.747 102.242 129.034 97.6209C135.288 93.6855 141.418 94.6693 147.329 98.5749C147.829 99.052 148.329 99.5588 148.83 100.036C150.05 102.838 152.614 105.879 152.176 108.443C150.956 115.301 154.397 114.078 159.4 114.466C165.405 114.943 165.937 113.363 165.749 108.473C165.655 105.7 167.938 102.868 169.158 100.036C169.689 99.529 170.221 98.9923 170.753 98.4855C177.039 94.2519 183.544 93.5364 189.861 98.1278C196.178 102.689 196.929 108.98 194.458 116.672C202.464 115.36 209.97 115.032 214.88 122.068C219.039 128.061 218.101 133.904 214.129 139.599C213.535 140.165 212.909 140.761 212.315 141.328C209.313 142.431 206.186 144.727 203.371 144.429C197.273 143.773 197.335 145.83 197.398 150.779C197.46 155.549 197.179 157.845 203.371 157.219C206.186 156.921 209.313 159.216 212.315 160.349C212.941 160.945 213.566 161.512 214.16 162.108C218.382 168.131 219.195 174.302 214.379 180.295C209.594 186.228 203.09 187.182 194.958 184.648C196.616 192.638 196.334 199.942 188.579 204.533C182.637 208.051 176.726 207.097 171.065 203.639C170.315 202.894 169.533 202.178 168.782 201.433C165.78 197.199 165.03 192.489 165.843 187.569C157.336 186.645 150.237 186.884 151.113 197.646C151.207 198.928 149.706 200.359 148.955 201.701C148.423 202.327 147.86 202.894 147.297 203.43ZM188.11 178.655C183.231 175.823 193.489 166.938 182.574 166.908C177.007 166.878 175.725 168.697 175.756 173.616C175.85 183.872 185.013 174.123 188.11 178.655ZM130.253 178.744C133.256 174.839 144.139 184.081 142.262 171.41C140.761 161.333 134.037 169.264 130.316 166.67C131.848 170.873 130.222 174.392 130.253 178.744ZM188.485 123.44C175.569 124.722 175.882 124.751 175.538 127.614C174.287 137.542 182.136 134.143 188.235 135.693C186.389 131.132 187.797 127.375 188.485 123.44ZM130.128 122.903C130.848 127.375 131.285 131.221 130.597 135.544C134.163 132.503 141.293 140.016 142.481 130.029C143.982 117.686 133.037 127.494 130.128 122.903ZM154.084 150.183C154.303 152.806 152.207 156.563 157.868 155.519C160.714 154.983 164.404 156.921 163.935 151.256C163.622 147.41 163.403 145.919 158.775 146.188C155.304 146.426 152.802 146.098 154.084 150.183Z" fill="#F8F7FF"/>
<path d="M148.829 100.096C148.329 99.6188 147.828 99.112 147.328 98.635C147.265 98.0089 147.328 97.353 147.078 96.7865C143.794 89.8995 143.669 83.3703 150.393 78.3317C155.865 74.2174 162.026 74.2175 167.531 78.2721C174.286 83.2809 174.192 89.8101 171.002 96.7269C170.752 97.2636 170.814 97.9493 170.72 98.5455C170.189 99.0524 169.657 99.589 169.125 100.096C162.402 102.749 155.615 102.69 148.829 100.096Z" fill="#F8F7FF"/>
<path d="M214.188 162.227C213.562 161.631 212.937 161.065 212.343 160.468C209.497 154.148 209.528 147.798 212.343 141.477C212.937 140.911 213.562 140.314 214.156 139.748C216.314 139.122 218.441 138.317 220.63 137.899C226.916 136.766 232.326 138.227 235.923 143.534C239.207 148.394 239.207 153.522 235.954 158.381C232.358 163.718 226.947 165.179 220.693 164.046C218.472 163.659 216.346 162.824 214.188 162.227Z" fill="#F8F7FF"/>
<path d="M168.808 201.523C169.559 202.268 170.341 202.984 171.091 203.729C171.498 205.22 171.935 206.711 172.342 208.201C174.093 214.522 173.03 220.157 167.151 224.032C161.74 227.58 155.923 227.521 150.607 223.824C144.821 219.799 143.914 214.134 145.853 207.873C146.322 206.382 146.792 204.922 147.292 203.431C147.855 202.894 148.418 202.358 148.981 201.791C155.548 199.138 162.147 199.197 168.808 201.523Z" fill="#F8F7FF"/>
<path d="M105.699 160.677C105.199 161.154 104.667 161.631 104.167 162.108C96.2545 164.523 88.2484 166.699 82.3377 158.56C78.8976 153.82 78.8038 148.632 82.1188 143.773C87.7481 135.454 95.7541 137.303 103.76 139.569C104.479 140.255 105.199 140.94 105.918 141.626C108.545 148.006 108.295 154.357 105.699 160.677Z" fill="#F8F7FF"/>
<path d="M237.707 192.101C237.863 199.108 231.264 205.428 223.884 205.279C216.91 205.16 210.686 199.227 210.53 192.578C210.374 185.542 216.972 179.252 224.321 179.401C231.358 179.52 237.581 185.423 237.707 192.101Z" fill="#F8F7FF"/>
<path d="M94.0689 205.16C86.7822 205.219 80.2773 198.899 80.4962 191.982C80.7152 185.393 86.9073 179.579 93.8187 179.49C101.105 179.43 107.61 185.751 107.391 192.668C107.173 199.286 100.98 205.1 94.0689 205.16Z" fill="#F8F7FF"/>
<path d="M129.124 212.583C129.406 219.53 122.932 225.91 115.614 225.91C108.703 225.91 102.417 220.126 102.135 213.478C101.854 206.561 108.327 200.151 115.645 200.151C122.588 200.181 128.874 205.935 129.124 212.583Z" fill="#F8F7FF"/>
<path d="M223.384 122.486C216.004 122.039 209.905 115.301 210.656 108.414C211.375 101.735 218.005 96.2794 224.885 96.6968C232.235 97.144 238.364 103.882 237.614 110.769C236.894 117.447 230.264 122.903 223.384 122.486Z" fill="#F8F7FF"/>
<path d="M93.4731 96.7564C100.322 96.488 106.827 102.063 107.39 108.682C107.984 115.539 101.761 122.158 94.4425 122.426C87.1871 122.694 80.4945 116.523 80.5258 109.576C80.4945 102.988 86.5303 97.0247 93.4731 96.7564Z" fill="#F8F7FF"/>
<path d="M215.971 88.9754C215.94 95.9817 209.185 102.153 201.898 101.825C194.924 101.527 188.889 95.5047 188.92 88.8562C188.951 81.8499 195.706 75.6784 202.993 76.0064C209.967 76.3045 216.003 82.327 215.971 88.9754Z" fill="#F8F7FF"/>
<path d="M115.71 76.0652C122.997 76.095 129.439 82.505 129.095 89.4218C128.782 96.0405 122.465 101.765 115.585 101.735C108.298 101.705 101.856 95.2951 102.168 88.3783C102.512 81.7895 108.798 76.0354 115.71 76.0652Z" fill="#F8F7FF"/>
<path d="M215.971 212.881C216.065 219.888 209.435 226.119 202.117 225.94C195.143 225.761 189.013 219.828 188.919 213.18C188.826 206.173 195.424 199.942 202.774 200.121C209.748 200.3 215.877 206.203 215.971 212.881Z" fill="#F8F7FF"/>
<path d="M124.807 232.976C125.901 225.701 130.217 221.796 137.91 221.855C145.26 221.915 150.639 227.878 149.7 234.944C148.731 242.308 143.884 246.005 136.284 245.468C128.528 244.931 125.026 240.131 124.807 232.976Z" fill="#F8F7FF"/>
<path d="M245.809 183.694C238.179 183.038 233.706 179.252 233.331 171.858C232.987 164.822 238.96 159.217 246.341 159.754C254.034 160.29 258.412 164.583 258.287 171.918C258.162 179.311 253.44 183.068 245.809 183.694Z" fill="#F8F7FF"/>
<path d="M84.6844 171.529C84.0902 178.834 80.2123 183.306 72.3626 183.365C64.6068 183.425 60.0409 179.221 59.947 171.798C59.8532 164.404 64.2628 160.081 72.0499 159.961C79.8996 159.842 83.9339 164.195 84.6844 171.529Z" fill="#F8F7FF"/>
<path d="M193.359 233.572C192.796 240.787 188.918 245.349 181.162 245.557C173.469 245.766 168.903 241.681 168.246 234.317C167.621 227.281 173.407 221.498 180.818 221.766C188.543 222.064 192.609 226.268 193.359 233.572Z" fill="#F8F7FF"/>
<path d="M245.621 142.312C237.959 141.537 233.581 137.661 233.331 130.268C233.112 123.231 239.21 117.716 246.591 118.372C254.284 119.057 258.569 123.44 258.287 130.774C258.006 138.138 253.19 141.805 245.621 142.312Z" fill="#F8F7FF"/>
<path d="M72.7389 118.401C80.3696 119.295 84.8104 123.32 84.4977 130.714C84.185 138.138 79.4939 142.192 71.7381 141.954C63.951 141.685 59.6978 137.184 59.948 129.82C60.2294 122.336 65.0769 118.788 72.7389 118.401Z" fill="#F8F7FF"/>
<path d="M149.89 67.9266C149.076 75.7081 145.011 80.0609 137.161 79.9416C129.343 79.8224 124.902 75.4695 125.027 68.0458C125.121 60.5924 129.718 56.4185 137.505 56.4483C145.417 56.5079 149.17 61.1589 149.89 67.9266Z" fill="#F8F7FF"/>
<path d="M193.298 68.3439C192.578 75.6185 188.575 79.7924 180.82 80.0607C173.439 80.2992 167.716 74.6346 168.31 67.5985C168.936 60.2643 173.47 56.2096 181.132 56.4183C188.888 56.627 192.735 61.1289 193.298 68.3439Z" fill="#F8F7FF"/>
<path d="M94.2847 244.604C87.467 243.858 82.9323 240.459 82.776 233.93C82.6196 227.431 86.9353 223.197 93.7217 223.048C100.539 222.899 104.949 227.013 105.137 233.453C105.293 240.012 100.821 243.53 94.2847 244.604Z" fill="#F8F7FF"/>
<path d="M159.239 265.353C152.515 264.608 147.949 261.179 147.793 254.65C147.636 248.121 151.983 243.858 158.801 243.709C165.65 243.56 170.091 247.704 170.278 254.173C170.466 260.732 165.994 264.31 159.239 265.353Z" fill="#F8F7FF"/>
<path d="M268.355 140.076C274.422 141 278.55 144.488 278.925 150.988C279.269 156.861 272.858 162.615 266.822 161.81C260.161 160.945 256.252 157.01 256.189 150.481C256.095 144.935 262.006 139.927 268.355 140.076Z" fill="#F8F7FF"/>
<path d="M61.9191 150.869C60.8245 157.547 57.103 161.721 50.2854 161.572C43.5303 161.393 39.2458 157.189 39.4335 150.72C39.5898 144.28 44.0307 140.225 50.817 140.344C57.6346 140.493 61.0435 144.906 61.9191 150.869Z" fill="#F8F7FF"/>
<path d="M158.867 36.6516C165.529 37.397 170.095 40.8256 170.188 47.325C170.313 53.8244 165.998 58.0282 159.211 58.1772C152.394 58.3263 147.984 54.212 147.828 47.7424C147.703 41.2131 152.144 37.6653 158.867 36.6516Z" fill="#F8F7FF"/>
<path d="M105.296 68.0462C104.545 74.3667 100.98 78.6898 94.1934 78.809C87.4071 78.9581 82.9975 74.8736 82.8411 68.4338C82.6848 61.9642 86.9692 57.7604 93.7243 57.6113C100.511 57.4324 104.232 61.6362 105.296 68.0462Z" fill="#F8F7FF"/>
<path d="M235.614 233.9C234.488 240.34 230.766 244.603 223.886 244.424C217.068 244.245 212.721 239.982 212.909 233.453C213.097 226.953 217.537 222.839 224.386 222.988C231.267 223.137 234.832 227.52 235.614 233.9Z" fill="#F8F7FF"/>
<path d="M223.944 57.2827C230.668 58.0281 235.234 61.4567 235.359 68.0157C235.484 74.545 231.168 78.8083 224.351 78.9574C217.502 79.1064 213.061 74.9623 212.873 68.4629C212.717 61.874 217.189 58.3262 223.944 57.2827Z" fill="#F8F7FF"/>
<path d="M72.1163 202.178C79.1216 203.222 83.5312 206.769 83.3435 213.269C83.1871 219.709 78.7776 223.793 71.9912 223.644C65.2361 223.495 60.9829 219.291 61.0767 212.822C61.2331 206.292 65.8616 203.013 72.1163 202.178Z" fill="#F8F7FF"/>
<path d="M245.995 99.8572C239.303 99.082 234.706 95.6534 234.581 89.1242C234.455 82.5949 238.802 78.3613 245.589 78.2123C252.438 78.0632 256.879 82.2074 257.035 88.7068C257.254 95.2659 252.782 98.8137 245.995 99.8572Z" fill="#F8F7FF"/>
<path d="M83.6234 88.5871C82.8416 95.0865 79.2764 99.3797 72.4901 99.4989C65.7037 99.6182 61.2941 95.5635 61.1378 89.1237C60.9814 82.6541 65.2659 78.4801 72.0209 78.3012C78.8386 78.1224 82.4976 82.356 83.6234 88.5871Z" fill="#F8F7FF"/>
<path d="M257.38 213.268C256.285 219.619 252.626 223.554 245.809 223.882C239.617 224.18 233.643 218.068 234.488 212.314C235.426 205.964 239.585 201.969 246.372 202.297C253.096 202.595 256.661 206.918 257.38 213.268Z" fill="#F8F7FF"/>
<path d="M267.857 99.6483C274.518 100.304 278.146 103.822 277.833 110.143C277.489 116.553 273.298 119.773 266.7 119.385C260.507 119.027 257.13 115.39 257.224 109.487C257.317 103.077 261.289 99.9763 267.857 99.6483Z" fill="#F8F7FF"/>
<path d="M267.824 202.387C260.881 201.791 257.066 198.511 257.191 192.191C257.285 185.9 261.131 182.382 267.699 182.472C274.298 182.561 277.957 186.228 277.925 192.489C277.894 198.869 273.797 201.821 267.824 202.387Z" fill="#F8F7FF"/>
<path d="M50.129 202.178C43.5615 201.463 39.9964 198.004 40.3717 191.714C40.7469 185.334 44.9376 182.203 51.4425 182.621C57.5721 183.008 60.8558 186.645 60.762 192.489C60.6057 198.899 56.6652 201.91 50.129 202.178Z" fill="#F8F7FF"/>
<path d="M202.431 37.6357C208.998 38.1128 212.814 41.3923 212.688 47.7724C212.532 54.1526 208.592 57.5216 201.962 57.3129C195.801 57.134 192.298 53.6756 192.173 47.8023C192.079 41.3923 195.832 38.1128 202.431 37.6357Z" fill="#F8F7FF"/>
<path d="M51.2227 119.474C44.2799 119.087 40.3395 115.986 40.3708 109.606C40.402 103.256 44.1861 99.7974 50.7848 99.8868C56.9145 99.9465 60.4796 103.286 60.7611 109.129C61.0426 115.509 57.2585 118.729 51.2227 119.474Z" fill="#F8F7FF"/>
<path d="M212.907 254.412C212.125 261.12 208.435 264.579 201.774 264.221C195.05 263.863 191.704 259.838 192.142 253.547C192.548 247.644 196.426 244.484 202.587 244.573C209.436 244.663 212.438 248.628 212.907 254.412Z" fill="#F8F7FF"/>
<path d="M115.991 264.34C108.955 263.773 105.202 260.434 105.421 254.084C105.64 247.704 109.643 244.394 116.242 244.633C122.402 244.871 125.842 248.359 125.936 254.263C125.999 260.732 122.027 263.743 115.991 264.34Z" fill="#F8F7FF"/>
<path d="M125.967 47.9215C125.217 54.1824 121.589 57.5813 114.99 57.2235C108.298 56.8658 105.014 52.8707 105.452 46.6694C105.858 40.8259 109.674 37.6954 115.803 37.7848C122.527 37.9339 125.655 41.6904 125.967 47.9215Z" fill="#F8F7FF"/>
<path d="M289.181 180.623C283.239 179.52 279.58 176.419 280.08 170.963C280.581 165.656 284.396 162.377 290.181 162.913C295.342 163.42 298.625 166.819 298.438 171.828C298.25 177.343 294.31 179.997 289.181 180.623Z" fill="#F8F7FF"/>
<path d="M28.8597 180.294C23.3243 179.758 19.7591 176.836 19.8842 171.35C20.0093 166.371 23.3868 163.151 28.6408 163.122C34.3639 163.092 37.8665 166.461 37.7414 171.917C37.6789 176.926 34.27 179.698 28.8597 180.294Z" fill="#F8F7FF"/>
<path d="M180.448 18.1075C185.515 18.4355 189.205 20.9101 189.705 25.9486C190.237 31.4642 186.891 35.1313 181.199 35.4295C175.476 35.7276 171.786 32.3288 171.723 26.8431C171.66 21.7747 175.069 18.9125 180.448 18.1075Z" fill="#F8F7FF"/>
<path d="M298.631 129.969C298.099 135.246 295.16 138.913 289.437 139.003C283.745 139.092 280.117 135.634 280.054 130.207C279.992 125.199 283.432 121.86 288.561 121.532C294.315 121.174 297.536 124.573 298.631 129.969Z" fill="#F8F7FF"/>
<path d="M28.5809 121.621C33.5846 121.919 37.2124 124.364 37.7127 129.373C38.2444 134.859 34.9607 138.466 29.3002 138.764C23.6084 139.062 19.9807 135.723 19.9181 130.238C19.8556 125.259 23.1706 122.396 28.5809 121.621Z" fill="#F8F7FF"/>
<path d="M146.639 274.895C146.076 280.112 143.105 283.72 137.445 283.779C131.784 283.809 128.25 280.351 128.25 274.954C128.25 269.976 131.659 266.696 136.788 266.428C142.448 266.13 145.669 269.469 146.639 274.895Z" fill="#F8F7FF"/>
<path d="M146.513 26.6936C146.107 31.5831 143.386 35.0415 138.132 35.4291C132.378 35.8465 128.562 32.5967 128.343 27.1408C128.124 21.655 131.752 18.2265 137.538 18.2563C142.792 18.2563 145.763 21.5656 146.513 26.6936Z" fill="#F8F7FF"/>
<path d="M180.757 283.927C175.19 283.242 171.5 280.32 171.625 274.894C171.75 269.498 175.503 266.188 181.163 266.397C186.324 266.576 189.732 269.855 189.858 274.804C189.983 280.231 186.386 283.182 180.757 283.927Z" fill="#F8F7FF"/>
<path d="M267.448 241.652C262.101 241.234 259.098 238.491 259.349 233.244C259.568 228.474 262.57 225.85 267.574 225.88C273.109 225.94 275.986 228.981 275.767 234.168C275.548 238.998 272.483 241.324 267.448 241.652Z" fill="#F8F7FF"/>
<path d="M245.055 39.6329C250.871 39.9013 254.03 42.4057 253.999 47.6827C253.967 52.4231 251.153 55.1958 246.18 55.2852C240.739 55.4045 237.705 52.602 237.705 47.3846C237.674 42.5845 240.708 40.259 245.055 39.6329Z" fill="#F8F7FF"/>
<path d="M245.968 246.481C251.003 246.899 253.974 249.343 254.068 254.143C254.161 259.391 251.159 262.282 245.655 262.253C240.651 262.193 237.774 259.48 237.649 254.71C237.524 249.403 240.62 246.779 245.968 246.481Z" fill="#F8F7FF"/>
<path d="M266.794 60.264C272.61 60.5324 275.8 63.0665 275.738 68.3734C275.706 73.1436 272.861 75.9462 267.857 76.0356C262.384 76.1549 259.319 73.3225 259.319 68.0753C259.319 63.2454 262.384 60.8603 266.794 60.264Z" fill="#F8F7FF"/>
<path d="M80.3998 47.713C79.8994 52.3938 77.335 55.226 72.2999 55.1962C66.7645 55.1664 63.8873 52.0658 64.2313 46.908C64.5441 42.1676 67.7027 39.6632 72.6752 39.8719C77.679 40.0806 80.087 43.0024 80.3998 47.713Z" fill="#F8F7FF"/>
<path d="M50.8486 225.91C55.7898 226.417 58.6982 228.951 58.6357 233.781C58.5419 239.117 55.1956 241.8 49.7853 241.413C44.7502 241.055 42.1858 237.954 42.4673 233.214C42.7487 228.384 45.8761 226.118 50.8486 225.91Z" fill="#F8F7FF"/>
<path d="M231.892 26.5746C231.485 30.838 229.14 33.8194 224.668 34.0281C219.695 34.2666 216.537 31.3746 216.599 26.6342C216.662 22.3708 219.633 19.6577 224.136 19.6279C228.671 19.5981 231.11 22.4007 231.892 26.5746Z" fill="#F8F7FF"/>
<path d="M101.638 26.8727C100.981 31.0466 98.6043 33.9684 94.1634 33.9983C89.2535 34.0281 86.1887 31.0467 86.4702 26.3659C86.7204 22.2218 89.7539 19.5087 94.226 19.6875C98.6981 19.8366 101.012 22.6988 101.638 26.8727Z" fill="#F8F7FF"/>
<path d="M72.2056 246.572C77.1781 246.9 80.2429 249.314 80.3055 254.144C80.3993 259.421 77.2719 262.313 71.7678 262.105C66.7327 261.926 64.0432 258.974 64.137 254.204C64.2621 249.374 67.2331 246.959 72.2056 246.572Z" fill="#F8F7FF"/>
<path d="M289.186 220.514C284.401 219.858 281.305 217.384 281.555 212.584C281.774 208.32 284.682 205.637 289.217 205.697C294.189 205.756 297.129 208.708 296.941 213.448C296.722 217.771 293.72 220.007 289.186 220.514Z" fill="#F8F7FF"/>
<path d="M28.27 205.666C33.0549 206.173 36.151 208.409 36.3386 212.613C36.5575 217.294 33.4927 220.275 28.5515 220.186C24.1419 220.096 21.3273 217.264 21.296 213.001C21.296 208.648 24.4547 206.561 28.27 205.666Z" fill="#F8F7FF"/>
<path d="M50.8492 76.0355C45.4076 75.4989 42.4678 73.0243 42.4991 68.2243C42.5616 62.9473 45.8141 60.2342 51.2244 60.5621C56.1969 60.8603 58.7926 63.9012 58.5737 68.6417C58.3548 73.5013 55.1024 75.5883 50.8492 76.0355Z" fill="#F8F7FF"/>
<path d="M288.743 96.3394C284.115 95.4151 281.081 92.8213 281.644 88.0809C282.114 83.9367 285.147 81.2833 289.619 81.6113C294.498 81.9691 297.344 85.01 296.843 89.6908C296.374 93.8946 293.309 96.071 288.743 96.3394Z" fill="#F8F7FF"/>
<path d="M101.666 275.371C100.853 279.545 98.4132 282.347 93.8473 282.288C89.3439 282.228 86.3729 279.515 86.3416 275.222C86.3103 270.452 89.4689 267.589 94.4414 267.858C98.9448 268.126 101.29 271.107 101.666 275.371Z" fill="#F8F7FF"/>
<path d="M223.632 267.56C228.854 268.275 231.982 270.69 231.763 275.431C231.575 279.634 228.667 282.347 224.226 282.347C219.316 282.318 216.345 279.426 216.501 274.715C216.626 270.422 219.816 268.394 223.632 267.56Z" fill="#F8F7FF"/>
<path d="M36.4628 89.0944C35.6184 93.328 33.1478 96.1603 28.5819 95.9814C24.1098 95.8025 21.2326 92.9701 21.389 88.6471C21.5766 84.3837 24.5476 81.6409 29.0823 81.79C33.6169 81.9688 35.9624 84.8906 36.4628 89.0944Z" fill="#F8F7FF"/>
<path d="M317.769 150.809C317.332 155.013 315.049 157.428 310.858 157.398C306.667 157.368 304.165 154.893 304.197 150.928C304.228 146.933 306.824 144.548 310.983 144.578C315.236 144.578 317.363 147.112 317.769 150.809Z" fill="#F8F7FF"/>
<path d="M121.46 6.21147C120.991 9.40155 119.208 11.578 115.83 11.578C111.953 11.6078 109.67 9.31211 109.982 5.645C110.232 2.51454 112.515 0.546847 115.956 0.72573C119.333 0.904613 121.084 3.02139 121.46 6.21147Z" fill="#F8F7FF"/>
<path d="M165.563 6.18177C165.031 10.6539 162.404 12.6514 158.213 12.2638C154.398 11.9061 152.396 9.46131 152.615 5.82402C152.897 1.62027 155.68 -0.317613 159.871 0.0699669C163.717 0.397919 165.437 2.90225 165.563 6.18177Z" fill="#F8F7FF"/>
<path d="M208.407 5.94348C207.719 9.90872 205.561 12.0255 201.746 11.6379C198.493 11.31 196.429 9.19319 196.648 5.94348C196.898 2.30619 199.338 0.308664 203.122 0.636616C206.468 0.964569 207.969 3.29005 208.407 5.94348Z" fill="#F8F7FF"/>
<path d="M12.9601 109.577C12.5535 112.767 10.7709 114.943 7.39337 115.003C3.51545 115.062 1.20117 112.797 1.45136 109.129C1.67028 105.969 3.92197 104.002 7.36206 104.151C10.7709 104.3 12.5222 106.416 12.9601 109.577Z" fill="#F8F7FF"/>
<path d="M316.955 109.01C316.673 113.064 314.766 115.211 310.856 115.241C307.479 115.241 305.321 113.422 305.039 110.232C304.727 106.625 306.603 104.269 310.512 104.001C314.484 103.703 316.36 105.939 316.955 109.01Z" fill="#F8F7FF"/>
<path d="M13.5392 150.988C13.2577 154.864 11.0685 157.129 6.78406 156.98C2.99996 156.861 0.810844 154.685 0.810844 151.077C0.77957 146.993 3.21891 144.786 7.50338 144.906C11.2875 145.055 13.2577 147.261 13.5392 150.988Z" fill="#F8F7FF"/>
<path d="M12.959 192.489C12.4586 195.649 10.6135 197.796 7.23593 197.766C3.35801 197.736 1.10628 195.411 1.48156 191.744C1.7943 188.613 4.10855 186.645 7.54864 186.914C10.8949 187.152 12.6463 189.269 12.959 192.489Z" fill="#F8F7FF"/>
<path d="M316.923 192.22C316.673 195.828 314.766 197.974 310.856 197.974C307.479 197.974 305.321 196.156 305.039 192.966C304.727 189.358 306.603 186.973 310.512 186.735C314.39 186.496 316.486 188.523 316.923 192.22Z" fill="#F8F7FF"/>
</svg>
