<svg width="209" height="164" viewBox="0 0 209 164" fill="none" xmlns="http://www.w3.org/2000/svg">
<path d="M87.3471 145.179C82.8166 148.051 78.1968 148.625 73.6664 145.306C69.1805 142.009 68.7788 137.498 70.4973 131.967C64.6278 133.179 59.3385 133.137 55.8793 128.158C52.911 123.882 53.6252 119.712 56.5488 115.669C56.9059 115.329 57.2853 114.988 57.6424 114.648C59.7402 113.201 62.1728 111.818 64.6278 112.286C69.0913 113.137 68.2655 111.159 68.511 108.18C68.8458 104.031 68.3771 102.35 63.5119 103.01C61.7488 103.244 59.7179 101.755 57.7986 101.031C57.2853 100.542 56.772 100.053 56.2587 99.5633C53.6698 95.4358 52.8887 91.2445 56.0132 87.0744C59.4724 82.4575 64.3823 82.0533 70.408 83.5852C68.8904 77.9258 69.1136 72.9685 74.3136 69.6707C78.7771 66.8623 83.1513 67.5644 87.3694 70.3516C87.7264 70.692 88.0835 71.0537 88.4406 71.3941C89.311 73.394 91.141 75.5642 90.8286 77.3939C89.9582 82.2873 92.4131 81.415 95.9839 81.6916C100.269 82.032 100.648 80.9044 100.514 77.4152C100.447 75.4365 102.077 73.4153 102.947 71.3941C103.326 71.0324 103.706 70.6495 104.085 70.2878C108.571 67.2666 113.213 66.756 117.721 70.0325C122.229 73.2877 122.765 77.7769 121.002 83.2661C126.715 82.3299 132.071 82.0959 135.575 87.117C138.544 91.3934 137.874 95.5635 135.04 99.6271C134.616 100.031 134.169 100.457 133.745 100.861C131.603 101.648 129.371 103.287 127.362 103.074C123.011 102.606 123.055 104.074 123.1 107.606C123.144 111.01 122.944 112.648 127.362 112.201C129.371 111.988 131.603 113.627 133.745 114.435C134.192 114.861 134.638 115.265 135.062 115.69C138.075 119.988 138.655 124.392 135.218 128.669C131.804 132.903 127.162 133.583 121.359 131.775C122.542 137.477 122.341 142.69 116.806 145.966C112.566 148.477 108.348 147.796 104.308 145.328C103.773 144.796 103.215 144.285 102.679 143.753C100.537 140.732 100.001 137.371 100.581 133.86C94.511 133.2 89.4449 133.371 90.0698 141.051C90.1368 141.966 89.0655 142.987 88.5299 143.945C88.1505 144.392 87.7488 144.796 87.3471 145.179ZM116.471 127.499C112.99 125.477 120.31 119.137 112.521 119.116C108.549 119.095 107.634 120.392 107.656 123.903C107.723 131.222 114.262 124.265 116.471 127.499ZM75.184 127.562C77.3265 124.775 85.093 131.371 83.7539 122.329C82.6827 115.137 77.8844 120.797 75.2286 118.946C76.3222 121.946 75.1617 124.456 75.184 127.562ZM116.739 88.0957C107.522 89.0105 107.745 89.0318 107.5 91.0743C106.607 98.1591 112.209 95.7337 116.561 96.84C115.244 93.5848 116.248 90.9041 116.739 88.0957ZM75.0947 87.7127C75.608 90.9041 75.9205 93.6487 75.4295 96.7337C77.9737 94.5635 83.0621 99.925 83.9101 92.7976C84.9814 83.9894 77.1702 90.9892 75.0947 87.7127ZM92.19 107.18C92.3462 109.052 90.8509 111.733 94.8904 110.988C96.9213 110.605 99.5548 111.988 99.22 107.946C98.9968 105.201 98.8406 104.138 95.5376 104.329C93.0604 104.499 91.2749 104.265 92.19 107.18Z" fill="#F8F7FF"/>
<path d="M88.4399 71.4369C88.0828 71.0965 87.7258 70.7348 87.3687 70.3944C87.324 69.9476 87.3687 69.4795 87.1901 69.0753C84.8468 64.1606 84.7575 59.5011 89.5558 55.9055C93.4614 52.9694 97.8579 52.9695 101.786 55.863C106.606 59.4373 106.539 64.0967 104.263 69.0328C104.085 69.4157 104.129 69.905 104.062 70.3305C103.683 70.6922 103.303 71.0752 102.924 71.4369C98.1257 73.3304 93.2828 73.2879 88.4399 71.4369Z" fill="#F8F7FF"/>
<path d="M135.082 115.775C134.635 115.35 134.189 114.946 133.765 114.52C131.734 110.01 131.756 105.478 133.765 100.967C134.189 100.563 134.635 100.138 135.059 99.7334C136.599 99.2866 138.117 98.7121 139.679 98.4143C144.165 97.6058 148.026 98.6484 150.592 102.435C152.936 105.903 152.936 109.563 150.615 113.031C148.048 116.839 144.187 117.882 139.724 117.073C138.139 116.797 136.621 116.201 135.082 115.775Z" fill="#F8F7FF"/>
<path d="M102.698 143.818C103.233 144.349 103.791 144.86 104.327 145.392C104.617 146.456 104.929 147.52 105.219 148.583C106.469 153.094 105.71 157.115 101.515 159.881C97.6538 162.413 93.5027 162.37 89.7088 159.732C85.58 156.86 84.9328 152.817 86.3165 148.349C86.6513 147.286 86.986 146.243 87.3431 145.179C87.7448 144.796 88.1465 144.413 88.5482 144.009C93.2349 142.116 97.9439 142.158 102.698 143.818Z" fill="#F8F7FF"/>
<path d="M57.6615 114.669C57.3044 115.009 56.925 115.35 56.5679 115.69C50.9216 117.414 45.2083 118.967 40.9902 113.158C38.5353 109.776 38.4684 106.074 40.834 102.606C44.8512 96.6696 50.5645 97.9888 56.2778 99.6057C56.7911 100.095 57.3044 100.584 57.8177 101.074C59.6924 105.627 59.5138 110.159 57.6615 114.669Z" fill="#F8F7FF"/>
<path d="M151.865 137.094C151.977 142.094 147.268 146.604 142.001 146.498C137.024 146.413 132.583 142.179 132.471 137.435C132.36 132.413 137.069 127.924 142.313 128.031C147.335 128.116 151.776 132.328 151.865 137.094Z" fill="#F8F7FF"/>
<path d="M49.3619 146.413C44.1619 146.455 39.5199 141.945 39.6761 137.009C39.8324 132.307 44.2512 128.158 49.1834 128.094C54.3834 128.052 59.0254 132.562 58.8692 137.498C58.713 142.222 54.2941 146.37 49.3619 146.413Z" fill="#F8F7FF"/>
<path d="M74.3781 151.711C74.579 156.668 69.9593 161.221 64.737 161.221C59.8048 161.221 55.319 157.093 55.1181 152.349C54.9173 147.413 59.537 142.839 64.7593 142.839C69.7138 142.86 74.1996 146.966 74.3781 151.711Z" fill="#F8F7FF"/>
<path d="M141.644 87.4149C136.377 87.0957 132.025 82.2874 132.561 77.3727C133.074 72.6069 137.806 68.7134 142.716 69.0113C147.96 69.3304 152.334 74.1388 151.799 79.0535C151.285 83.8193 146.554 87.7127 141.644 87.4149Z" fill="#F8F7FF"/>
<path d="M48.9367 69.0538C53.8242 68.8623 58.4663 72.8409 58.868 77.5641C59.292 82.4576 54.8508 87.1808 49.6285 87.3723C44.4509 87.5638 39.6749 83.1597 39.6972 78.2024C39.6749 73.5005 43.9822 69.2452 48.9367 69.0538Z" fill="#F8F7FF"/>
<path d="M136.354 63.5011C136.332 68.501 131.512 72.9051 126.312 72.671C121.335 72.4583 117.027 68.1605 117.05 63.416C117.072 58.4162 121.893 54.0121 127.093 54.2461C132.069 54.4589 136.377 58.7566 136.354 63.5011Z" fill="#F8F7FF"/>
<path d="M64.8054 54.288C70.0054 54.3093 74.6028 58.8837 74.3573 63.8197C74.1341 68.5429 69.626 72.6279 64.7161 72.6066C59.5162 72.5853 54.9187 68.011 55.1419 63.075C55.3874 58.373 59.8732 54.2668 64.8054 54.288Z" fill="#F8F7FF"/>
<path d="M136.354 151.923C136.421 156.923 131.69 161.37 126.467 161.242C121.491 161.114 117.116 156.881 117.049 152.136C116.982 147.136 121.691 142.69 126.936 142.817C131.913 142.945 136.287 147.157 136.354 151.923Z" fill="#F8F7FF"/>
<path d="M71.2971 166.263C72.0782 161.072 75.158 158.285 80.6481 158.327C85.8927 158.37 89.7314 162.625 89.0618 167.667C88.37 172.923 84.9108 175.561 79.4876 175.178C73.9528 174.795 71.4533 171.369 71.2971 166.263Z" fill="#F8F7FF"/>
<path d="M157.647 131.095C152.202 130.627 149.011 127.925 148.743 122.648C148.497 117.627 152.76 113.627 158.027 114.01C163.517 114.393 166.641 117.457 166.552 122.691C166.463 127.967 163.093 130.648 157.647 131.095Z" fill="#F8F7FF"/>
<path d="M42.6649 122.413C42.2409 127.626 39.4735 130.817 33.8718 130.86C28.337 130.903 25.0787 127.903 25.0117 122.605C24.9448 117.328 28.0916 114.243 33.6486 114.158C39.2503 114.073 42.1293 117.18 42.6649 122.413Z" fill="#F8F7FF"/>
<path d="M120.218 166.689C119.816 171.837 117.049 175.093 111.514 175.242C106.024 175.391 102.765 172.476 102.297 167.221C101.85 162.199 105.979 158.072 111.268 158.263C116.781 158.476 119.682 161.476 120.218 166.689Z" fill="#F8F7FF"/>
<path d="M157.513 101.564C152.046 101.01 148.921 98.2445 148.743 92.9681C148.586 87.947 152.938 84.0109 158.205 84.479C163.695 84.9683 166.753 88.0959 166.552 93.3298C166.351 98.5849 162.914 101.202 157.513 101.564Z" fill="#F8F7FF"/>
<path d="M34.1403 84.4998C39.5858 85.138 42.7548 88.0103 42.5317 93.2867C42.3085 98.5844 38.9609 101.478 33.4261 101.308C27.8691 101.116 24.8339 97.9035 25.0124 92.6484C25.2133 87.3081 28.6725 84.7763 34.1403 84.4998Z" fill="#F8F7FF"/>
<path d="M89.1968 48.4802C88.6166 54.0332 85.7153 57.1394 80.1136 57.0543C74.5342 56.9692 71.3651 53.8629 71.4544 48.5652C71.5213 43.2462 74.802 40.2677 80.3591 40.2889C86.0054 40.3315 88.6835 43.6505 89.1968 48.4802Z" fill="#F8F7FF"/>
<path d="M120.174 48.7779C119.661 53.9692 116.804 56.9478 111.269 57.1393C106.002 57.3095 101.918 53.2671 102.342 48.246C102.789 43.0122 106.025 40.1186 111.492 40.2676C117.027 40.4165 119.772 43.6292 120.174 48.7779Z" fill="#F8F7FF"/>
<path d="M49.5159 174.561C44.6506 174.029 41.4146 171.604 41.303 166.944C41.1914 162.306 44.2712 159.285 49.1141 159.179C53.9794 159.072 57.1261 162.008 57.2601 166.604C57.3716 171.285 54.1802 173.795 49.5159 174.561Z" fill="#F8F7FF"/>
<path d="M173.736 99.9674C178.066 100.627 181.012 103.116 181.28 107.754C181.525 111.946 176.95 116.052 172.643 115.478C167.889 114.861 165.099 112.052 165.055 107.393C164.988 103.435 169.206 99.861 173.736 99.9674Z" fill="#F8F7FF"/>
<path d="M26.4191 107.67C25.6379 112.435 22.9822 115.414 18.1169 115.308C13.2964 115.18 10.2389 112.18 10.3728 107.563C10.4843 102.968 13.6534 100.074 18.4963 100.159C23.3616 100.266 25.7942 103.414 26.4191 107.67Z" fill="#F8F7FF"/>
<path d="M95.6036 26.1616C100.357 26.6935 103.616 29.1403 103.683 33.7784C103.772 38.4166 100.692 41.4164 95.8491 41.5228C90.9839 41.6292 87.8371 38.6931 87.7255 34.0762C87.6363 29.4168 90.8053 26.885 95.6036 26.1616Z" fill="#F8F7FF"/>
<path d="M57.3735 48.5655C56.8378 53.076 54.2937 56.161 49.4508 56.2461C44.6079 56.3525 41.4611 53.4377 41.3495 48.8421C41.2379 44.2252 44.2954 41.2253 49.116 41.1189C53.9589 40.9913 56.6147 43.9912 57.3735 48.5655Z" fill="#F8F7FF"/>
<path d="M150.371 166.923C149.568 171.518 146.912 174.561 142.002 174.433C137.137 174.305 134.035 171.263 134.169 166.603C134.303 161.965 137.472 159.029 142.36 159.136C147.269 159.242 149.814 162.37 150.371 166.923Z" fill="#F8F7FF"/>
<path d="M142.044 40.8844C146.842 41.4163 150.1 43.863 150.19 48.5437C150.279 53.2031 147.199 56.2456 142.334 56.3519C137.446 56.4583 134.277 53.501 134.143 48.8629C134.032 44.1609 137.223 41.6291 142.044 40.8844Z" fill="#F8F7FF"/>
<path d="M33.696 144.285C38.6951 145.03 41.8419 147.562 41.708 152.2C41.5964 156.795 38.4496 159.71 33.6067 159.604C28.7862 159.497 25.751 156.498 25.8179 151.881C25.9295 147.221 29.2325 144.881 33.696 144.285Z" fill="#F8F7FF"/>
<path d="M157.78 71.2666C153.004 70.7134 149.724 68.2667 149.634 63.6073C149.545 58.9478 152.647 55.9267 157.49 55.8203C162.378 55.7139 165.547 58.6713 165.658 63.3094C165.815 67.9901 162.623 70.5219 157.78 71.2666Z" fill="#F8F7FF"/>
<path d="M41.9078 63.224C41.3498 67.8621 38.8056 70.9259 33.9627 71.011C29.1198 71.0961 25.9731 68.2025 25.8615 63.6069C25.7499 58.9901 28.8074 56.0114 33.628 55.8838C38.4932 55.7561 41.1043 58.7773 41.9078 63.224Z" fill="#F8F7FF"/>
<path d="M165.905 152.199C165.123 156.731 162.512 159.54 157.647 159.774C153.228 159.986 148.965 155.625 149.568 151.519C150.238 146.987 153.206 144.136 158.049 144.37C162.847 144.583 165.391 147.668 165.905 152.199Z" fill="#F8F7FF"/>
<path d="M173.381 71.1176C178.135 71.5856 180.723 74.0962 180.5 78.6067C180.255 83.181 177.264 85.4788 172.555 85.2022C168.136 84.9469 165.726 82.3513 165.793 78.1386C165.86 73.5643 168.694 71.3516 173.381 71.1176Z" fill="#F8F7FF"/>
<path d="M173.358 144.434C168.403 144.009 165.68 141.668 165.77 137.158C165.837 132.669 168.582 130.158 173.268 130.222C177.977 130.286 180.589 132.903 180.566 137.371C180.544 141.924 177.62 144.03 173.358 144.434Z" fill="#F8F7FF"/>
<path d="M18.0053 144.285C13.3187 143.775 10.7745 141.307 11.0423 136.818C11.3101 132.265 14.3006 130.031 18.9427 130.328C23.3169 130.605 25.6603 133.201 25.5933 137.371C25.4817 141.945 22.6697 144.094 18.0053 144.285Z" fill="#F8F7FF"/>
<path d="M126.691 26.8639C131.378 27.2043 134.101 29.5446 134.012 34.0977C133.9 38.6507 131.088 41.0549 126.357 40.906C121.96 40.7783 119.461 38.3103 119.371 34.119C119.304 29.5447 121.982 27.2043 126.691 26.8639Z" fill="#F8F7FF"/>
<path d="M18.7858 85.2659C13.8313 84.9893 11.0193 82.7766 11.0416 78.2236C11.064 73.6918 13.7644 71.2239 18.4734 71.2877C22.8476 71.3303 25.3918 73.7131 25.5927 77.8832C25.7935 82.4362 23.0931 84.734 18.7858 85.2659Z" fill="#F8F7FF"/>
<path d="M72.1253 34.2041C71.5897 38.672 69.0009 41.0975 64.2919 40.8422C59.5159 40.5869 57.1726 37.7359 57.485 33.3106C57.7751 29.1405 60.4979 26.9065 64.8721 26.9703C69.6704 27.0767 71.9021 29.7575 72.1253 34.2041Z" fill="#F8F7FF"/>
<path d="M188.598 128.903C184.358 128.116 181.747 125.903 182.104 122.009C182.461 118.222 185.184 115.882 189.312 116.265C192.995 116.627 195.338 119.052 195.204 122.626C195.07 126.562 192.258 128.456 188.598 128.903Z" fill="#F8F7FF"/>
<path d="M2.82707 128.669C-1.12313 128.286 -3.66732 126.201 -3.57805 122.286C-3.48878 118.733 -1.07848 116.435 2.67087 116.414C6.75498 116.392 9.25455 118.797 9.16528 122.69C9.12064 126.264 6.68801 128.243 2.82707 128.669Z" fill="#F8F7FF"/>
<path d="M111.004 12.9281C114.62 13.1621 117.253 14.928 117.61 18.5237C117.99 22.4597 115.602 25.0767 111.54 25.2894C107.456 25.5022 104.822 23.0767 104.778 19.162C104.733 15.5451 107.166 13.5025 111.004 12.9281Z" fill="#F8F7FF"/>
<path d="M195.342 92.7551C194.963 96.5209 192.865 99.1378 188.781 99.2016C184.719 99.2655 182.13 96.7974 182.086 92.9252C182.041 89.3509 184.496 86.968 188.156 86.734C192.262 86.4786 194.561 88.9041 195.342 92.7551Z" fill="#F8F7FF"/>
<path d="M2.62811 86.798C6.19891 87.0107 8.78774 88.7554 9.14482 92.3297C9.52422 96.2445 7.1809 98.8188 3.14143 99.0316C-0.920356 99.2444 -3.50919 96.8615 -3.55382 92.9467C-3.59846 89.3937 -1.23283 87.3511 2.62811 86.798Z" fill="#F8F7FF"/>
<path d="M86.7875 19.0554C86.4973 22.5446 84.5557 25.0127 80.8063 25.2892C76.6999 25.5871 73.9772 23.268 73.821 19.3745C73.6647 15.4597 76.2536 13.013 80.3823 13.0343C84.1316 13.0343 86.2518 15.3959 86.7875 19.0554Z" fill="#F8F7FF"/>
<path d="M173.09 172.454C169.273 172.157 167.131 170.199 167.309 166.455C167.466 163.05 169.608 161.178 173.179 161.2C177.129 161.242 179.182 163.412 179.026 167.114C178.87 170.561 176.683 172.22 173.09 172.454Z" fill="#F8F7FF"/>
<path d="M157.109 28.2892C161.26 28.4807 163.514 30.2679 163.492 34.0337C163.469 37.4166 161.461 39.3952 157.912 39.459C154.029 39.5441 151.864 37.5442 151.864 33.8209C151.842 30.3955 154.007 28.736 157.109 28.2892Z" fill="#F8F7FF"/>
<path d="M172.622 43.012C176.773 43.2034 179.05 45.0119 179.005 48.799C178.983 52.2031 176.952 54.2031 173.381 54.2669C169.475 54.352 167.288 52.3308 167.288 48.5862C167.288 45.1395 169.475 43.4375 172.622 43.012Z" fill="#F8F7FF"/>
<path d="M39.6073 34.0552C39.2502 37.3955 37.4202 39.4167 33.827 39.3954C29.8768 39.3742 27.8236 37.1615 28.0691 33.4807C28.2923 30.0979 30.5463 28.3107 34.0948 28.4597C37.6656 28.6086 39.3841 30.6936 39.6073 34.0552Z" fill="#F8F7FF"/>
<path d="M18.5189 161.221C22.045 161.582 24.1206 163.391 24.0759 166.837C24.009 170.646 21.621 172.561 17.7601 172.284C14.1669 172.029 12.3369 169.816 12.5378 166.433C12.7386 162.986 14.9704 161.37 18.5189 161.221Z" fill="#F8F7FF"/>
<path d="M147.716 18.9704C147.425 22.0129 145.752 24.1405 142.56 24.2894C139.012 24.4596 136.758 22.3958 136.802 19.013C136.847 15.9705 138.967 14.0344 142.181 14.0131C145.417 13.9918 147.158 15.9918 147.716 18.9704Z" fill="#F8F7FF"/>
<path d="M54.7633 19.1831C54.2946 22.1617 52.5985 24.2468 49.4294 24.2681C45.9255 24.2894 43.7384 22.1618 43.9393 18.8215C44.1178 15.8641 46.2826 13.928 49.474 14.0556C52.6654 14.162 54.3169 16.2045 54.7633 19.1831Z" fill="#F8F7FF"/>
<path d="M188.602 157.37C185.187 156.902 182.978 155.136 183.156 151.711C183.312 148.668 185.388 146.754 188.624 146.796C192.172 146.839 194.27 148.945 194.136 152.328C193.98 155.413 191.838 157.008 188.602 157.37Z" fill="#F8F7FF"/>
<path d="M2.40628 146.774C5.82087 147.136 8.03031 148.732 8.16421 151.732C8.32044 155.072 6.1333 157.2 2.60713 157.136C-0.539643 157.072 -2.54824 155.051 -2.57056 152.008C-2.57056 148.902 -0.31646 147.413 2.40628 146.774Z" fill="#F8F7FF"/>
<path d="M18.5193 54.2669C14.636 53.8839 12.5382 52.118 12.5605 48.6926C12.6051 44.9268 14.9262 42.9906 18.7871 43.2247C22.3356 43.4374 24.1879 45.6076 24.0317 48.9904C23.8755 52.4584 21.5545 53.9477 18.5193 54.2669Z" fill="#F8F7FF"/>
<path d="M188.286 68.7562C184.983 68.0967 182.818 66.2456 183.22 62.8628C183.555 59.9054 185.72 58.0119 188.911 58.2459C192.393 58.5012 194.424 60.6714 194.066 64.0117C193.732 67.0116 191.545 68.5647 188.286 68.7562Z" fill="#F8F7FF"/>
<path d="M8.25284 63.586C7.65027 66.6072 5.88718 68.6284 2.62882 68.5007C-0.562583 68.3731 -2.6158 66.3518 -2.50421 63.2668C-2.37031 60.2244 -0.250129 58.267 2.98591 58.3734C6.22195 58.501 7.89576 60.5861 8.25284 63.586Z" fill="#F8F7FF"/>
<path d="M209 107.627C208.687 110.627 207.058 112.35 204.068 112.329C201.077 112.308 199.292 110.542 199.314 107.712C199.336 104.861 201.189 103.159 204.157 103.18C207.192 103.18 208.71 104.989 209 107.627Z" fill="#F8F7FF"/>
<path d="M68.9086 4.43877C68.5738 6.71529 67.3018 8.26847 64.8915 8.26847C62.1241 8.28974 60.4949 6.65146 60.7181 4.03453C60.8966 1.80056 62.5258 0.396366 64.9807 0.524021C67.391 0.651676 68.6408 2.16226 68.9086 4.43877Z" fill="#F8F7FF"/>
<path d="M100.381 4.41761C100.002 7.60899 98.1273 9.03449 95.1368 8.75791C92.414 8.5026 90.9857 6.75797 91.142 4.16231C91.3428 1.16241 93.3291 -0.220504 96.3196 0.0560826C99.0647 0.290117 100.292 2.07726 100.381 4.41761Z" fill="#F8F7FF"/>
<path d="M130.956 4.24758C130.465 7.07727 128.925 8.58786 126.203 8.31128C123.882 8.07724 122.409 6.56665 122.565 4.24758C122.743 1.65192 124.484 0.22644 127.185 0.460475C129.572 0.694509 130.644 2.35402 130.956 4.24758Z" fill="#F8F7FF"/>
<path d="M208.418 77.7981C208.218 80.6916 206.856 82.2234 204.067 82.2447C201.656 82.2447 200.116 80.9469 199.915 78.6704C199.692 76.096 201.031 74.4152 203.821 74.2237C206.655 74.011 207.994 75.6067 208.418 77.7981Z" fill="#F8F7FF"/>
<path d="M208.396 137.179C208.218 139.753 206.856 141.285 204.067 141.285C201.656 141.285 200.116 139.987 199.915 137.711C199.692 135.137 201.031 133.435 203.821 133.264C206.588 133.094 208.084 134.541 208.396 137.179Z" fill="#F8F7FF"/>
</svg>
