<svg width="133" height="165" viewBox="0 0 133 165" fill="none" xmlns="http://www.w3.org/2000/svg">
<path d="M126.982 30.1502C109.343 4.0123 84.8449 -6.64238 84.8449 -6.64238C84.8449 -6.64238 90.9005 14.0233 96.3093 26.4717C104.216 44.6702 116.447 58.0783 116.447 58.0783C116.447 58.0783 102.366 45.6131 93.9211 28.4402C88.0779 16.558 80.0686 -2.70542 80.0686 -2.70542C80.0686 -2.70542 69.9483 36.4974 92.1241 66.6553C120.077 104.671 150.829 87.9821 150.829 87.9821C150.829 87.9821 143.859 80.4211 140.45 68.1976C137.069 56.0729 134.831 41.7815 126.982 30.1502Z" fill="#B5B8EE"/>
<path d="M123.038 106.555C108.247 84.638 87.7054 75.7038 87.7054 75.7038C87.7054 75.7038 92.7832 93.0325 97.3185 103.471C103.949 118.731 114.205 129.974 114.205 129.974C114.205 129.974 102.397 119.521 95.316 105.122C90.4163 95.1579 83.7003 79.005 83.7003 79.005C83.7003 79.005 75.2141 111.878 93.8091 137.166C117.249 169.043 143.035 155.049 143.035 155.049C143.035 155.049 137.191 148.709 134.332 138.459C131.496 128.292 129.62 116.309 123.038 106.555Z" fill="#B5B8EE"/>
<path d="M39.9799 113.655C52.9744 94.3994 71.0212 86.5504 71.0212 86.5504C71.0212 86.5504 66.5602 101.774 62.5758 110.945C56.7509 124.351 47.7407 134.228 47.7407 134.228C47.7407 134.228 58.1139 125.046 64.3351 112.395C68.6396 103.642 74.5398 89.4506 74.5398 89.4506C74.5398 89.4506 81.9952 118.33 65.6589 140.547C45.0664 168.552 22.4123 156.258 22.4123 156.258C22.4123 156.258 27.5469 150.688 30.0583 141.683C32.5493 132.751 34.1975 122.223 39.9799 113.655Z" fill="#B5B8EE"/>
<path d="M24.0766 47.2912C41.7159 21.1533 66.2137 10.4986 66.2137 10.4986C66.2137 10.4986 60.1581 31.1642 54.7493 43.6127C46.8423 61.8112 34.6115 75.2193 34.6115 75.2193C34.6115 75.2193 48.6925 62.7541 57.1375 45.5812C62.9807 33.699 70.99 14.4356 70.99 14.4356C70.99 14.4356 81.1103 53.6384 58.9345 83.7963C30.9812 121.812 0.229371 105.123 0.229371 105.123C0.229371 105.123 7.19932 97.5621 10.6084 85.3385C13.9899 73.2139 16.2272 58.9224 24.0766 47.2912Z" fill="#B5B8EE"/>
</svg>
