<svg width="44" height="44" viewBox="0 0 44 44" fill="none" xmlns="http://www.w3.org/2000/svg">
<g clip-path="url(#clip0_1_4240)">
<path fill-rule="evenodd" clip-rule="evenodd" d="M36.9455 3.66309C35.4199 2.81557 31.2145 0.72875 28.471 0.155375C25.6213 -0.440859 21.3814 10.771 20.0335 10.8202C17.8472 10.899 19.7682 3.16559 21.8457 0C18.6033 2.18195 12.8431 5.11096 11.4952 8.47971C8.88966 14.99 16.3242 26.7058 12.3578 27.3799C11.1212 27.5898 7.69595 19.3002 6.80712 16.771C4.29442 21.6104 6.18626 26.1407 8.26376 31.8009V32.1524C8.18411 32.4585 8.1152 32.7514 8.04348 33.0494H8.26376V41.2628C8.26176 41.6236 8.33055 41.9813 8.46619 42.3152C8.60183 42.6491 8.80164 42.9528 9.05412 43.2086C9.30661 43.4645 9.6068 43.6675 9.93743 43.8061C10.2681 43.9446 10.6226 44.0159 10.9807 44.0159C11.3388 44.0159 11.6933 43.9446 12.0239 43.8061C12.3546 43.6675 12.6547 43.4645 12.9072 43.2086C13.1597 42.9528 13.3595 42.6491 13.4952 42.3152C13.6308 41.9813 13.6996 41.6236 13.6976 41.2628V32.9622C18.768 32.3873 21.1533 34.0622 24.6264 27.4264C22.5065 28.31 18.2745 25.6177 19.1527 24.3463C20.9171 21.7877 28.1314 24.4908 32.7298 16.6262C25.4518 18.5806 24.5921 15.7787 24.5231 14.7574C24.3772 12.6426 31.7985 13.7628 35.1814 10.8231C37.1419 9.11866 39.4927 5.08011 36.9455 3.66309Z" fill="#4A4E5A"/>
</g>
<defs>
<clipPath id="clip0_1_4240">
<rect width="43.6651" height="44" fill="white"/>
</clipPath>
</defs>
</svg>
