<svg width="24" height="25" viewBox="0 0 24 25" fill="none" xmlns="http://www.w3.org/2000/svg">
<g clip-path="url(#clip0_1_3163)">
<path fill-rule="evenodd" clip-rule="evenodd" d="M20.3067 2.4978C19.4681 2.03552 17.1567 0.897256 15.6487 0.584506C14.0824 0.259287 11.752 6.37483 11.0112 6.40169C9.80951 6.44468 10.8653 2.22644 12.0072 0.499756C10.2251 1.68991 7.05903 3.28755 6.31822 5.12505C4.88609 8.67612 8.97237 15.0666 6.79231 15.4343C6.11262 15.5487 4.22998 11.0271 3.74145 9.6476C2.36037 12.2872 3.4002 14.7583 4.54208 17.8457V18.0374C4.49829 18.2044 4.46042 18.3641 4.421 18.5267H4.54208V23.0067C4.54097 23.2035 4.57878 23.3986 4.65334 23.5808C4.72789 23.7629 4.83771 23.9285 4.97649 24.0681C5.11527 24.2077 5.28026 24.3184 5.46199 24.394C5.64371 24.4695 5.83858 24.5084 6.0354 24.5084C6.23221 24.5084 6.42708 24.4695 6.60881 24.394C6.79053 24.3184 6.95553 24.2077 7.0943 24.0681C7.23308 23.9285 7.3429 23.7629 7.41745 23.5808C7.49201 23.3986 7.52982 23.2035 7.52872 23.0067V18.4791C10.3156 18.1656 11.6267 19.0791 13.5356 15.4596C12.3704 15.9416 10.0444 14.4731 10.527 13.7796C11.4968 12.384 15.4621 13.8584 17.9895 9.56862C13.9893 10.6346 13.5168 9.10633 13.4788 8.54922C13.3986 7.39572 17.4777 8.00674 19.337 6.40329C20.4146 5.47357 21.7067 3.27072 20.3067 2.4978Z" fill="#382CBE"/>
</g>
<defs>
<clipPath id="clip0_1_3163">
<rect width="24" height="24" fill="white" transform="translate(0 0.5)"/>
</clipPath>
</defs>
</svg>
