<svg width="21" height="25" viewBox="0 0 21 25" fill="none" xmlns="http://www.w3.org/2000/svg">
<path d="M3.20982 18.48C5.56173 21.965 8.8281 23.3857 8.8281 23.3857C8.8281 23.3857 8.02068 20.6302 7.29952 18.9704C6.24525 16.544 4.61447 14.7562 4.61447 14.7562C4.61447 14.7562 6.49195 16.4183 7.61794 18.708C8.39704 20.2923 9.46494 22.8607 9.46494 22.8607C9.46494 22.8607 10.8143 17.6337 7.85755 13.6126C4.13043 8.54393 0.0301919 10.7691 0.0301919 10.7691C0.0301919 10.7691 0.959518 11.7772 1.41406 13.407C1.86493 15.0236 2.16323 16.9291 3.20982 18.48Z" fill="#382CBE"/>
<path d="M3.73543 8.29261C5.70757 11.2149 8.44651 12.4062 8.44651 12.4062C8.44651 12.4062 7.76947 10.0957 7.16476 8.70388C6.28072 6.66923 4.91327 5.17015 4.91327 5.17015C4.91327 5.17015 6.48758 6.56381 7.43176 8.4838C8.08506 9.81228 8.98052 11.966 8.98052 11.966C8.98052 11.966 10.112 7.58297 7.63268 4.2112C4.50739 -0.0390371 1.06922 1.82679 1.06922 1.82679C1.06922 1.82679 1.84848 2.67214 2.22963 4.03878C2.6077 5.39436 2.85783 6.9922 3.73543 8.29261Z" fill="#382CBE"/>
<path d="M14.8103 7.34606C13.0777 9.91341 10.6715 10.9599 10.6715 10.9599C10.6715 10.9599 11.2663 8.9301 11.7975 7.70737C12.5742 5.91987 13.7755 4.60288 13.7755 4.60288C13.7755 4.60288 12.3924 5.82725 11.5629 7.51402C10.989 8.68113 10.2023 10.5732 10.2023 10.5732C10.2023 10.5732 9.20826 6.72262 11.3864 3.76041C14.1321 0.0264387 17.1526 1.66563 17.1526 1.66563C17.1526 1.66563 16.468 2.4083 16.1332 3.60893C15.801 4.79985 15.5813 6.2036 14.8103 7.34606Z" fill="#382CBE"/>
<path d="M16.9308 16.1945C14.5789 19.6796 11.3125 21.1002 11.3125 21.1002C11.3125 21.1002 12.1199 18.3448 12.8411 16.685C13.8954 14.2585 15.5262 12.4708 15.5262 12.4708C15.5262 12.4708 13.6487 14.1328 12.5227 16.4225C11.7436 18.0068 10.6757 20.5753 10.6757 20.5753C10.6757 20.5753 9.32631 15.3482 12.2831 11.3272C16.0102 6.25847 20.1104 8.48359 20.1104 8.48359C20.1104 8.48359 19.1811 9.49173 18.7266 11.1215C18.2757 12.7382 17.9774 14.6437 16.9308 16.1945Z" fill="#382CBE"/>
</svg>
