<svg width="47" height="56" viewBox="0 0 47 56" fill="none" xmlns="http://www.w3.org/2000/svg">
<path d="M7.49056 41.9532C12.9784 50.085 20.5999 53.3998 20.5999 53.3998C20.5999 53.3998 18.7159 46.9705 17.0332 43.0976C14.5732 37.4359 10.7681 33.2644 10.7681 33.2644C10.7681 33.2644 15.1489 37.1425 17.7762 42.4852C19.5941 46.1819 22.0858 52.1749 22.0858 52.1749C22.0858 52.1749 25.2344 39.9785 18.3353 30.596C9.63865 18.7691 0.0714259 23.961 0.0714259 23.961C0.0714259 23.961 2.23985 26.3134 3.30045 30.1162C4.35248 33.8883 5.04852 38.3346 7.49056 41.9532Z" fill="#A2A1A2"/>
<path d="M8.71665 18.1828C13.3183 25.0015 19.7092 27.7811 19.7092 27.7811C19.7092 27.7811 18.1294 22.3899 16.7184 19.1424C14.6557 14.3949 11.4649 10.897 11.4649 10.897C11.4649 10.897 15.1383 14.1489 17.3414 18.6289C18.8658 21.7286 20.9552 26.754 20.9552 26.754C20.9552 26.754 23.5953 16.5269 17.8102 8.65948C10.5179 -1.25775 2.49549 3.09585 2.49549 3.09585C2.49549 3.09585 4.31378 5.06833 5.20313 8.25715C6.08528 11.4202 6.66893 15.1485 8.71665 18.1828Z" fill="#A2A1A2"/>
<path d="M34.5577 15.9741C30.515 21.9646 24.9004 24.4065 24.9004 24.4065C24.9004 24.4065 26.2882 19.6702 27.5279 16.8172C29.3401 12.6464 32.1432 9.57338 32.1432 9.57338C32.1432 9.57338 28.916 12.4302 26.9805 16.3661C25.6413 19.0893 23.8057 23.5042 23.8057 23.5042C23.8057 23.5042 21.4863 14.5194 26.5687 7.60763C32.9752 -1.10498 40.0232 2.7198 40.0232 2.7198C40.0232 2.7198 38.4257 4.45269 37.6444 7.25417C36.8694 10.033 36.3567 13.3084 34.5577 15.9741Z" fill="#A2A1A2"/>
<path d="M39.5046 36.6207C34.0168 44.7525 26.3952 48.0673 26.3952 48.0673C26.3952 48.0673 28.2792 41.6379 29.9619 37.7651C32.4219 32.1033 36.227 27.9319 36.227 27.9319C36.227 27.9319 31.8463 31.81 29.2189 37.1527C27.401 40.8494 24.9093 46.8424 24.9093 46.8424C24.9093 46.8424 21.7607 34.646 28.6599 25.2635C37.3565 13.4366 46.9237 18.6285 46.9237 18.6285C46.9237 18.6285 44.7553 20.9808 43.6947 24.7837C42.6426 28.5558 41.9466 33.0021 39.5046 36.6207Z" fill="#A2A1A2"/>
</svg>
