<svg width="26" height="32" viewBox="0 0 26 32" fill="none" xmlns="http://www.w3.org/2000/svg">
<path d="M5.1494 4.65015L2.82422 17.6874L5.1494 31.9998H22.0855C23.145 31.9998 24.0039 31.141 24.0039 30.0815V6.74102L5.1494 4.65015Z" fill="#382CBE"/>
<path d="M0.5 4.65015V30.0815C0.5 31.141 1.35881 31.9998 2.41831 31.9998H5.15024V4.65015H0.5Z" fill="#0F00B7"/>
<path opacity="0.1" d="M24.003 10.8896H20.6159L16.0921 17.5745C15.1855 18.9143 15.1855 20.6457 16.0921 21.9856L20.6159 28.6705H24.003V10.8896Z" fill="black"/>
<path d="M21.7829 13.0835L17.9115 18.8041C17.5126 19.3937 17.5126 20.1667 17.9115 20.7564L21.7829 26.477H25.3642V13.0835H21.7829Z" fill="#9F99EA"/>
<path d="M20.7547 20.7009C21.2632 20.7009 21.6755 20.2886 21.6755 19.7801C21.6755 19.2716 21.2632 18.8594 20.7547 18.8594C20.2462 18.8594 19.834 19.2716 19.834 19.7801C19.834 20.2886 20.2462 20.7009 20.7547 20.7009Z" fill="#0F00B7"/>
<path d="M24.0015 6.74096L4.59121 7.82758L1.95703 4.64997L4.59121 1.47241L24.0015 2.55903V6.74096Z" fill="white"/>
<path d="M5.14757 6.74095C3.99464 6.74095 3.05664 5.80301 3.05664 4.65008C3.05664 3.49714 3.99464 2.55908 5.14757 2.55908H24.002V6.74095H5.14757Z" fill="white"/>
<path d="M5.15024 2.55931H24.0046V0H5.15024C2.58193 0 0.5 2.082 0.5 4.65024C0.5 7.21848 2.58199 9.30054 5.15024 9.30054H24.0047V6.74123H5.15024C3.99724 6.74117 3.05931 5.80324 3.05931 4.6503C3.05931 3.49737 3.99724 2.55931 5.15024 2.55931Z" fill="#9F99EA"/>
</svg>
