<svg width="40" height="40" viewBox="0 0 40 40" fill="none" xmlns="http://www.w3.org/2000/svg">
<path d="M28.6475 2.34583C28.5686 2.345 28.4896 2.3451 28.4104 2.34614H28.4106C25.1688 2.39013 21.8767 4.077 19.7509 7.7588C16.4765 -1.44198 1.27513 1.79865 1.62591 12.7979C1.67591 14.3657 2.02685 15.8437 2.59888 17.2445H8.57153L10.2293 11.4534L12.2899 18.4951L13.7321 13.4708L15.0788 17.2444H25.6328L27.2908 11.4533L29.3513 18.4947L30.7935 13.4707L32.1402 17.2444H37.8056C38.3601 15.8238 38.6593 14.3431 38.6108 12.7977C38.4069 6.31021 33.6207 2.40068 28.6473 2.34568L28.6475 2.34583ZM10.2441 16.5109L9.63146 18.6508H3.25802C5.41661 22.7298 9.35596 26.138 12.9038 29.2074C16.3553 32.1935 19.4362 34.859 20.1465 37.5097C20.7767 35.1581 23.7808 32.5494 27.1891 29.5898C30.8712 26.3924 35.0248 22.7854 37.1664 18.6507H31.149L30.9388 18.0615L29.3643 23.5465L27.3054 16.511L26.6929 18.6506H14.0875L13.8773 18.0615L12.3031 23.5464L10.2441 16.5108V16.5109Z" fill="url(#paint0_linear_37_897)"/>
<path d="M28.6475 2.34583C28.5686 2.345 28.4896 2.3451 28.4104 2.34614H28.4106C25.1688 2.39013 21.8767 4.077 19.7509 7.7588C16.4765 -1.44198 1.27513 1.79865 1.62591 12.7979C1.67591 14.3657 2.02685 15.8437 2.59888 17.2445H8.57153L10.2293 11.4534L12.2899 18.4951L13.7321 13.4708L15.0788 17.2444H25.6328L27.2908 11.4533L29.3513 18.4947L30.7935 13.4707L32.1402 17.2444H37.8056C38.3601 15.8238 38.6593 14.3431 38.6108 12.7977C38.4069 6.31021 33.6207 2.40068 28.6473 2.34568L28.6475 2.34583ZM10.2441 16.5109L9.63146 18.6508H3.25802C5.41661 22.7298 9.35596 26.138 12.9038 29.2074C16.3553 32.1935 19.4362 34.859 20.1465 37.5097C20.7767 35.1581 23.7808 32.5494 27.1891 29.5898C30.8712 26.3924 35.0248 22.7854 37.1664 18.6507H31.149L30.9388 18.0615L29.3643 23.5465L27.3054 16.511L26.6929 18.6506H14.0875L13.8773 18.0615L12.3031 23.5464L10.2441 16.5108V16.5109Z" stroke="white"/>
<defs>
<linearGradient id="paint0_linear_37_897" x1="20.1179" y1="2.34528" x2="20.1179" y2="37.5097" gradientUnits="userSpaceOnUse">
<stop offset="0.095" stop-color="#EC3232"/>
<stop offset="1" stop-color="#861C1C"/>
</linearGradient>
</defs>
</svg>
