<svg width="41" height="40" viewBox="0 0 41 40" fill="none" xmlns="http://www.w3.org/2000/svg">
<path d="M12.5 21.84C17.9345 21.84 22.34 17.4345 22.34 12C22.34 6.56555 17.9345 2.16003 12.5 2.16003C7.06552 2.16003 2.66 6.56555 2.66 12C2.66 17.4345 7.06552 21.84 12.5 21.84Z" fill="#231F20"/>
<path d="M12.5 21.36C17.6694 21.36 21.86 17.1694 21.86 12C21.86 6.83063 17.6694 2.64001 12.5 2.64001C7.33063 2.64001 3.14001 6.83063 3.14001 12C3.14001 17.1694 7.33063 21.36 12.5 21.36Z" fill="#FF8E5A"/>
<path d="M12.5 19.4401C16.609 19.4401 19.94 16.1091 19.94 12.0001C19.94 7.89106 16.609 4.56006 12.5 4.56006C8.391 4.56006 5.06 7.89106 5.06 12.0001C5.06 16.1091 8.391 19.4401 12.5 19.4401Z" fill="#231F20"/>
<path d="M12.5 18.96C16.3439 18.96 19.46 15.8439 19.46 12C19.46 8.15614 16.3439 5.04004 12.5 5.04004C8.65611 5.04004 5.54001 8.15614 5.54001 12C5.54001 15.8439 8.65611 18.96 12.5 18.96Z" fill="#FFBA50"/>
<path d="M12.5 16.5599C15.0184 16.5599 17.06 14.5184 17.06 11.9999C17.06 9.48152 15.0184 7.43994 12.5 7.43994C9.98158 7.43994 7.94 9.48152 7.94 11.9999C7.94 14.5184 9.98158 16.5599 12.5 16.5599Z" fill="#231F20"/>
<path d="M12.5 16.08C14.7533 16.08 16.58 14.2534 16.58 12C16.58 9.74672 14.7533 7.92004 12.5 7.92004C10.2467 7.92004 8.42001 9.74672 8.42001 12C8.42001 14.2534 10.2467 16.08 12.5 16.08Z" fill="white"/>
<path d="M13.7 10.1588L12.2686 11.5901L11.8289 11.15C11.6488 10.9699 11.4046 10.8687 11.15 10.8687C10.8953 10.8687 10.6511 10.9699 10.471 11.15C10.2909 11.33 10.1898 11.5743 10.1898 11.8289C10.1898 12.0836 10.2909 12.3278 10.471 12.5079L11.5899 13.6263C11.7699 13.8063 12.014 13.9074 12.2686 13.9074C12.5231 13.9074 12.7673 13.8063 12.9473 13.6263L15.0593 11.5143C15.2339 11.333 15.3304 11.0903 15.3278 10.8386C15.3253 10.5869 15.224 10.3463 15.0458 10.1685C14.8675 9.99078 14.6266 9.89015 14.3748 9.88833C14.1231 9.88651 13.8808 9.98363 13.7 10.1588Z" fill="#231F20"/>
<path d="M14.718 11.1768L12.606 13.2888C12.5145 13.376 12.393 13.4246 12.2667 13.4246C12.1403 13.4246 12.0188 13.376 11.9273 13.2888L10.8084 12.1704C10.7182 12.0798 10.6676 11.957 10.6679 11.8291C10.6681 11.7012 10.7192 11.5786 10.8099 11.4883C10.9005 11.3981 11.0233 11.3475 11.1512 11.3478C11.2791 11.3481 11.4017 11.3991 11.4919 11.4898L12.1011 12.0989C12.1461 12.1439 12.2071 12.1692 12.2707 12.1692C12.3344 12.1692 12.3954 12.1439 12.4404 12.0989L14.0417 10.4981C14.086 10.4523 14.1389 10.4157 14.1975 10.3905C14.2561 10.3654 14.3191 10.3521 14.3828 10.3516C14.4465 10.351 14.5097 10.3632 14.5687 10.3873C14.6277 10.4114 14.6813 10.4471 14.7264 10.4922C14.7714 10.5372 14.8071 10.5908 14.8312 10.6498C14.8554 10.7088 14.8675 10.772 14.8669 10.8357C14.8664 10.8995 14.8531 10.9625 14.828 11.021C14.8028 11.0796 14.7663 11.1325 14.7204 11.1768H14.718Z" fill="#7CC05B"/>
</svg>
