<svg width="40" height="40" viewBox="0 0 40 40" fill="none" xmlns="http://www.w3.org/2000/svg">
<path d="M20.015 19.2625C16.59 19.2625 13.39 20.5875 11.0025 22.8125V37.5H28.9775V22.775C26.54 20.5156 23.3386 19.261 20.015 19.2625Z" fill="url(#paint0_radial_37_916)"/>
<path d="M20.015 19.2625C16.59 19.2625 13.39 20.5875 11.0025 22.8125V37.5H28.9775V22.775C26.54 20.5156 23.3386 19.261 20.015 19.2625Z" fill="url(#paint1_linear_37_916)"/>
<path d="M20.015 19.2625C16.59 19.2625 13.39 20.5875 11.0025 22.8125V37.5H28.9775V22.775C26.54 20.5156 23.3386 19.261 20.015 19.2625Z" fill="url(#paint2_linear_37_916)"/>
<path d="M20.015 19.2625C16.59 19.2625 13.39 20.5875 11.0025 22.8125V37.5H28.9775V22.775C26.54 20.5156 23.3386 19.261 20.015 19.2625Z" fill="url(#paint3_linear_37_916)"/>
<path d="M20.015 19.2625C16.59 19.2625 13.39 20.5875 11.0025 22.8125V37.5H28.9775V22.775C26.54 20.5156 23.3386 19.261 20.015 19.2625Z" fill="url(#paint4_radial_37_916)"/>
<path d="M20.015 19.2625C16.59 19.2625 13.39 20.5875 11.0025 22.8125V37.5H28.9775V22.775C26.54 20.5156 23.3386 19.261 20.015 19.2625Z" fill="url(#paint5_radial_37_916)"/>
<path d="M20.015 19.2625C16.59 19.2625 13.39 20.5875 11.0025 22.8125V37.5H28.9775V22.775C26.54 20.5156 23.3386 19.261 20.015 19.2625Z" fill="url(#paint6_radial_37_916)"/>
<path d="M20.475 19.2625C20.7875 19.275 21.1125 19.3 21.4375 19.325C21.1125 19.3 20.8 19.275 20.475 19.2625Z" fill="url(#paint7_linear_37_916)"/>
<path d="M20.0625 19.2625H20.0125C20.1375 19.2625 20.25 19.2625 20.375 19.275C20.275 19.2625 20.1625 19.2625 20.0625 19.2625Z" fill="url(#paint8_linear_37_916)"/>
<path d="M7.43876 28.4612L7.40126 28.5612C6.75126 30.6237 6.41376 32.7612 6.41376 34.9237V37.4987H11.0013V22.8112C9.34902 24.358 8.12225 26.3036 7.43876 28.4612Z" fill="url(#paint9_radial_37_916)"/>
<path d="M7.43876 28.4612L7.40126 28.5612C6.75126 30.6237 6.41376 32.7612 6.41376 34.9237V37.4987H11.0013V22.8112C9.34902 24.358 8.12225 26.3036 7.43876 28.4612Z" fill="url(#paint10_radial_37_916)"/>
<path d="M7.43876 28.4612L7.40126 28.5612C6.75126 30.6237 6.41376 32.7612 6.41376 34.9237V37.4987H11.0013V22.8112C9.34902 24.358 8.12225 26.3036 7.43876 28.4612Z" fill="url(#paint11_linear_37_916)"/>
<path d="M33.565 34.9625C33.5775 32.775 33.2525 30.6 32.6025 28.5125C31.9025 26.2625 30.6275 24.3 28.9775 22.775V37.5H33.54L33.565 34.9625Z" fill="url(#paint12_radial_37_916)"/>
<path d="M33.565 34.9625C33.5775 32.775 33.2525 30.6 32.6025 28.5125C31.9025 26.2625 30.6275 24.3 28.9775 22.775V37.5H33.54L33.565 34.9625Z" fill="url(#paint13_radial_37_916)"/>
<path d="M33.565 34.9625C33.5775 32.775 33.2525 30.6 32.6025 28.5125C31.9025 26.2625 30.6275 24.3 28.9775 22.775V37.5H33.54L33.565 34.9625Z" fill="url(#paint14_linear_37_916)"/>
<path d="M20.6475 28.1413C20.6475 28.0913 20.635 27.8875 20.6475 27.8375L23.9763 19.975C23.9888 19.9375 24.0138 19.9 24.0263 19.875C22.7638 19.475 21.4263 19.2625 20.0513 19.2625C18.6638 19.2625 17.3138 19.4875 16.0388 19.8875C16.0513 19.9125 16.0763 19.95 16.0888 19.975L19.3888 27.925C19.4013 27.9625 19.4563 27.9875 19.4563 28.0375L19.5263 32.5375H19.5388V37.5H20.5263V32.5375L20.6238 28.2675L20.6475 28.1413Z" fill="url(#paint15_radial_37_916)"/>
<path d="M20.6475 28.1413C20.6475 28.0913 20.635 27.8875 20.6475 27.8375L23.9763 19.975C23.9888 19.9375 24.0138 19.9 24.0263 19.875C22.7638 19.475 21.4263 19.2625 20.0513 19.2625C18.6638 19.2625 17.3138 19.4875 16.0388 19.8875C16.0513 19.9125 16.0763 19.95 16.0888 19.975L19.3888 27.925C19.4013 27.9625 19.4563 27.9875 19.4563 28.0375L19.5263 32.5375H19.5388V37.5H20.5263V32.5375L20.6238 28.2675L20.6475 28.1413Z" fill="url(#paint16_radial_37_916)"/>
<path d="M20.475 19.2625C20.7875 19.275 21.1125 19.3 21.4375 19.325C21.1125 19.3 20.8 19.275 20.475 19.2625Z" fill="url(#paint17_linear_37_916)"/>
<path d="M20.0625 19.2625H20.0125C20.1375 19.2625 20.25 19.2625 20.375 19.275C20.275 19.2625 20.1625 19.2625 20.0625 19.2625Z" fill="url(#paint18_linear_37_916)"/>
<g filter="url(#filter0_f_37_916)">
<path d="M12.79 25.1913L13.7063 25.3538C13.7529 25.3623 13.7963 25.3831 13.8322 25.414C13.8681 25.445 13.8951 25.4849 13.9104 25.5298C13.9256 25.5746 13.9287 25.6227 13.9192 25.6691C13.9097 25.7155 13.888 25.7586 13.8563 25.7938L12.975 26.7563C12.9292 26.808 12.905 26.8753 12.9073 26.9444C12.9096 27.0135 12.9383 27.079 12.9875 27.1275L18.62 32.875C18.7588 33.015 19.0025 32.9225 19.0025 32.725V28.5638C19.0025 28.5175 18.99 28.4838 18.9788 28.4363L15.8038 21.0775C15.7955 21.047 15.7795 21.019 15.7575 20.9963C14.7133 21.3281 13.7188 21.7999 12.8013 22.3988L12.57 24.9025C12.5637 24.9695 12.5828 25.0364 12.6235 25.0899C12.6643 25.1434 12.7238 25.1796 12.79 25.1913Z" fill="#A49EA5"/>
</g>
<g filter="url(#filter1_f_37_916)">
<path d="M27.3988 25.1913L26.4825 25.3538C26.4359 25.3623 26.3924 25.3831 26.3565 25.414C26.3207 25.445 26.2937 25.4849 26.2784 25.5298C26.2631 25.5746 26.2601 25.6227 26.2696 25.6691C26.2791 25.7155 26.3008 25.7586 26.3325 25.7938L27.2125 26.7563C27.2585 26.8078 27.2829 26.8751 27.2809 26.9441C27.2788 27.0132 27.2503 27.0788 27.2012 27.1275L21.5687 32.875C21.43 33.015 21.1862 32.9225 21.1862 32.725V28.5638C21.1862 28.5175 21.1988 28.4838 21.21 28.4363L24.385 21.0775C24.3933 21.047 24.4092 21.019 24.4312 20.9963C25.4755 21.3281 26.47 21.7999 27.3875 22.3988L27.6187 24.9025C27.6251 24.9695 27.606 25.0364 27.5652 25.0899C27.5245 25.1434 27.465 25.1796 27.3988 25.1913Z" fill="url(#paint19_linear_37_916)"/>
</g>
<path d="M20.8438 27.1125C20.5163 27.7575 20.5163 28.29 20.5163 28.745V32.4837C20.5163 32.6962 20.7763 32.8087 20.925 32.6462L26.9475 26.4462C27.06 26.3337 27.06 26.1587 26.96 26.0462L26.0175 25.0087C25.9833 24.9707 25.9599 24.9242 25.9497 24.874C25.9395 24.8239 25.9428 24.7719 25.9594 24.7235C25.9759 24.6751 26.0051 24.632 26.0439 24.5986C26.0827 24.5653 26.1297 24.5429 26.18 24.5337L27.1575 24.3587C27.2291 24.3461 27.2933 24.3069 27.3371 24.2489C27.3809 24.191 27.4012 24.1185 27.3938 24.0462L27.1588 21.4725C27.1543 21.4256 27.1392 21.3803 27.1148 21.34C27.0903 21.2998 27.0571 21.2656 27.0175 21.24C26.0718 20.6396 25.0531 20.1629 23.9863 19.8212C23.9647 19.8519 23.9478 19.8856 23.9363 19.9212L20.8438 27.1125Z" fill="url(#paint20_linear_37_916)"/>
<path d="M20.8438 27.1125C20.5163 27.7575 20.5163 28.29 20.5163 28.745V32.4837C20.5163 32.6962 20.7763 32.8087 20.925 32.6462L26.9475 26.4462C27.06 26.3337 27.06 26.1587 26.96 26.0462L26.0175 25.0087C25.9833 24.9707 25.9599 24.9242 25.9497 24.874C25.9395 24.8239 25.9428 24.7719 25.9594 24.7235C25.9759 24.6751 26.0051 24.632 26.0439 24.5986C26.0827 24.5653 26.1297 24.5429 26.18 24.5337L27.1575 24.3587C27.2291 24.3461 27.2933 24.3069 27.3371 24.2489C27.3809 24.191 27.4012 24.1185 27.3938 24.0462L27.1588 21.4725C27.1543 21.4256 27.1392 21.3803 27.1148 21.34C27.0903 21.2998 27.0571 21.2656 27.0175 21.24C26.0718 20.6396 25.0531 20.1629 23.9863 19.8212C23.9647 19.8519 23.9478 19.8856 23.9363 19.9212L20.8438 27.1125Z" fill="url(#paint21_linear_37_916)"/>
<path d="M20.8438 27.1125C20.5163 27.7575 20.5163 28.29 20.5163 28.745V32.4837C20.5163 32.6962 20.7763 32.8087 20.925 32.6462L26.9475 26.4462C27.06 26.3337 27.06 26.1587 26.96 26.0462L26.0175 25.0087C25.9833 24.9707 25.9599 24.9242 25.9497 24.874C25.9395 24.8239 25.9428 24.7719 25.9594 24.7235C25.9759 24.6751 26.0051 24.632 26.0439 24.5986C26.0827 24.5653 26.1297 24.5429 26.18 24.5337L27.1575 24.3587C27.2291 24.3461 27.2933 24.3069 27.3371 24.2489C27.3809 24.191 27.4012 24.1185 27.3938 24.0462L27.1588 21.4725C27.1543 21.4256 27.1392 21.3803 27.1148 21.34C27.0903 21.2998 27.0571 21.2656 27.0175 21.24C26.0718 20.6396 25.0531 20.1629 23.9863 19.8212C23.9647 19.8519 23.9478 19.8856 23.9363 19.9212L20.8438 27.1125Z" fill="url(#paint22_linear_37_916)"/>
<path d="M20.8438 27.1125C20.5163 27.7575 20.5163 28.29 20.5163 28.745V32.4837C20.5163 32.6962 20.7763 32.8087 20.925 32.6462L26.9475 26.4462C27.06 26.3337 27.06 26.1587 26.96 26.0462L26.0175 25.0087C25.9833 24.9707 25.9599 24.9242 25.9497 24.874C25.9395 24.8239 25.9428 24.7719 25.9594 24.7235C25.9759 24.6751 26.0051 24.632 26.0439 24.5986C26.0827 24.5653 26.1297 24.5429 26.18 24.5337L27.1575 24.3587C27.2291 24.3461 27.2933 24.3069 27.3371 24.2489C27.3809 24.191 27.4012 24.1185 27.3938 24.0462L27.1588 21.4725C27.1543 21.4256 27.1392 21.3803 27.1148 21.34C27.0903 21.2998 27.0571 21.2656 27.0175 21.24C26.0718 20.6396 25.0531 20.1629 23.9863 19.8212C23.9647 19.8519 23.9478 19.8856 23.9363 19.9212L20.8438 27.1125Z" fill="url(#paint23_radial_37_916)"/>
<path d="M20.8438 27.1125C20.5163 27.7575 20.5163 28.29 20.5163 28.745V32.4837C20.5163 32.6962 20.7763 32.8087 20.925 32.6462L26.9475 26.4462C27.06 26.3337 27.06 26.1587 26.96 26.0462L26.0175 25.0087C25.9833 24.9707 25.9599 24.9242 25.9497 24.874C25.9395 24.8239 25.9428 24.7719 25.9594 24.7235C25.9759 24.6751 26.0051 24.632 26.0439 24.5986C26.0827 24.5653 26.1297 24.5429 26.18 24.5337L27.1575 24.3587C27.2291 24.3461 27.2933 24.3069 27.3371 24.2489C27.3809 24.191 27.4012 24.1185 27.3938 24.0462L27.1588 21.4725C27.1543 21.4256 27.1392 21.3803 27.1148 21.34C27.0903 21.2998 27.0571 21.2656 27.0175 21.24C26.0718 20.6396 25.0531 20.1629 23.9863 19.8212C23.9647 19.8519 23.9478 19.8856 23.9363 19.9212L20.8438 27.1125Z" fill="url(#paint24_radial_37_916)"/>
<path d="M20.8438 27.1125C20.5163 27.7575 20.5163 28.29 20.5163 28.745V32.4837C20.5163 32.6962 20.7763 32.8087 20.925 32.6462L26.9475 26.4462C27.06 26.3337 27.06 26.1587 26.96 26.0462L26.0175 25.0087C25.9833 24.9707 25.9599 24.9242 25.9497 24.874C25.9395 24.8239 25.9428 24.7719 25.9594 24.7235C25.9759 24.6751 26.0051 24.632 26.0439 24.5986C26.0827 24.5653 26.1297 24.5429 26.18 24.5337L27.1575 24.3587C27.2291 24.3461 27.2933 24.3069 27.3371 24.2489C27.3809 24.191 27.4012 24.1185 27.3938 24.0462L27.1588 21.4725C27.1543 21.4256 27.1392 21.3803 27.1148 21.34C27.0903 21.2998 27.0571 21.2656 27.0175 21.24C26.0718 20.6396 25.0531 20.1629 23.9863 19.8212C23.9647 19.8519 23.9478 19.8856 23.9363 19.9212L20.8438 27.1125Z" fill="url(#paint25_radial_37_916)"/>
<path d="M19.245 27.1125C19.5725 27.7575 19.5725 28.29 19.5725 28.745V32.4837C19.5725 32.6962 19.3125 32.8087 19.1638 32.6462L13.1413 26.4462C13.0887 26.3936 13.0582 26.323 13.0559 26.2487C13.0536 26.1744 13.0796 26.102 13.1288 26.0462L14.0713 25.0087C14.2188 24.8462 14.1338 24.5712 13.9088 24.5337L12.93 24.3587C12.8586 24.3459 12.7948 24.3065 12.7512 24.2486C12.7076 24.1906 12.6876 24.1183 12.695 24.0462L12.9288 21.4725C12.9333 21.4256 12.9483 21.3803 12.9728 21.34C12.9972 21.2998 13.0305 21.2656 13.07 21.24C14.0161 20.6395 15.0353 20.1628 16.1025 19.8212C16.1241 19.8519 16.1409 19.8856 16.1525 19.9212L19.245 27.1125Z" fill="url(#paint26_radial_37_916)"/>
<path d="M19.245 27.1125C19.5725 27.7575 19.5725 28.29 19.5725 28.745V32.4837C19.5725 32.6962 19.3125 32.8087 19.1638 32.6462L13.1413 26.4462C13.0887 26.3936 13.0582 26.323 13.0559 26.2487C13.0536 26.1744 13.0796 26.102 13.1288 26.0462L14.0713 25.0087C14.2188 24.8462 14.1338 24.5712 13.9088 24.5337L12.93 24.3587C12.8586 24.3459 12.7948 24.3065 12.7512 24.2486C12.7076 24.1906 12.6876 24.1183 12.695 24.0462L12.9288 21.4725C12.9333 21.4256 12.9483 21.3803 12.9728 21.34C12.9972 21.2998 13.0305 21.2656 13.07 21.24C14.0161 20.6395 15.0353 20.1628 16.1025 19.8212C16.1241 19.8519 16.1409 19.8856 16.1525 19.9212L19.245 27.1125Z" fill="url(#paint27_radial_37_916)"/>
<path d="M19.245 27.1125C19.5725 27.7575 19.5725 28.29 19.5725 28.745V32.4837C19.5725 32.6962 19.3125 32.8087 19.1638 32.6462L13.1413 26.4462C13.0887 26.3936 13.0582 26.323 13.0559 26.2487C13.0536 26.1744 13.0796 26.102 13.1288 26.0462L14.0713 25.0087C14.2188 24.8462 14.1338 24.5712 13.9088 24.5337L12.93 24.3587C12.8586 24.3459 12.7948 24.3065 12.7512 24.2486C12.7076 24.1906 12.6876 24.1183 12.695 24.0462L12.9288 21.4725C12.9333 21.4256 12.9483 21.3803 12.9728 21.34C12.9972 21.2998 13.0305 21.2656 13.07 21.24C14.0161 20.6395 15.0353 20.1628 16.1025 19.8212C16.1241 19.8519 16.1409 19.8856 16.1525 19.9212L19.245 27.1125Z" fill="url(#paint28_linear_37_916)"/>
<path d="M19.245 27.1125C19.5725 27.7575 19.5725 28.29 19.5725 28.745V32.4837C19.5725 32.6962 19.3125 32.8087 19.1638 32.6462L13.1413 26.4462C13.0887 26.3936 13.0582 26.323 13.0559 26.2487C13.0536 26.1744 13.0796 26.102 13.1288 26.0462L14.0713 25.0087C14.2188 24.8462 14.1338 24.5712 13.9088 24.5337L12.93 24.3587C12.8586 24.3459 12.7948 24.3065 12.7512 24.2486C12.7076 24.1906 12.6876 24.1183 12.695 24.0462L12.9288 21.4725C12.9333 21.4256 12.9483 21.3803 12.9728 21.34C12.9972 21.2998 13.0305 21.2656 13.07 21.24C14.0161 20.6395 15.0353 20.1628 16.1025 19.8212C16.1241 19.8519 16.1409 19.8856 16.1525 19.9212L19.245 27.1125Z" fill="url(#paint29_radial_37_916)"/>
<path d="M19.245 27.1125C19.5725 27.7575 19.5725 28.29 19.5725 28.745V32.4837C19.5725 32.6962 19.3125 32.8087 19.1638 32.6462L13.1413 26.4462C13.0887 26.3936 13.0582 26.323 13.0559 26.2487C13.0536 26.1744 13.0796 26.102 13.1288 26.0462L14.0713 25.0087C14.2188 24.8462 14.1338 24.5712 13.9088 24.5337L12.93 24.3587C12.8586 24.3459 12.7948 24.3065 12.7512 24.2486C12.7076 24.1906 12.6876 24.1183 12.695 24.0462L12.9288 21.4725C12.9333 21.4256 12.9483 21.3803 12.9728 21.34C12.9972 21.2998 13.0305 21.2656 13.07 21.24C14.0161 20.6395 15.0353 20.1628 16.1025 19.8212C16.1241 19.8519 16.1409 19.8856 16.1525 19.9212L19.245 27.1125Z" fill="url(#paint30_radial_37_916)"/>
<path d="M19.245 27.1125C19.5725 27.7575 19.5725 28.29 19.5725 28.745V32.4837C19.5725 32.6962 19.3125 32.8087 19.1638 32.6462L13.1413 26.4462C13.0887 26.3936 13.0582 26.323 13.0559 26.2487C13.0536 26.1744 13.0796 26.102 13.1288 26.0462L14.0713 25.0087C14.2188 24.8462 14.1338 24.5712 13.9088 24.5337L12.93 24.3587C12.8586 24.3459 12.7948 24.3065 12.7512 24.2486C12.7076 24.1906 12.6876 24.1183 12.695 24.0462L12.9288 21.4725C12.9333 21.4256 12.9483 21.3803 12.9728 21.34C12.9972 21.2998 13.0305 21.2656 13.07 21.24C14.0161 20.6395 15.0353 20.1628 16.1025 19.8212C16.1241 19.8519 16.1409 19.8856 16.1525 19.9212L19.245 27.1125Z" fill="url(#paint31_radial_37_916)"/>
<path d="M20.0125 23.4C19.3163 23.4 18.6486 23.1234 18.1564 22.6311C17.6641 22.1389 17.3875 21.4712 17.3875 20.775V19.05H22.6375V20.775C22.6375 21.1197 22.5696 21.4611 22.4377 21.7795C22.3058 22.098 22.1124 22.3874 21.8687 22.6311C21.6249 22.8749 21.3355 23.0683 21.0171 23.2002C20.6986 23.3321 20.3572 23.4 20.0125 23.4Z" fill="url(#paint32_radial_37_916)"/>
<g filter="url(#filter2_i_37_916)">
<path d="M14.0438 15.4825C15.196 15.4825 16.13 14.5485 16.13 13.3962C16.13 12.244 15.196 11.31 14.0438 11.31C12.8916 11.31 11.9575 12.244 11.9575 13.3962C11.9575 14.5485 12.8916 15.4825 14.0438 15.4825Z" fill="url(#paint33_radial_37_916)"/>
</g>
<path d="M14.0438 15.4825C15.196 15.4825 16.13 14.5485 16.13 13.3962C16.13 12.244 15.196 11.31 14.0438 11.31C12.8916 11.31 11.9575 12.244 11.9575 13.3962C11.9575 14.5485 12.8916 15.4825 14.0438 15.4825Z" fill="url(#paint34_radial_37_916)"/>
<g filter="url(#filter3_f_37_916)">
<path d="M14.0438 14.64C14.7307 14.64 15.2875 14.0831 15.2875 13.3962C15.2875 12.7093 14.7307 12.1525 14.0438 12.1525C13.3569 12.1525 12.8 12.7093 12.8 13.3962C12.8 14.0831 13.3569 14.64 14.0438 14.64Z" fill="url(#paint35_linear_37_916)"/>
</g>
<g filter="url(#filter4_i_37_916)">
<path d="M25.935 15.4825C27.0872 15.4825 28.0213 14.5485 28.0213 13.3962C28.0213 12.244 27.0872 11.31 25.935 11.31C24.7828 11.31 23.8488 12.244 23.8488 13.3962C23.8488 14.5485 24.7828 15.4825 25.935 15.4825Z" fill="url(#paint36_linear_37_916)"/>
<path d="M25.935 15.4825C27.0872 15.4825 28.0213 14.5485 28.0213 13.3962C28.0213 12.244 27.0872 11.31 25.935 11.31C24.7828 11.31 23.8488 12.244 23.8488 13.3962C23.8488 14.5485 24.7828 15.4825 25.935 15.4825Z" fill="url(#paint37_radial_37_916)"/>
</g>
<g filter="url(#filter5_f_37_916)">
<path d="M25.935 14.64C26.6219 14.64 27.1788 14.0831 27.1788 13.3962C27.1788 12.7093 26.6219 12.1525 25.935 12.1525C25.2481 12.1525 24.6913 12.7093 24.6913 13.3962C24.6913 14.0831 25.2481 14.64 25.935 14.64Z" fill="#A57C70"/>
<path d="M25.935 14.64C26.6219 14.64 27.1788 14.0831 27.1788 13.3962C27.1788 12.7093 26.6219 12.1525 25.935 12.1525C25.2481 12.1525 24.6913 12.7093 24.6913 13.3962C24.6913 14.0831 25.2481 14.64 25.935 14.64Z" fill="url(#paint38_radial_37_916)"/>
<path d="M25.935 14.64C26.6219 14.64 27.1788 14.0831 27.1788 13.3962C27.1788 12.7093 26.6219 12.1525 25.935 12.1525C25.2481 12.1525 24.6913 12.7093 24.6913 13.3962C24.6913 14.0831 25.2481 14.64 25.935 14.64Z" fill="url(#paint39_radial_37_916)"/>
</g>
<g filter="url(#filter6_i_37_916)">
<path d="M13.6038 12.63L13.6662 12.6325C13.6662 12.6325 13.5987 11.565 13.5312 10.8325C13.5312 10.4988 13.665 10.0988 13.9338 9.89877L14.1338 9.69877C14.4713 9.43252 14.6037 9.03252 14.6037 8.63252V7.56627C14.6037 7.23252 14.805 6.96627 15.1412 6.89877C15.945 6.69877 17.6212 6.36627 20.035 6.36627C22.4475 6.36627 24.1237 6.69877 24.9287 6.89877C25.1975 6.96627 25.4662 7.23252 25.4662 7.56627V8.63252C25.4662 9.03252 25.6662 9.43252 25.935 9.69877C26.5625 10.1388 26.5225 10.3813 26.4712 10.8988C26.4037 11.565 26.3375 12.6988 26.3375 12.6988H26.36L26.0275 17.6463C25.8275 19.8588 24.0875 21.4 22.015 21.4H18.0025C15.8625 21.4 14.19 19.8575 13.99 17.6463L13.6038 12.63Z" fill="url(#paint40_linear_37_916)"/>
<path d="M13.6038 12.63L13.6662 12.6325C13.6662 12.6325 13.5987 11.565 13.5312 10.8325C13.5312 10.4988 13.665 10.0988 13.9338 9.89877L14.1338 9.69877C14.4713 9.43252 14.6037 9.03252 14.6037 8.63252V7.56627C14.6037 7.23252 14.805 6.96627 15.1412 6.89877C15.945 6.69877 17.6212 6.36627 20.035 6.36627C22.4475 6.36627 24.1237 6.69877 24.9287 6.89877C25.1975 6.96627 25.4662 7.23252 25.4662 7.56627V8.63252C25.4662 9.03252 25.6662 9.43252 25.935 9.69877C26.5625 10.1388 26.5225 10.3813 26.4712 10.8988C26.4037 11.565 26.3375 12.6988 26.3375 12.6988H26.36L26.0275 17.6463C25.8275 19.8588 24.0875 21.4 22.015 21.4H18.0025C15.8625 21.4 14.19 19.8575 13.99 17.6463L13.6038 12.63Z" fill="url(#paint41_radial_37_916)"/>
<path d="M13.6038 12.63L13.6662 12.6325C13.6662 12.6325 13.5987 11.565 13.5312 10.8325C13.5312 10.4988 13.665 10.0988 13.9338 9.89877L14.1338 9.69877C14.4713 9.43252 14.6037 9.03252 14.6037 8.63252V7.56627C14.6037 7.23252 14.805 6.96627 15.1412 6.89877C15.945 6.69877 17.6212 6.36627 20.035 6.36627C22.4475 6.36627 24.1237 6.69877 24.9287 6.89877C25.1975 6.96627 25.4662 7.23252 25.4662 7.56627V8.63252C25.4662 9.03252 25.6662 9.43252 25.935 9.69877C26.5625 10.1388 26.5225 10.3813 26.4712 10.8988C26.4037 11.565 26.3375 12.6988 26.3375 12.6988H26.36L26.0275 17.6463C25.8275 19.8588 24.0875 21.4 22.015 21.4H18.0025C15.8625 21.4 14.19 19.8575 13.99 17.6463L13.6038 12.63Z" fill="url(#paint42_radial_37_916)"/>
</g>
<path d="M13.5312 10.8325C13.5312 10.4988 13.665 10.0988 13.9338 9.89877L14.1338 9.69877C14.4713 9.43252 14.6037 9.03252 14.6037 8.63252V7.56627C14.6037 7.23252 14.805 6.96627 15.1412 6.89877C15.945 6.69877 17.6212 6.36627 20.035 6.36627C22.4475 6.36627 24.1237 6.69877 24.9287 6.89877C25.1975 6.96627 25.4662 7.23252 25.4662 7.56627V8.63252C25.4662 9.03252 25.6662 9.43252 25.935 9.69877C26.5625 10.1388 26.5225 10.3813 26.4712 10.8988C26.4037 11.565 26.3375 12.6988 26.3375 12.6988H26.36L26.0275 17.6463C25.8275 19.8588 24.0875 21.4 22.015 21.4H18.0025C15.8625 21.4 14.19 19.8575 13.99 17.6463C13.815 15.3763 13.7387 13.0988 13.5312 10.8325Z" fill="url(#paint43_linear_37_916)"/>
<path d="M13.5312 10.8325C13.5312 10.4988 13.665 10.0988 13.9338 9.89877L14.1338 9.69877C14.4713 9.43252 14.6037 9.03252 14.6037 8.63252V7.56627C14.6037 7.23252 14.805 6.96627 15.1412 6.89877C15.945 6.69877 17.6212 6.36627 20.035 6.36627C22.4475 6.36627 24.1237 6.69877 24.9287 6.89877C25.1975 6.96627 25.4662 7.23252 25.4662 7.56627V8.63252C25.4662 9.03252 25.6662 9.43252 25.935 9.69877C26.5625 10.1388 26.5225 10.3813 26.4712 10.8988C26.4037 11.565 26.3375 12.6988 26.3375 12.6988H26.36L26.0275 17.6463C25.8275 19.8588 24.0875 21.4 22.015 21.4H18.0025C15.8625 21.4 14.19 19.8575 13.99 17.6463C13.815 15.3763 13.7387 13.0988 13.5312 10.8325Z" fill="url(#paint44_linear_37_916)"/>
<path d="M13.5312 10.8325C13.5312 10.4988 13.665 10.0988 13.9338 9.89877L14.1338 9.69877C14.4713 9.43252 14.6037 9.03252 14.6037 8.63252V7.56627C14.6037 7.23252 14.805 6.96627 15.1412 6.89877C15.945 6.69877 17.6212 6.36627 20.035 6.36627C22.4475 6.36627 24.1237 6.69877 24.9287 6.89877C25.1975 6.96627 25.4662 7.23252 25.4662 7.56627V8.63252C25.4662 9.03252 25.6662 9.43252 25.935 9.69877C26.5625 10.1388 26.5225 10.3813 26.4712 10.8988C26.4037 11.565 26.3375 12.6988 26.3375 12.6988H26.36L26.0275 17.6463C25.8275 19.8588 24.0875 21.4 22.015 21.4H18.0025C15.8625 21.4 14.19 19.8575 13.99 17.6463C13.815 15.3763 13.7387 13.0988 13.5312 10.8325Z" fill="url(#paint45_radial_37_916)"/>
<g filter="url(#filter7_f_37_916)">
<path d="M24.9325 6.36627L21.0863 7.64877C20.7788 7.75298 20.521 7.96774 20.363 8.25136C20.205 8.53497 20.1581 8.86719 20.2313 9.18348C20.3045 9.49977 20.4927 9.77755 20.7593 9.96286C21.0258 10.1482 21.3518 10.2278 21.6738 10.1863L25.4988 9.67502L24.9325 6.36627Z" fill="url(#paint46_linear_37_916)"/>
</g>
<g filter="url(#filter8_i_37_916)">
<path d="M26.0013 5.3L26.5388 5.56625C27.4763 6.0325 28.0138 7.09875 27.8113 8.2325L27.0738 12.0325C27.0088 12.425 26.7488 12.6887 26.3588 12.6987H26.3363C26.3363 12.6987 26.4038 11.565 26.4713 10.8987C26.525 10.3575 26.4313 10.1925 25.9338 9.69875C25.6663 9.4325 25.465 9.0325 25.465 8.6325V7.56625C25.465 7.2325 25.1975 6.96625 24.9288 6.89875C24.1238 6.69875 22.4488 6.36625 20.035 6.36625C17.6213 6.36625 15.945 6.69875 15.14 6.89875C14.9849 6.92617 14.8451 7.00895 14.7464 7.13173C14.6478 7.2545 14.5971 7.4089 14.6038 7.56625V8.6325C14.6038 9.0325 14.47 9.4325 14.135 9.69875L13.9338 9.89875C13.665 10.0987 13.5313 10.4987 13.5313 10.8325C13.5988 11.565 13.665 12.6325 13.665 12.6325L13.6038 12.63C13.4223 12.6218 13.2492 12.5511 13.1139 12.4299C12.9786 12.3087 12.8893 12.1445 12.8613 11.965L12.1238 8.165C11.99 7.09875 12.5263 6.0325 13.4638 5.565L14.0013 5.3C14.3363 5.1 14.6713 4.8325 15.0063 4.56625L16.2125 3.3C16.95 2.6325 18.0238 2.43249 18.9625 2.89999C19.6406 3.09981 20.3619 3.09981 21.04 2.89999C22.0463 2.56624 23.1863 2.83249 23.99 3.56625L24.9963 4.56625C25.2638 4.9 25.5988 5.1 26.0013 5.3Z" fill="#4F3332"/>
<path d="M26.0013 5.3L26.5388 5.56625C27.4763 6.0325 28.0138 7.09875 27.8113 8.2325L27.0738 12.0325C27.0088 12.425 26.7488 12.6887 26.3588 12.6987H26.3363C26.3363 12.6987 26.4038 11.565 26.4713 10.8987C26.525 10.3575 26.4313 10.1925 25.9338 9.69875C25.6663 9.4325 25.465 9.0325 25.465 8.6325V7.56625C25.465 7.2325 25.1975 6.96625 24.9288 6.89875C24.1238 6.69875 22.4488 6.36625 20.035 6.36625C17.6213 6.36625 15.945 6.69875 15.14 6.89875C14.9849 6.92617 14.8451 7.00895 14.7464 7.13173C14.6478 7.2545 14.5971 7.4089 14.6038 7.56625V8.6325C14.6038 9.0325 14.47 9.4325 14.135 9.69875L13.9338 9.89875C13.665 10.0987 13.5313 10.4987 13.5313 10.8325C13.5988 11.565 13.665 12.6325 13.665 12.6325L13.6038 12.63C13.4223 12.6218 13.2492 12.5511 13.1139 12.4299C12.9786 12.3087 12.8893 12.1445 12.8613 11.965L12.1238 8.165C11.99 7.09875 12.5263 6.0325 13.4638 5.565L14.0013 5.3C14.3363 5.1 14.6713 4.8325 15.0063 4.56625L16.2125 3.3C16.95 2.6325 18.0238 2.43249 18.9625 2.89999C19.6406 3.09981 20.3619 3.09981 21.04 2.89999C22.0463 2.56624 23.1863 2.83249 23.99 3.56625L24.9963 4.56625C25.2638 4.9 25.5988 5.1 26.0013 5.3Z" fill="url(#paint47_radial_37_916)"/>
<path d="M26.0013 5.3L26.5388 5.56625C27.4763 6.0325 28.0138 7.09875 27.8113 8.2325L27.0738 12.0325C27.0088 12.425 26.7488 12.6887 26.3588 12.6987H26.3363C26.3363 12.6987 26.4038 11.565 26.4713 10.8987C26.525 10.3575 26.4313 10.1925 25.9338 9.69875C25.6663 9.4325 25.465 9.0325 25.465 8.6325V7.56625C25.465 7.2325 25.1975 6.96625 24.9288 6.89875C24.1238 6.69875 22.4488 6.36625 20.035 6.36625C17.6213 6.36625 15.945 6.69875 15.14 6.89875C14.9849 6.92617 14.8451 7.00895 14.7464 7.13173C14.6478 7.2545 14.5971 7.4089 14.6038 7.56625V8.6325C14.6038 9.0325 14.47 9.4325 14.135 9.69875L13.9338 9.89875C13.665 10.0987 13.5313 10.4987 13.5313 10.8325C13.5988 11.565 13.665 12.6325 13.665 12.6325L13.6038 12.63C13.4223 12.6218 13.2492 12.5511 13.1139 12.4299C12.9786 12.3087 12.8893 12.1445 12.8613 11.965L12.1238 8.165C11.99 7.09875 12.5263 6.0325 13.4638 5.565L14.0013 5.3C14.3363 5.1 14.6713 4.8325 15.0063 4.56625L16.2125 3.3C16.95 2.6325 18.0238 2.43249 18.9625 2.89999C19.6406 3.09981 20.3619 3.09981 21.04 2.89999C22.0463 2.56624 23.1863 2.83249 23.99 3.56625L24.9963 4.56625C25.2638 4.9 25.5988 5.1 26.0013 5.3Z" fill="url(#paint48_radial_37_916)"/>
<path d="M26.0013 5.3L26.5388 5.56625C27.4763 6.0325 28.0138 7.09875 27.8113 8.2325L27.0738 12.0325C27.0088 12.425 26.7488 12.6887 26.3588 12.6987H26.3363C26.3363 12.6987 26.4038 11.565 26.4713 10.8987C26.525 10.3575 26.4313 10.1925 25.9338 9.69875C25.6663 9.4325 25.465 9.0325 25.465 8.6325V7.56625C25.465 7.2325 25.1975 6.96625 24.9288 6.89875C24.1238 6.69875 22.4488 6.36625 20.035 6.36625C17.6213 6.36625 15.945 6.69875 15.14 6.89875C14.9849 6.92617 14.8451 7.00895 14.7464 7.13173C14.6478 7.2545 14.5971 7.4089 14.6038 7.56625V8.6325C14.6038 9.0325 14.47 9.4325 14.135 9.69875L13.9338 9.89875C13.665 10.0987 13.5313 10.4987 13.5313 10.8325C13.5988 11.565 13.665 12.6325 13.665 12.6325L13.6038 12.63C13.4223 12.6218 13.2492 12.5511 13.1139 12.4299C12.9786 12.3087 12.8893 12.1445 12.8613 11.965L12.1238 8.165C11.99 7.09875 12.5263 6.0325 13.4638 5.565L14.0013 5.3C14.3363 5.1 14.6713 4.8325 15.0063 4.56625L16.2125 3.3C16.95 2.6325 18.0238 2.43249 18.9625 2.89999C19.6406 3.09981 20.3619 3.09981 21.04 2.89999C22.0463 2.56624 23.1863 2.83249 23.99 3.56625L24.9963 4.56625C25.2638 4.9 25.5988 5.1 26.0013 5.3Z" fill="url(#paint49_radial_37_916)"/>
<path d="M26.0013 5.3L26.5388 5.56625C27.4763 6.0325 28.0138 7.09875 27.8113 8.2325L27.0738 12.0325C27.0088 12.425 26.7488 12.6887 26.3588 12.6987H26.3363C26.3363 12.6987 26.4038 11.565 26.4713 10.8987C26.525 10.3575 26.4313 10.1925 25.9338 9.69875C25.6663 9.4325 25.465 9.0325 25.465 8.6325V7.56625C25.465 7.2325 25.1975 6.96625 24.9288 6.89875C24.1238 6.69875 22.4488 6.36625 20.035 6.36625C17.6213 6.36625 15.945 6.69875 15.14 6.89875C14.9849 6.92617 14.8451 7.00895 14.7464 7.13173C14.6478 7.2545 14.5971 7.4089 14.6038 7.56625V8.6325C14.6038 9.0325 14.47 9.4325 14.135 9.69875L13.9338 9.89875C13.665 10.0987 13.5313 10.4987 13.5313 10.8325C13.5988 11.565 13.665 12.6325 13.665 12.6325L13.6038 12.63C13.4223 12.6218 13.2492 12.5511 13.1139 12.4299C12.9786 12.3087 12.8893 12.1445 12.8613 11.965L12.1238 8.165C11.99 7.09875 12.5263 6.0325 13.4638 5.565L14.0013 5.3C14.3363 5.1 14.6713 4.8325 15.0063 4.56625L16.2125 3.3C16.95 2.6325 18.0238 2.43249 18.9625 2.89999C19.6406 3.09981 20.3619 3.09981 21.04 2.89999C22.0463 2.56624 23.1863 2.83249 23.99 3.56625L24.9963 4.56625C25.2638 4.9 25.5988 5.1 26.0013 5.3Z" fill="url(#paint50_radial_37_916)"/>
</g>
<g filter="url(#filter9_f_37_916)">
<path d="M19.6337 13.2438L18.6087 15.3688C18.4825 15.805 18.7875 16.2413 19.2187 16.2413H20.14C20.5725 16.2413 20.8775 15.7988 20.75 15.3675L20.1275 13.2425C19.9937 12.7725 19.7737 12.7725 19.6337 13.2425" fill="#87565C"/>
</g>
<g filter="url(#filter10_f_37_916)">
<path d="M19.5 13.04L18.8375 15.165C18.8057 15.2663 18.7983 15.3737 18.816 15.4784C18.8338 15.5831 18.8761 15.6821 18.9396 15.7673C19.003 15.8525 19.0858 15.9214 19.181 15.9683C19.2763 16.0153 19.3813 16.039 19.4875 16.0375H20.47C20.5761 16.0382 20.6808 16.014 20.7758 15.9667C20.8707 15.9195 20.9532 15.8505 21.0165 15.7654C21.0798 15.6803 21.1222 15.5814 21.1402 15.4769C21.1582 15.3724 21.1512 15.2651 21.12 15.1637L20.4563 13.0387C20.3138 12.5687 19.65 12.5687 19.5013 13.0387" fill="#B7877D"/>
<path d="M19.5 13.04L18.8375 15.165C18.8057 15.2663 18.7983 15.3737 18.816 15.4784C18.8338 15.5831 18.8761 15.6821 18.9396 15.7673C19.003 15.8525 19.0858 15.9214 19.181 15.9683C19.2763 16.0153 19.3813 16.039 19.4875 16.0375H20.47C20.5761 16.0382 20.6808 16.014 20.7758 15.9667C20.8707 15.9195 20.9532 15.8505 21.0165 15.7654C21.0798 15.6803 21.1222 15.5814 21.1402 15.4769C21.1582 15.3724 21.1512 15.2651 21.12 15.1637L20.4563 13.0387C20.3138 12.5687 19.65 12.5687 19.5013 13.0387" fill="url(#paint51_linear_37_916)"/>
<path d="M19.5 13.04L18.8375 15.165C18.8057 15.2663 18.7983 15.3737 18.816 15.4784C18.8338 15.5831 18.8761 15.6821 18.9396 15.7673C19.003 15.8525 19.0858 15.9214 19.181 15.9683C19.2763 16.0153 19.3813 16.039 19.4875 16.0375H20.47C20.5761 16.0382 20.6808 16.014 20.7758 15.9667C20.8707 15.9195 20.9532 15.8505 21.0165 15.7654C21.0798 15.6803 21.1222 15.5814 21.1402 15.4769C21.1582 15.3724 21.1512 15.2651 21.12 15.1637L20.4563 13.0387C20.3138 12.5687 19.65 12.5687 19.5013 13.0387" fill="url(#paint52_linear_37_916)"/>
<path d="M19.5 13.04L18.8375 15.165C18.8057 15.2663 18.7983 15.3737 18.816 15.4784C18.8338 15.5831 18.8761 15.6821 18.9396 15.7673C19.003 15.8525 19.0858 15.9214 19.181 15.9683C19.2763 16.0153 19.3813 16.039 19.4875 16.0375H20.47C20.5761 16.0382 20.6808 16.014 20.7758 15.9667C20.8707 15.9195 20.9532 15.8505 21.0165 15.7654C21.0798 15.6803 21.1222 15.5814 21.1402 15.4769C21.1582 15.3724 21.1512 15.2651 21.12 15.1637L20.4563 13.0387C20.3138 12.5687 19.65 12.5687 19.5013 13.0387" fill="url(#paint53_linear_37_916)"/>
<path d="M19.5 13.04L18.8375 15.165C18.8057 15.2663 18.7983 15.3737 18.816 15.4784C18.8338 15.5831 18.8761 15.6821 18.9396 15.7673C19.003 15.8525 19.0858 15.9214 19.181 15.9683C19.2763 16.0153 19.3813 16.039 19.4875 16.0375H20.47C20.5761 16.0382 20.6808 16.014 20.7758 15.9667C20.8707 15.9195 20.9532 15.8505 21.0165 15.7654C21.0798 15.6803 21.1222 15.5814 21.1402 15.4769C21.1582 15.3724 21.1512 15.2651 21.12 15.1637L20.4563 13.0387C20.3138 12.5687 19.65 12.5687 19.5013 13.0387" fill="url(#paint54_radial_37_916)"/>
</g>
<path d="M19.5 13.04L18.8375 15.165C18.8057 15.2663 18.7983 15.3737 18.816 15.4784C18.8338 15.5831 18.8761 15.6821 18.9396 15.7673C19.003 15.8525 19.0858 15.9214 19.181 15.9683C19.2763 16.0153 19.3813 16.039 19.4875 16.0375H20.47C20.5761 16.0382 20.6808 16.014 20.7758 15.9667C20.8707 15.9195 20.9532 15.8505 21.0165 15.7654C21.0798 15.6803 21.1222 15.5814 21.1402 15.4769C21.1582 15.3724 21.1512 15.2651 21.12 15.1637L20.4563 13.0387C20.3138 12.5687 19.65 12.5687 19.5013 13.0387" fill="url(#paint55_linear_37_916)"/>
<path d="M18.275 16.8425C18.2262 16.8165 18.1701 16.8075 18.1156 16.8168C18.0611 16.826 18.0112 16.8531 17.9738 16.8938C17.9356 16.9332 17.9122 16.9846 17.9077 17.0393C17.9031 17.094 17.9176 17.1486 17.9488 17.1938C18.3775 17.8438 19.1263 18.2788 19.9788 18.2788C20.8313 18.2788 21.5788 17.845 22.0088 17.1938C22.0405 17.1483 22.0554 17.0932 22.0509 17.038C22.0463 16.9827 22.0226 16.9308 21.9838 16.8913C21.946 16.8505 21.8958 16.8235 21.8411 16.8144C21.7863 16.8054 21.7301 16.8148 21.6813 16.8413C21.1546 17.1114 20.5706 17.2503 19.9788 17.2463C19.3538 17.2463 18.7675 17.0988 18.2763 16.8425H18.275Z" fill="#88024E" stroke="url(#paint56_linear_37_916)" stroke-width="0.05"/>
<g filter="url(#filter11_i_37_916)">
<path d="M24.6275 9.99623L24.6237 9.99373L24.6175 9.98873L24.6025 9.97623C24.5414 9.92739 24.4771 9.88271 24.41 9.84248C24.285 9.76373 24.1087 9.66748 23.885 9.57998C23.2923 9.34648 22.6475 9.27738 22.0187 9.37998C21.9322 9.39368 21.8491 9.42431 21.7744 9.47011C21.6996 9.51591 21.6346 9.57599 21.5831 9.64691C21.5315 9.71783 21.4945 9.7982 21.474 9.88345C21.4535 9.96869 21.45 10.0571 21.4637 10.1437C21.4775 10.2303 21.5081 10.3134 21.5539 10.3881C21.5997 10.4629 21.6598 10.5279 21.7307 10.5794C21.8016 10.6309 21.882 10.668 21.9672 10.6885C22.0525 10.7089 22.1409 10.7124 22.2275 10.6987C22.725 10.62 23.1225 10.7112 23.3937 10.82C23.5301 10.8734 23.6597 10.9426 23.78 11.0262C23.9174 11.13 24.0897 11.1767 24.2607 11.1565C24.4318 11.1363 24.5884 11.0507 24.6978 10.9177C24.8072 10.7847 24.861 10.6146 24.8479 10.4428C24.8348 10.2711 24.7558 10.1111 24.6275 9.99623Z" fill="#4C3230"/>
<path d="M24.6275 9.99623L24.6237 9.99373L24.6175 9.98873L24.6025 9.97623C24.5414 9.92739 24.4771 9.88271 24.41 9.84248C24.285 9.76373 24.1087 9.66748 23.885 9.57998C23.2923 9.34648 22.6475 9.27738 22.0187 9.37998C21.9322 9.39368 21.8491 9.42431 21.7744 9.47011C21.6996 9.51591 21.6346 9.57599 21.5831 9.64691C21.5315 9.71783 21.4945 9.7982 21.474 9.88345C21.4535 9.96869 21.45 10.0571 21.4637 10.1437C21.4775 10.2303 21.5081 10.3134 21.5539 10.3881C21.5997 10.4629 21.6598 10.5279 21.7307 10.5794C21.8016 10.6309 21.882 10.668 21.9672 10.6885C22.0525 10.7089 22.1409 10.7124 22.2275 10.6987C22.725 10.62 23.1225 10.7112 23.3937 10.82C23.5301 10.8734 23.6597 10.9426 23.78 11.0262C23.9174 11.13 24.0897 11.1767 24.2607 11.1565C24.4318 11.1363 24.5884 11.0507 24.6978 10.9177C24.8072 10.7847 24.861 10.6146 24.8479 10.4428C24.8348 10.2711 24.7558 10.1111 24.6275 9.99623Z" fill="url(#paint57_radial_37_916)"/>
</g>
<g filter="url(#filter12_i_37_916)">
<path d="M15.2625 9.99626L15.265 9.99376L15.27 9.98876L15.285 9.97626C15.3475 9.92866 15.4121 9.88403 15.4788 9.84251C15.6038 9.76376 15.78 9.66751 16.0038 9.58001C16.5961 9.34675 17.2404 9.27765 17.8688 9.38001C17.9558 9.39316 18.0393 9.42338 18.1146 9.46894C18.1899 9.5145 18.2555 9.57449 18.3075 9.64548C18.3595 9.71646 18.397 9.79703 18.4177 9.88255C18.4385 9.96807 18.4421 10.0568 18.4285 10.1438C18.4148 10.2307 18.384 10.3141 18.338 10.3891C18.292 10.4641 18.2316 10.5293 18.1603 10.5809C18.089 10.6324 18.0082 10.6694 17.9226 10.6896C17.8369 10.7099 17.7481 10.713 17.6613 10.6988C17.2683 10.6333 16.8649 10.6752 16.4938 10.82C16.3578 10.8735 16.2286 10.9428 16.1088 11.0263C15.9713 11.1301 15.7991 11.1768 15.6281 11.1566C15.457 11.1363 15.3004 11.0508 15.191 10.9178C15.0815 10.7848 15.0277 10.6146 15.0408 10.4429C15.0539 10.2712 15.1329 10.1111 15.2613 9.99626" fill="#4C3230"/>
<path d="M15.2625 9.99626L15.265 9.99376L15.27 9.98876L15.285 9.97626C15.3475 9.92866 15.4121 9.88403 15.4788 9.84251C15.6038 9.76376 15.78 9.66751 16.0038 9.58001C16.5961 9.34675 17.2404 9.27765 17.8688 9.38001C17.9558 9.39316 18.0393 9.42338 18.1146 9.46894C18.1899 9.5145 18.2555 9.57449 18.3075 9.64548C18.3595 9.71646 18.397 9.79703 18.4177 9.88255C18.4385 9.96807 18.4421 10.0568 18.4285 10.1438C18.4148 10.2307 18.384 10.3141 18.338 10.3891C18.292 10.4641 18.2316 10.5293 18.1603 10.5809C18.089 10.6324 18.0082 10.6694 17.9226 10.6896C17.8369 10.7099 17.7481 10.713 17.6613 10.6988C17.2683 10.6333 16.8649 10.6752 16.4938 10.82C16.3578 10.8735 16.2286 10.9428 16.1088 11.0263C15.9713 11.1301 15.7991 11.1768 15.6281 11.1566C15.457 11.1363 15.3004 11.0508 15.191 10.9178C15.0815 10.7848 15.0277 10.6146 15.0408 10.4429C15.0539 10.2712 15.1329 10.1111 15.2613 9.99626" fill="url(#paint58_radial_37_916)"/>
</g>
<path d="M22.9625 11.6088C23.7787 11.6088 24.4687 12.1713 24.6562 12.9313C24.6688 12.9819 24.6697 13.0348 24.6587 13.0859C24.6477 13.1369 24.6251 13.1848 24.5928 13.2258C24.5605 13.2668 24.5192 13.2999 24.4721 13.3225C24.4251 13.3451 24.3735 13.3567 24.3212 13.3563H21.5337C21.4916 13.3564 21.4499 13.3472 21.4117 13.3295C21.3734 13.3117 21.3396 13.2857 21.3125 13.2534C21.2854 13.2211 21.2658 13.1832 21.255 13.1424C21.2442 13.1016 21.2425 13.059 21.25 13.0175C21.3288 12.621 21.5425 12.2641 21.8546 12.0073C22.1668 11.7505 22.5583 11.6097 22.9625 11.6088Z" fill="white"/>
<path d="M22.705 11.9475C22.8764 11.9476 23.0455 11.9872 23.1992 12.0633C23.3528 12.1394 23.4868 12.2498 23.5908 12.3861C23.6948 12.5224 23.766 12.6808 23.7988 12.8491C23.8316 13.0173 23.8252 13.1909 23.78 13.3563H21.625C21.5808 13.1905 21.5752 13.0169 21.6087 12.8487C21.6423 12.6805 21.714 12.5222 21.8183 12.3861C21.9227 12.25 22.0569 12.1396 22.2106 12.0636C22.3644 11.9876 22.5335 11.9478 22.705 11.9475Z" fill="url(#paint59_radial_37_916)"/>
<path d="M22.0663 13.0625C22.0663 12.7087 22.35 12.425 22.7038 12.425C22.8137 12.4244 22.9219 12.4522 23.0179 12.5057C23.1139 12.5593 23.1944 12.6367 23.2516 12.7305C23.3089 12.8244 23.3409 12.9314 23.3445 13.0413C23.3482 13.1511 23.3234 13.2601 23.2725 13.3575H22.1413C22.0902 13.2677 22.0643 13.1658 22.0663 13.0625Z" fill="black"/>
<g filter="url(#filter13_f_37_916)">
<path d="M22.6225 12.1838C22.7025 12.29 22.535 12.42 22.3475 12.5613C22.1588 12.7013 22.0175 12.8013 21.9388 12.695C21.8588 12.5888 21.9475 12.3875 22.1363 12.2463C22.325 12.105 22.5425 12.0775 22.6225 12.1838Z" fill="#C7A7A3"/>
<path d="M22.6225 12.1838C22.7025 12.29 22.535 12.42 22.3475 12.5613C22.1588 12.7013 22.0175 12.8013 21.9388 12.695C21.8588 12.5888 21.9475 12.3875 22.1363 12.2463C22.325 12.105 22.5425 12.0775 22.6225 12.1838Z" fill="url(#paint60_radial_37_916)"/>
</g>
<g filter="url(#filter14_f_37_916)">
<path d="M23.6975 12.9163C23.6645 12.6978 23.5635 12.4953 23.4087 12.3375L23.0837 12.6938L23.23 12.9788L23.6975 12.9163Z" fill="url(#paint61_linear_37_916)"/>
</g>
<path d="M16.9875 11.6075C16.1713 11.6075 15.4825 12.17 15.295 12.9312C15.2822 12.9818 15.2812 13.0347 15.292 13.0858C15.3028 13.1368 15.3252 13.1847 15.3574 13.2258C15.3897 13.2668 15.4309 13.2999 15.4779 13.3225C15.525 13.3452 15.5766 13.3567 15.6288 13.3562H18.4163C18.4585 13.3565 18.5004 13.3475 18.5388 13.3298C18.5771 13.3121 18.6112 13.2862 18.6384 13.2538C18.6656 13.2215 18.6853 13.1835 18.6962 13.1427C18.7071 13.1018 18.7088 13.0591 18.7013 13.0175C18.6227 12.6206 18.4089 12.2632 18.0965 12.0061C17.784 11.749 17.3921 11.6082 16.9875 11.6075Z" fill="white"/>
<path d="M17.2463 11.9475C17.0748 11.9476 16.9057 11.9872 16.7521 12.0633C16.5985 12.1394 16.4645 12.2498 16.3605 12.3861C16.2565 12.5224 16.1853 12.6808 16.1525 12.8491C16.1197 13.0173 16.1261 13.1909 16.1713 13.3563H18.3263C18.3512 13.2603 18.3646 13.1617 18.3663 13.0625C18.3636 12.7667 18.2446 12.4839 18.035 12.2752C17.8254 12.0665 17.542 11.9488 17.2463 11.9475Z" fill="url(#paint62_radial_37_916)"/>
<path d="M17.885 13.0625C17.885 12.9787 17.8685 12.8957 17.8364 12.8182C17.8042 12.7408 17.7572 12.6705 17.6978 12.6113C17.6385 12.5521 17.5681 12.5051 17.4906 12.4732C17.4131 12.4412 17.3301 12.4248 17.2462 12.425C17.1364 12.4246 17.0284 12.4525 16.9326 12.5062C16.8367 12.5598 16.7564 12.6373 16.6993 12.7311C16.6422 12.8249 16.6103 12.9318 16.6067 13.0416C16.6031 13.1513 16.6279 13.2601 16.6787 13.3575H17.8087C17.8577 13.2668 17.8847 13.1655 17.885 13.0625Z" fill="black"/>
<g filter="url(#filter15_f_37_916)">
<path d="M18.265 12.9312C18.265 12.5712 17.9713 12.3312 17.8925 12.2587L17.5325 12.6062L17.7538 13.0587L18.265 12.9312Z" fill="url(#paint63_linear_37_916)"/>
</g>
<g filter="url(#filter16_f_37_916)">
<path d="M17.0235 12.6415C17.2608 12.5157 17.4015 12.3164 17.3379 12.1962C17.2742 12.076 17.0302 12.0805 16.7929 12.2063C16.5556 12.332 16.4148 12.5313 16.4785 12.6515C16.5422 12.7717 16.7862 12.7672 17.0235 12.6415Z" fill="#C7A7A3" fill-opacity="0.9"/>
<path d="M17.0235 12.6415C17.2608 12.5157 17.4015 12.3164 17.3379 12.1962C17.2742 12.076 17.0302 12.0805 16.7929 12.2063C16.5556 12.332 16.4148 12.5313 16.4785 12.6515C16.5422 12.7717 16.7862 12.7672 17.0235 12.6415Z" fill="url(#paint64_radial_37_916)"/>
</g>
<g filter="url(#filter17_f_37_916)">
<path d="M22.0538 9.81625C22.5913 9.72125 23.64 9.74875 24.3663 10.3125" stroke="url(#paint65_linear_37_916)" stroke-width="0.125" stroke-linecap="round"/>
</g>
<g filter="url(#filter18_f_37_916)">
<path d="M15.53 10.4638C15.9387 10.1025 16.8325 9.72251 17.9387 9.89876" stroke="url(#paint66_linear_37_916)" stroke-width="0.125" stroke-linecap="round"/>
</g>
<g filter="url(#filter19_f_37_916)">
<path d="M14.3125 7.38251V8.50501C14.3025 8.69001 14.225 9.10501 13.99 9.28126" stroke="url(#paint67_linear_37_916)" stroke-width="0.125" stroke-linecap="round"/>
</g>
<defs>
<filter id="filter0_f_37_916" x="12.0688" y="20.4963" width="7.43369" height="12.946" filterUnits="userSpaceOnUse" color-interpolation-filters="sRGB">
<feFlood flood-opacity="0" result="BackgroundImageFix"/>
<feBlend mode="normal" in="SourceGraphic" in2="BackgroundImageFix" result="shape"/>
<feGaussianBlur stdDeviation="0.25" result="effect1_foregroundBlur_37_916"/>
</filter>
<filter id="filter1_f_37_916" x="20.6862" y="20.4963" width="7.43369" height="12.946" filterUnits="userSpaceOnUse" color-interpolation-filters="sRGB">
<feFlood flood-opacity="0" result="BackgroundImageFix"/>
<feBlend mode="normal" in="SourceGraphic" in2="BackgroundImageFix" result="shape"/>
<feGaussianBlur stdDeviation="0.25" result="effect1_foregroundBlur_37_916"/>
</filter>
<filter id="filter2_i_37_916" x="11.9575" y="11.31" width="4.27249" height="4.17249" filterUnits="userSpaceOnUse" color-interpolation-filters="sRGB">
<feFlood flood-opacity="0" result="BackgroundImageFix"/>
<feBlend mode="normal" in="SourceGraphic" in2="BackgroundImageFix" result="shape"/>
<feColorMatrix in="SourceAlpha" type="matrix" values="0 0 0 0 0 0 0 0 0 0 0 0 0 0 0 0 0 0 127 0" result="hardAlpha"/>
<feOffset dx="0.1"/>
<feGaussianBlur stdDeviation="0.075"/>
<feComposite in2="hardAlpha" operator="arithmetic" k2="-1" k3="1"/>
<feColorMatrix type="matrix" values="0 0 0 0 0.619608 0 0 0 0 0.470588 0 0 0 0 0.407843 0 0 0 1 0"/>
<feBlend mode="normal" in2="shape" result="effect1_innerShadow_37_916"/>
</filter>
<filter id="filter3_f_37_916" x="12.55" y="11.9025" width="2.98749" height="2.98749" filterUnits="userSpaceOnUse" color-interpolation-filters="sRGB">
<feFlood flood-opacity="0" result="BackgroundImageFix"/>
<feBlend mode="normal" in="SourceGraphic" in2="BackgroundImageFix" result="shape"/>
<feGaussianBlur stdDeviation="0.125" result="effect1_foregroundBlur_37_916"/>
</filter>
<filter id="filter4_i_37_916" x="23.8488" y="11.185" width="4.29749" height="4.29749" filterUnits="userSpaceOnUse" color-interpolation-filters="sRGB">
<feFlood flood-opacity="0" result="BackgroundImageFix"/>
<feBlend mode="normal" in="SourceGraphic" in2="BackgroundImageFix" result="shape"/>
<feColorMatrix in="SourceAlpha" type="matrix" values="0 0 0 0 0 0 0 0 0 0 0 0 0 0 0 0 0 0 127 0" result="hardAlpha"/>
<feOffset dx="0.125" dy="-0.125"/>
<feGaussianBlur stdDeviation="0.125"/>
<feComposite in2="hardAlpha" operator="arithmetic" k2="-1" k3="1"/>
<feColorMatrix type="matrix" values="0 0 0 0 0.584314 0 0 0 0 0.368627 0 0 0 0 0.470588 0 0 0 1 0"/>
<feBlend mode="normal" in2="shape" result="effect1_innerShadow_37_916"/>
</filter>
<filter id="filter5_f_37_916" x="24.4413" y="11.9025" width="2.98749" height="2.98749" filterUnits="userSpaceOnUse" color-interpolation-filters="sRGB">
<feFlood flood-opacity="0" result="BackgroundImageFix"/>
<feBlend mode="normal" in="SourceGraphic" in2="BackgroundImageFix" result="shape"/>
<feGaussianBlur stdDeviation="0.125" result="effect1_foregroundBlur_37_916"/>
</filter>
<filter id="filter6_i_37_916" x="13.5312" y="6.36627" width="12.9662" height="15.1088" filterUnits="userSpaceOnUse" color-interpolation-filters="sRGB">
<feFlood flood-opacity="0" result="BackgroundImageFix"/>
<feBlend mode="normal" in="SourceGraphic" in2="BackgroundImageFix" result="shape"/>
<feColorMatrix in="SourceAlpha" type="matrix" values="0 0 0 0 0 0 0 0 0 0 0 0 0 0 0 0 0 0 127 0" result="hardAlpha"/>
<feOffset dy="0.075"/>
<feGaussianBlur stdDeviation="0.0625"/>
<feComposite in2="hardAlpha" operator="arithmetic" k2="-1" k3="1"/>
<feColorMatrix type="matrix" values="0 0 0 0 0.305882 0 0 0 0 0.2 0 0 0 0 0.172549 0 0 0 1 0"/>
<feBlend mode="normal" in2="shape" result="effect1_innerShadow_37_916"/>
</filter>
<filter id="filter7_f_37_916" x="19.1976" y="5.36627" width="7.30118" height="5.83075" filterUnits="userSpaceOnUse" color-interpolation-filters="sRGB">
<feFlood flood-opacity="0" result="BackgroundImageFix"/>
<feBlend mode="normal" in="SourceGraphic" in2="BackgroundImageFix" result="shape"/>
<feGaussianBlur stdDeviation="0.5" result="effect1_foregroundBlur_37_916"/>
</filter>
<filter id="filter8_i_37_916" x="12.1035" y="2.39508" width="15.7503" height="10.3036" filterUnits="userSpaceOnUse" color-interpolation-filters="sRGB">
<feFlood flood-opacity="0" result="BackgroundImageFix"/>
<feBlend mode="normal" in="SourceGraphic" in2="BackgroundImageFix" result="shape"/>
<feColorMatrix in="SourceAlpha" type="matrix" values="0 0 0 0 0 0 0 0 0 0 0 0 0 0 0 0 0 0 127 0" result="hardAlpha"/>
<feOffset dy="-0.25"/>
<feGaussianBlur stdDeviation="0.1875"/>
<feComposite in2="hardAlpha" operator="arithmetic" k2="-1" k3="1"/>
<feColorMatrix type="matrix" values="0 0 0 0 0.207843 0 0 0 0 0.109804 0 0 0 0 0.109804 0 0 0 1 0"/>
<feBlend mode="normal" in2="shape" result="effect1_innerShadow_37_916"/>
</filter>
<filter id="filter9_f_37_916" x="18.205" y="12.515" width="2.94925" height="4.10126" filterUnits="userSpaceOnUse" color-interpolation-filters="sRGB">
<feFlood flood-opacity="0" result="BackgroundImageFix"/>
<feBlend mode="normal" in="SourceGraphic" in2="BackgroundImageFix" result="shape"/>
<feGaussianBlur stdDeviation="0.1875" result="effect1_foregroundBlur_37_916"/>
</filter>
<filter id="filter10_f_37_916" x="18.6816" y="12.5612" width="2.59332" height="3.60132" filterUnits="userSpaceOnUse" color-interpolation-filters="sRGB">
<feFlood flood-opacity="0" result="BackgroundImageFix"/>
<feBlend mode="normal" in="SourceGraphic" in2="BackgroundImageFix" result="shape"/>
<feGaussianBlur stdDeviation="0.0625" result="effect1_foregroundBlur_37_916"/>
</filter>
<filter id="filter11_i_37_916" x="21.4555" y="9.1338" width="3.51932" height="2.02733" filterUnits="userSpaceOnUse" color-interpolation-filters="sRGB">
<feFlood flood-opacity="0" result="BackgroundImageFix"/>
<feBlend mode="normal" in="SourceGraphic" in2="BackgroundImageFix" result="shape"/>
<feColorMatrix in="SourceAlpha" type="matrix" values="0 0 0 0 0 0 0 0 0 0 0 0 0 0 0 0 0 0 127 0" result="hardAlpha"/>
<feOffset dx="0.125" dy="-0.2"/>
<feGaussianBlur stdDeviation="0.15"/>
<feComposite in2="hardAlpha" operator="arithmetic" k2="-1" k3="1"/>
<feColorMatrix type="matrix" values="0 0 0 0 0.254902 0 0 0 0 0.156863 0 0 0 0 0.152941 0 0 0 1 0"/>
<feBlend mode="normal" in2="shape" result="effect1_innerShadow_37_916"/>
</filter>
<filter id="filter12_i_37_916" x="15.0389" y="9.13398" width="3.52267" height="2.02721" filterUnits="userSpaceOnUse" color-interpolation-filters="sRGB">
<feFlood flood-opacity="0" result="BackgroundImageFix"/>
<feBlend mode="normal" in="SourceGraphic" in2="BackgroundImageFix" result="shape"/>
<feColorMatrix in="SourceAlpha" type="matrix" values="0 0 0 0 0 0 0 0 0 0 0 0 0 0 0 0 0 0 127 0" result="hardAlpha"/>
<feOffset dx="0.125" dy="-0.2"/>
<feGaussianBlur stdDeviation="0.15"/>
<feComposite in2="hardAlpha" operator="arithmetic" k2="-1" k3="1"/>
<feColorMatrix type="matrix" values="0 0 0 0 0.254902 0 0 0 0 0.156863 0 0 0 0 0.152941 0 0 0 1 0"/>
<feBlend mode="normal" in2="shape" result="effect1_innerShadow_37_916"/>
</filter>
<filter id="filter13_f_37_916" x="21.8593" y="12.0691" width="0.833673" height="0.7203" filterUnits="userSpaceOnUse" color-interpolation-filters="sRGB">
<feFlood flood-opacity="0" result="BackgroundImageFix"/>
<feBlend mode="normal" in="SourceGraphic" in2="BackgroundImageFix" result="shape"/>
<feGaussianBlur stdDeviation="0.025" result="effect1_foregroundBlur_37_916"/>
</filter>
<filter id="filter14_f_37_916" x="22.9837" y="12.2375" width="0.813739" height="0.841235" filterUnits="userSpaceOnUse" color-interpolation-filters="sRGB">
<feFlood flood-opacity="0" result="BackgroundImageFix"/>
<feBlend mode="normal" in="SourceGraphic" in2="BackgroundImageFix" result="shape"/>
<feGaussianBlur stdDeviation="0.05" result="effect1_foregroundBlur_37_916"/>
</filter>
<filter id="filter15_f_37_916" x="17.4325" y="12.1587" width="0.932513" height="0.999988" filterUnits="userSpaceOnUse" color-interpolation-filters="sRGB">
<feFlood flood-opacity="0" result="BackgroundImageFix"/>
<feBlend mode="normal" in="SourceGraphic" in2="BackgroundImageFix" result="shape"/>
<feGaussianBlur stdDeviation="0.05" result="effect1_foregroundBlur_37_916"/>
</filter>
<filter id="filter16_f_37_916" x="16.4132" y="12.0589" width="0.989954" height="0.729822" filterUnits="userSpaceOnUse" color-interpolation-filters="sRGB">
<feFlood flood-opacity="0" result="BackgroundImageFix"/>
<feBlend mode="normal" in="SourceGraphic" in2="BackgroundImageFix" result="shape"/>
<feGaussianBlur stdDeviation="0.025" result="effect1_foregroundBlur_37_916"/>
</filter>
<filter id="filter17_f_37_916" x="21.7413" y="9.46173" width="2.9375" height="1.16327" filterUnits="userSpaceOnUse" color-interpolation-filters="sRGB">
<feFlood flood-opacity="0" result="BackgroundImageFix"/>
<feBlend mode="normal" in="SourceGraphic" in2="BackgroundImageFix" result="shape"/>
<feGaussianBlur stdDeviation="0.125" result="effect1_foregroundBlur_37_916"/>
</filter>
<filter id="filter18_f_37_916" x="15.2175" y="9.54175" width="3.03375" height="1.2345" filterUnits="userSpaceOnUse" color-interpolation-filters="sRGB">
<feFlood flood-opacity="0" result="BackgroundImageFix"/>
<feBlend mode="normal" in="SourceGraphic" in2="BackgroundImageFix" result="shape"/>
<feGaussianBlur stdDeviation="0.125" result="effect1_foregroundBlur_37_916"/>
</filter>
<filter id="filter19_f_37_916" x="13.8025" y="7.19501" width="0.69751" height="2.27374" filterUnits="userSpaceOnUse" color-interpolation-filters="sRGB">
<feFlood flood-opacity="0" result="BackgroundImageFix"/>
<feBlend mode="normal" in="SourceGraphic" in2="BackgroundImageFix" result="shape"/>
<feGaussianBlur stdDeviation="0.0625" result="effect1_foregroundBlur_37_916"/>
</filter>
<radialGradient id="paint0_radial_37_916" cx="0" cy="0" r="1" gradientUnits="userSpaceOnUse" gradientTransform="translate(29.025 29.9125) rotate(180) scale(13.5 25.8656)">
<stop stop-color="#EFEAFB"/>
<stop offset="1" stop-color="#D4CAE9"/>
</radialGradient>
<linearGradient id="paint1_linear_37_916" x1="29.1688" y1="30.7625" x2="28.7775" y2="30.7625" gradientUnits="userSpaceOnUse">
<stop offset="0.225" stop-color="#D4CCDC"/>
<stop offset="1" stop-color="#D4CCDC" stop-opacity="0"/>
</linearGradient>
<linearGradient id="paint2_linear_37_916" x1="10.945" y1="30.7625" x2="11.365" y2="30.7625" gradientUnits="userSpaceOnUse">
<stop offset="0.383" stop-color="#B7AFC3"/>
<stop offset="1" stop-color="#B7AFC3" stop-opacity="0"/>
</linearGradient>
<linearGradient id="paint3_linear_37_916" x1="20.2525" y1="38.7025" x2="20.2525" y2="36.4363" gradientUnits="userSpaceOnUse">
<stop stop-color="#C8B7DE"/>
<stop offset="1" stop-color="#C8B7DE" stop-opacity="0"/>
</linearGradient>
<radialGradient id="paint4_radial_37_916" cx="0" cy="0" r="1" gradientUnits="userSpaceOnUse" gradientTransform="translate(27.6349 36.0077) rotate(-121.204) scale(20.7341 20.4356)">
<stop offset="0.587" stop-color="#BEBAC5" stop-opacity="0"/>
<stop offset="1" stop-color="#BEBAC5"/>
</radialGradient>
<radialGradient id="paint5_radial_37_916" cx="0" cy="0" r="1" gradientUnits="userSpaceOnUse" gradientTransform="translate(22.5952 30.6162) rotate(77.152) scale(4.56747 5.05363)">
<stop stop-color="#B2A6C7"/>
<stop offset="1" stop-color="#B2A6C7" stop-opacity="0"/>
</radialGradient>
<radialGradient id="paint6_radial_37_916" cx="0" cy="0" r="1" gradientUnits="userSpaceOnUse" gradientTransform="translate(19.99 37.5) rotate(-90) scale(9.96876 1.20034)">
<stop stop-color="#B1909E"/>
<stop offset="1" stop-color="#B1909E" stop-opacity="0"/>
</radialGradient>
<linearGradient id="paint7_linear_37_916" x1="11.0512" y1="19.2988" x2="29.0213" y2="19.2988" gradientUnits="userSpaceOnUse">
<stop offset="0.006" stop-color="#CCCCCC"/>
<stop offset="1" stop-color="#E6E6E6"/>
</linearGradient>
<linearGradient id="paint8_linear_37_916" x1="11.0513" y1="19.2613" x2="29.0212" y2="19.2613" gradientUnits="userSpaceOnUse">
<stop offset="0.006" stop-color="#CCCCCC"/>
<stop offset="1" stop-color="#E6E6E6"/>
</linearGradient>
<radialGradient id="paint9_radial_37_916" cx="0" cy="0" r="1" gradientUnits="userSpaceOnUse" gradientTransform="translate(6.69751 30.89) rotate(5.18546) scale(4.32204 11.9995)">
<stop stop-color="#D3D0D5"/>
<stop offset="1" stop-color="#C8BFD6"/>
</radialGradient>
<radialGradient id="paint10_radial_37_916" cx="0" cy="0" r="1" gradientUnits="userSpaceOnUse" gradientTransform="translate(11.8939 22.2176) rotate(107.994) scale(8.34571 9.34682)">
<stop stop-color="#C4C3C3"/>
<stop offset="1" stop-color="#C4C3C3" stop-opacity="0"/>
</radialGradient>
<linearGradient id="paint11_linear_37_916" x1="8.77501" y1="38.4675" x2="8.77501" y2="36.6425" gradientUnits="userSpaceOnUse">
<stop stop-color="#C8B7DE"/>
<stop offset="1" stop-color="#C8B7DE" stop-opacity="0"/>
</linearGradient>
<radialGradient id="paint12_radial_37_916" cx="0" cy="0" r="1" gradientUnits="userSpaceOnUse" gradientTransform="translate(32.82 27.4525) rotate(155.425) scale(4.22663 11.1797)">
<stop stop-color="#FCF9FF"/>
<stop offset="1" stop-color="#E6DDF3"/>
</radialGradient>
<radialGradient id="paint13_radial_37_916" cx="0" cy="0" r="1" gradientUnits="userSpaceOnUse" gradientTransform="translate(30.7113 25.4213) rotate(90) scale(13.75 10.58)">
<stop offset="0.781" stop-color="#D1C0E3" stop-opacity="0"/>
<stop offset="0.974" stop-color="#D1C0E3"/>
</radialGradient>
<linearGradient id="paint14_linear_37_916" x1="28.365" y1="32.06" x2="29.3375" y2="32.06" gradientUnits="userSpaceOnUse">
<stop offset="0.643" stop-color="#D4CCDC"/>
<stop offset="1" stop-color="#D4CCDC" stop-opacity="0"/>
</linearGradient>
<radialGradient id="paint15_radial_37_916" cx="0" cy="0" r="1" gradientUnits="userSpaceOnUse" gradientTransform="translate(20.0325 23.1938) rotate(90) scale(7.07031 3.76406)">
<stop offset="0.398" stop-color="#3272AC"/>
<stop offset="1" stop-color="#0A4B92"/>
</radialGradient>
<radialGradient id="paint16_radial_37_916" cx="0" cy="0" r="1" gradientUnits="userSpaceOnUse" gradientTransform="translate(20.4875 38.1163) rotate(-90) scale(8.16406 3.57563)">
<stop offset="0.344" stop-color="#3865B8"/>
<stop offset="1" stop-color="#3865B8" stop-opacity="0"/>
</radialGradient>
<linearGradient id="paint17_linear_37_916" x1="11.0512" y1="19.2988" x2="29.0213" y2="19.2988" gradientUnits="userSpaceOnUse">
<stop offset="0.006" stop-color="#CCCCCC"/>
<stop offset="1" stop-color="#E6E6E6"/>
</linearGradient>
<linearGradient id="paint18_linear_37_916" x1="11.0513" y1="19.2613" x2="29.0212" y2="19.2613" gradientUnits="userSpaceOnUse">
<stop offset="0.006" stop-color="#CCCCCC"/>
<stop offset="1" stop-color="#E6E6E6"/>
</linearGradient>
<linearGradient id="paint19_linear_37_916" x1="20.2525" y1="33.7413" x2="29.7837" y2="24.2488" gradientUnits="userSpaceOnUse">
<stop stop-color="#AD9EC2"/>
<stop offset="1" stop-color="#D3CFDA"/>
</linearGradient>
<linearGradient id="paint20_linear_37_916" x1="27.395" y1="22.9862" x2="21" y2="29.8837" gradientUnits="userSpaceOnUse">
<stop stop-color="#FDF6F9"/>
<stop offset="1" stop-color="#BDB2D2"/>
</linearGradient>
<linearGradient id="paint21_linear_37_916" x1="25.0875" y1="19.5875" x2="24.89" y2="22.165" gradientUnits="userSpaceOnUse">
<stop stop-color="#EDD8CE"/>
<stop offset="1" stop-color="#EDD8CE" stop-opacity="0"/>
</linearGradient>
<linearGradient id="paint22_linear_37_916" x1="22.01" y1="23.6437" x2="23.455" y2="24.2487" gradientUnits="userSpaceOnUse">
<stop stop-color="#B49089"/>
<stop offset="1" stop-color="#DED4E6" stop-opacity="0"/>
</linearGradient>
<radialGradient id="paint23_radial_37_916" cx="0" cy="0" r="1" gradientUnits="userSpaceOnUse" gradientTransform="translate(23.955 22.6475) rotate(90) scale(7.73437 1.05699)">
<stop stop-color="#AA98A1"/>
<stop offset="1" stop-color="#DAD1E4" stop-opacity="0"/>
</radialGradient>
<radialGradient id="paint24_radial_37_916" cx="0" cy="0" r="1" gradientUnits="userSpaceOnUse" gradientTransform="translate(20.59 33.2) rotate(-48.5803) scale(5.0866 1.73727)">
<stop stop-color="#B7A3CF"/>
<stop offset="1" stop-color="#B7A3CF" stop-opacity="0"/>
</radialGradient>
<radialGradient id="paint25_radial_37_916" cx="0" cy="0" r="1" gradientUnits="userSpaceOnUse" gradientTransform="translate(23.955 31.085) rotate(-90) scale(6.05469 0.691588)">
<stop stop-color="#A298B4"/>
<stop offset="1" stop-color="#A298B4" stop-opacity="0"/>
</radialGradient>
<radialGradient id="paint26_radial_37_916" cx="0" cy="0" r="1" gradientUnits="userSpaceOnUse" gradientTransform="translate(18.1419 24.7967) rotate(158.705) scale(4.06674 7.98467)">
<stop offset="0.088" stop-color="#EFE1E3"/>
<stop offset="1" stop-color="#BDB0D0"/>
</radialGradient>
<radialGradient id="paint27_radial_37_916" cx="0" cy="0" r="1" gradientUnits="userSpaceOnUse" gradientTransform="translate(12.6938 31.1537) rotate(-69.7629) scale(12.5072 10.1541)">
<stop offset="0.691" stop-color="#B3A299" stop-opacity="0"/>
<stop offset="1" stop-color="#B3A299"/>
</radialGradient>
<linearGradient id="paint28_linear_37_916" x1="15.37" y1="29.015" x2="15.78" y2="28.565" gradientUnits="userSpaceOnUse">
<stop stop-color="#B2A6C6"/>
<stop offset="1" stop-color="#B2A6C6" stop-opacity="0"/>
</linearGradient>
<radialGradient id="paint29_radial_37_916" cx="0" cy="0" r="1" gradientUnits="userSpaceOnUse" gradientTransform="translate(12.9075 24.3662) rotate(-81.961) scale(3.49133 2.67486)">
<stop stop-color="#CBC5CF"/>
<stop offset="1" stop-color="#BDB1AD" stop-opacity="0"/>
</radialGradient>
<radialGradient id="paint30_radial_37_916" cx="0" cy="0" r="1" gradientUnits="userSpaceOnUse" gradientTransform="translate(15.155 22.9012) rotate(101.232) scale(2.80767 0.86201)">
<stop offset="0.439" stop-color="#ADA5AB"/>
<stop offset="1" stop-color="#ADA5AB" stop-opacity="0"/>
</radialGradient>
<radialGradient id="paint31_radial_37_916" cx="0" cy="0" r="1" gradientUnits="userSpaceOnUse" gradientTransform="translate(15.5841 26.6707) rotate(49.295) scale(3.50394 1.21781)">
<stop stop-color="#B5A9BF"/>
<stop offset="1" stop-color="#B5A9BF" stop-opacity="0"/>
</radialGradient>
<radialGradient id="paint32_radial_37_916" cx="0" cy="0" r="1" gradientUnits="userSpaceOnUse" gradientTransform="translate(20.0125 23.4) rotate(-90) scale(3.40785 4.02813)">
<stop offset="0.243" stop-color="#815C59"/>
<stop offset="0.577" stop-color="#6A4749"/>
<stop offset="1" stop-color="#46323C"/>
</radialGradient>
<radialGradient id="paint33_radial_37_916" cx="0" cy="0" r="1" gradientUnits="userSpaceOnUse" gradientTransform="translate(11.9575 13.3962) scale(2.1934 3.83846)">
<stop offset="0.351" stop-color="#865D5F"/>
<stop offset="1" stop-color="#76594A"/>
</radialGradient>
<radialGradient id="paint34_radial_37_916" cx="0" cy="0" r="1" gradientUnits="userSpaceOnUse" gradientTransform="translate(14.0437 15.4838) rotate(-124.98) scale(2.07075)">
<stop offset="0.34" stop-color="#834E63"/>
<stop offset="1" stop-color="#834E63" stop-opacity="0"/>
</radialGradient>
<linearGradient id="paint35_linear_37_916" x1="14.0438" y1="13.745" x2="13.2438" y2="13.745" gradientUnits="userSpaceOnUse">
<stop stop-color="#694448"/>
<stop offset="1" stop-color="#6E464D"/>
</linearGradient>
<linearGradient id="paint36_linear_37_916" x1="27.2925" y1="12.0325" x2="26.2688" y2="15.2025" gradientUnits="userSpaceOnUse">
<stop stop-color="#CCA68C"/>
<stop offset="1" stop-color="#AE7F75"/>
</linearGradient>
<radialGradient id="paint37_radial_37_916" cx="0" cy="0" r="1" gradientUnits="userSpaceOnUse" gradientTransform="translate(26.4 13.065) rotate(-36.0607) scale(1.2782 1.4589)">
<stop offset="0.543" stop-color="#8F6459"/>
<stop offset="1" stop-color="#8F6459" stop-opacity="0"/>
</radialGradient>
<radialGradient id="paint38_radial_37_916" cx="0" cy="0" r="1" gradientUnits="userSpaceOnUse" gradientTransform="translate(25.8825 14.4225) rotate(-61.4672) scale(2.14901 1.25783)">
<stop offset="0.755" stop-color="#8A5D55" stop-opacity="0"/>
<stop offset="0.916" stop-color="#8A5D55"/>
</radialGradient>
<radialGradient id="paint39_radial_37_916" cx="0" cy="0" r="1" gradientUnits="userSpaceOnUse" gradientTransform="translate(25.9342 13.3962) rotate(44.707) scale(0.456 0.58785)">
<stop stop-color="#895F52"/>
<stop offset="1" stop-color="#895F52" stop-opacity="0"/>
</radialGradient>
<linearGradient id="paint40_linear_37_916" x1="25.0225" y1="13.8825" x2="15.4775" y2="15.305" gradientUnits="userSpaceOnUse">
<stop stop-color="#C69980"/>
<stop offset="1" stop-color="#916762"/>
</linearGradient>
<radialGradient id="paint41_radial_37_916" cx="0" cy="0" r="1" gradientUnits="userSpaceOnUse" gradientTransform="translate(22.9112 11.8063) rotate(-90) scale(1.63371 2.01072)">
<stop stop-color="#AB7773"/>
<stop offset="1" stop-color="#AB7773" stop-opacity="0"/>
</radialGradient>
<radialGradient id="paint42_radial_37_916" cx="0" cy="0" r="1" gradientUnits="userSpaceOnUse" gradientTransform="translate(17.2137 11.975) rotate(-90) scale(1.71749 2.13585)">
<stop stop-color="#8F5D65"/>
<stop offset="1" stop-color="#8F5D65" stop-opacity="0"/>
</radialGradient>
<linearGradient id="paint43_linear_37_916" x1="13.2338" y1="17.2525" x2="15.5862" y2="17.1688" gradientUnits="userSpaceOnUse">
<stop stop-color="#9B7569"/>
<stop offset="1" stop-color="#9B7569" stop-opacity="0"/>
</linearGradient>
<linearGradient id="paint44_linear_37_916" x1="26.1287" y1="16.2013" x2="24.7387" y2="16.08" gradientUnits="userSpaceOnUse">
<stop stop-color="#C1987F"/>
<stop offset="1" stop-color="#C1987F" stop-opacity="0"/>
</linearGradient>
<radialGradient id="paint45_radial_37_916" cx="0" cy="0" r="1" gradientUnits="userSpaceOnUse" gradientTransform="translate(19.8187 11.4788) rotate(90) scale(10.4097 12.9021)">
<stop offset="0.608" stop-color="#9B7168" stop-opacity="0"/>
<stop offset="0.884" stop-color="#8F5D78"/>
<stop offset="1" stop-color="#7C5267"/>
</radialGradient>
<linearGradient id="paint46_linear_37_916" x1="19.3138" y1="10.1525" x2="29.4938" y2="6.50752" gradientUnits="userSpaceOnUse">
<stop stop-color="#C89F8B"/>
<stop offset="1" stop-color="#C89F8B" stop-opacity="0"/>
</linearGradient>
<radialGradient id="paint47_radial_37_916" cx="0" cy="0" r="1" gradientUnits="userSpaceOnUse" gradientTransform="translate(25.4095 8.26476) rotate(-74.899) scale(3.82764 1.41941)">
<stop stop-color="#554042"/>
<stop offset="1" stop-color="#554042" stop-opacity="0"/>
</radialGradient>
<radialGradient id="paint48_radial_37_916" cx="0" cy="0" r="1" gradientUnits="userSpaceOnUse" gradientTransform="translate(23.3573 6.06412) rotate(5.258) scale(4.80084 2.58138)">
<stop offset="0.392" stop-color="#644949"/>
<stop offset="1" stop-color="#644949" stop-opacity="0"/>
</radialGradient>
<radialGradient id="paint49_radial_37_916" cx="0" cy="0" r="1" gradientUnits="userSpaceOnUse" gradientTransform="translate(19.9788 2.64499) rotate(90) scale(2.09879 3.25044)">
<stop stop-color="#624C49"/>
<stop offset="1" stop-color="#624C49" stop-opacity="0"/>
</radialGradient>
<radialGradient id="paint50_radial_37_916" cx="0" cy="0" r="1" gradientUnits="userSpaceOnUse" gradientTransform="translate(11.9175 11.1675) rotate(-36.235) scale(4.76333 7.46258)">
<stop stop-color="#4E3C3A"/>
<stop offset="1" stop-color="#4E3C3A" stop-opacity="0"/>
</radialGradient>
<linearGradient id="paint51_linear_37_916" x1="18.8988" y1="14.7075" x2="20.0713" y2="14.7075" gradientUnits="userSpaceOnUse">
<stop stop-color="#8B6455"/>
<stop offset="1" stop-color="#8B6455" stop-opacity="0"/>
</linearGradient>
<linearGradient id="paint52_linear_37_916" x1="21.1513" y1="15.11" x2="19.87" y2="15.0912" gradientUnits="userSpaceOnUse">
<stop stop-color="#CDA186"/>
<stop offset="1" stop-color="#CDA186" stop-opacity="0"/>
</linearGradient>
<linearGradient id="paint53_linear_37_916" x1="20.2213" y1="16.0375" x2="20.2213" y2="15.3212" gradientUnits="userSpaceOnUse">
<stop stop-color="#9C6073"/>
<stop offset="1" stop-color="#9C6073" stop-opacity="0"/>
</linearGradient>
<radialGradient id="paint54_radial_37_916" cx="0" cy="0" r="1" gradientUnits="userSpaceOnUse" gradientTransform="translate(20.3875 15.4037) rotate(90) scale(0.2461 0.790675)">
<stop stop-color="#C39787"/>
<stop offset="1" stop-color="#C39787" stop-opacity="0"/>
</radialGradient>
<linearGradient id="paint55_linear_37_916" x1="20.135" y1="16.09" x2="20.135" y2="15.8812" gradientUnits="userSpaceOnUse">
<stop stop-color="#8E5263"/>
<stop offset="1" stop-color="#8E5263" stop-opacity="0"/>
</linearGradient>
<linearGradient id="paint56_linear_37_916" x1="18.6825" y1="18.0563" x2="19.2263" y2="17.1975" gradientUnits="userSpaceOnUse">
<stop stop-color="#A87D7B"/>
<stop offset="0.663" stop-color="#A87D7B" stop-opacity="0"/>
</linearGradient>
<radialGradient id="paint57_radial_37_916" cx="0" cy="0" r="1" gradientUnits="userSpaceOnUse" gradientTransform="translate(23.0312 10.7912) rotate(-80.2013) scale(0.765188 2.26374)">
<stop stop-color="#422235"/>
<stop offset="1" stop-color="#422235" stop-opacity="0"/>
</radialGradient>
<radialGradient id="paint58_radial_37_916" cx="0" cy="0" r="1" gradientUnits="userSpaceOnUse" gradientTransform="translate(16.598 10.7908) rotate(-80.2) scale(0.765187 2.26386)">
<stop stop-color="#422235"/>
<stop offset="1" stop-color="#422235" stop-opacity="0"/>
</radialGradient>
<radialGradient id="paint59_radial_37_916" cx="0" cy="0" r="1" gradientUnits="userSpaceOnUse" gradientTransform="translate(22.7025 12.5438) rotate(90) scale(1.01383 1.61261)">
<stop offset="0.802" stop-color="#7D574A"/>
<stop offset="1" stop-color="#664944"/>
</radialGradient>
<radialGradient id="paint60_radial_37_916" cx="0" cy="0" r="1" gradientUnits="userSpaceOnUse" gradientTransform="translate(22.4163 12.65) rotate(-127.812) scale(0.472704 0.650808)">
<stop offset="0.766" stop-color="#FFE6E2" stop-opacity="0"/>
<stop offset="0.966" stop-color="#FFE6E2"/>
</radialGradient>
<linearGradient id="paint61_linear_37_916" x1="23.6737" y1="12.6113" x2="23.2825" y2="12.8525" gradientUnits="userSpaceOnUse">
<stop stop-color="#B4948D"/>
<stop offset="1" stop-color="#B4948D" stop-opacity="0"/>
</linearGradient>
<radialGradient id="paint62_radial_37_916" cx="0" cy="0" r="1" gradientUnits="userSpaceOnUse" gradientTransform="translate(17.2488 12.5438) rotate(90) scale(1.01388 1.61269)">
<stop offset="0.802" stop-color="#7D574A"/>
<stop offset="1" stop-color="#664944"/>
</radialGradient>
<linearGradient id="paint63_linear_37_916" x1="18.1775" y1="12.6112" x2="17.7863" y2="12.8525" gradientUnits="userSpaceOnUse">
<stop stop-color="#B4948D"/>
<stop offset="1" stop-color="#B4948D" stop-opacity="0"/>
</linearGradient>
<radialGradient id="paint64_radial_37_916" cx="0" cy="0" r="1" gradientUnits="userSpaceOnUse" gradientTransform="translate(17.077 12.781) rotate(-118.811) scale(0.617487 0.742238)">
<stop offset="0.766" stop-color="#FFE6E2" stop-opacity="0"/>
<stop offset="0.966" stop-color="#FFE6E2"/>
</radialGradient>
<linearGradient id="paint65_linear_37_916" x1="23.6938" y1="9.93625" x2="23.1688" y2="8.86375" gradientUnits="userSpaceOnUse">
<stop stop-color="#5B4545"/>
<stop offset="1" stop-color="#5B4545" stop-opacity="0"/>
</linearGradient>
<linearGradient id="paint66_linear_37_916" x1="17.0637" y1="9.77751" x2="15.5775" y2="9.15376" gradientUnits="userSpaceOnUse">
<stop stop-color="#5B4545"/>
<stop offset="1" stop-color="#5B4545" stop-opacity="0"/>
</linearGradient>
<linearGradient id="paint67_linear_37_916" x1="14.1513" y1="7.26001" x2="14.1513" y2="9.95501" gradientUnits="userSpaceOnUse">
<stop offset="0.228" stop-color="#4A3236"/>
<stop offset="1" stop-color="#4A3236" stop-opacity="0"/>
</linearGradient>
</defs>
</svg>
