<svg width="41" height="40" viewBox="0 0 41 40" fill="none" xmlns="http://www.w3.org/2000/svg">
<path d="M20.4506 4.00006C17.6843 3.99984 14.966 4.72298 12.5654 6.09773C10.1649 7.47247 8.16554 9.45104 6.76578 11.8371C5.36602 14.2231 4.61451 16.9337 4.58582 19.6999C4.55713 22.4661 5.25226 25.1917 6.60223 27.6063L4.65945 32.6878C4.49795 33.1102 4.45698 33.5691 4.54112 34.0135C4.62526 34.4578 4.83119 34.87 5.13595 35.2041C5.44071 35.5383 5.8323 35.7811 6.26704 35.9057C6.70179 36.0302 7.16258 36.0315 7.59802 35.9095L13.668 34.2083C15.8181 35.2242 18.1691 35.7438 20.5471 35.7285C22.9251 35.7133 25.2692 35.1636 27.4061 34.1202C29.543 33.0768 31.418 31.5663 32.8924 29.7005C34.3669 27.8348 35.403 25.6614 35.9241 23.3411C36.4452 21.0209 36.4381 18.6132 35.9032 16.2961C35.3683 13.979 34.3194 11.8118 32.8339 9.95475C31.3485 8.09773 29.4646 6.59841 27.3215 5.56769C25.1785 4.53697 22.8287 4.00122 20.4506 4.00006Z" fill="url(#paint0_linear_37_856)"/>
<path d="M20.3375 13.8239C19.4637 13.9947 18.507 14.561 17.7552 15.8887C17.595 16.1703 17.3295 16.3767 17.0171 16.4625C16.7047 16.5483 16.371 16.5065 16.0895 16.3463C15.8079 16.1861 15.6015 15.9206 15.5157 15.6082C15.4298 15.2958 15.4716 14.9621 15.6318 14.6806C16.7082 12.789 18.2385 11.7469 19.8688 11.4271C21.3862 11.1411 22.9552 11.4581 24.2425 12.3107C25.4238 13.0917 26.3781 14.3682 26.4074 15.8985C26.4391 17.4971 25.4678 18.9371 23.6763 19.9964C22.4608 20.7164 21.9874 21.2045 21.7848 21.5291C21.6139 21.8 21.5749 22.049 21.5749 22.6079C21.5749 22.9315 21.4463 23.2419 21.2175 23.4708C20.9886 23.6997 20.6782 23.8282 20.3545 23.8282C20.0309 23.8282 19.7205 23.6997 19.4916 23.4708C19.2628 23.2419 19.1342 22.9315 19.1342 22.6079C19.1342 21.944 19.1684 21.1166 19.7126 20.2404C20.2252 19.4179 21.1014 18.6833 22.434 17.8974C23.7398 17.1237 23.9765 16.3866 23.9692 15.9473C23.957 15.4445 23.6226 14.8246 22.8953 14.3462C22.1423 13.8478 21.2255 13.6606 20.3375 13.8239ZM20.9647 29.9299C20.4792 29.9299 20.0136 29.7371 19.6703 29.3938C19.3271 29.0505 19.1342 28.5849 19.1342 28.0994C19.1342 27.6139 19.3271 27.1483 19.6703 26.805C20.0136 26.4618 20.4792 26.2689 20.9647 26.2689C21.4502 26.2689 21.9158 26.4618 22.2591 26.805C22.6024 27.1483 22.7952 27.6139 22.7952 28.0994C22.7952 28.5849 22.6024 29.0505 22.2591 29.3938C21.9158 29.7371 21.4502 29.9299 20.9647 29.9299Z" fill="url(#paint1_linear_37_856)"/>
<defs>
<linearGradient id="paint0_linear_37_856" x1="4.49348" y1="4.00006" x2="36.4956" y2="35.8216" gradientUnits="userSpaceOnUse">
<stop stop-color="#5A4BFF"/>
<stop offset="1" stop-color="#382CBE"/>
</linearGradient>
<linearGradient id="paint1_linear_37_856" x1="16.4299" y1="11.6493" x2="21.4699" y2="30.7402" gradientUnits="userSpaceOnUse">
<stop stop-color="#FDFDFD"/>
<stop offset="1" stop-color="#B3ACFF"/>
</linearGradient>
</defs>
</svg>
