<svg width="25" height="24" viewBox="0 0 25 24" fill="none" xmlns="http://www.w3.org/2000/svg">
<path d="M12.3333 8.87579C10.613 8.87579 9.20911 10.2797 9.20911 12C9.20911 13.7203 10.613 15.1242 12.3333 15.1242C14.0536 15.1242 15.4576 13.7203 15.4576 12C15.4576 10.2797 14.0536 8.87579 12.3333 8.87579ZM21.7036 12C21.7036 10.7063 21.7154 9.42423 21.6427 8.13283C21.5701 6.63283 21.2279 5.30158 20.131 4.2047C19.0318 3.10548 17.7029 2.76564 16.2029 2.69298C14.9091 2.62033 13.6271 2.63204 12.3357 2.63204C11.0419 2.63204 9.7599 2.62033 8.46849 2.69298C6.96849 2.76564 5.63724 3.10783 4.54036 4.2047C3.44115 5.30392 3.1013 6.63283 3.02865 8.13283C2.95599 9.42658 2.96771 10.7086 2.96771 12C2.96771 13.2914 2.95599 14.5758 3.02865 15.8672C3.1013 17.3672 3.44349 18.6985 4.54036 19.7953C5.63958 20.8945 6.96849 21.2344 8.46849 21.307C9.76224 21.3797 11.0443 21.368 12.3357 21.368C13.6294 21.368 14.9115 21.3797 16.2029 21.307C17.7029 21.2344 19.0341 20.8922 20.131 19.7953C21.2302 18.6961 21.5701 17.3672 21.6427 15.8672C21.7177 14.5758 21.7036 13.2938 21.7036 12ZM12.3333 16.807C9.67318 16.807 7.5263 14.6602 7.5263 12C7.5263 9.33986 9.67318 7.19298 12.3333 7.19298C14.9935 7.19298 17.1404 9.33986 17.1404 12C17.1404 14.6602 14.9935 16.807 12.3333 16.807ZM17.3372 8.11876C16.7161 8.11876 16.2146 7.6172 16.2146 6.99611C16.2146 6.37501 16.7161 5.87345 17.3372 5.87345C17.9583 5.87345 18.4599 6.37501 18.4599 6.99611C18.4601 7.14359 18.4312 7.28966 18.3748 7.42595C18.3185 7.56224 18.2358 7.68607 18.1315 7.79036C18.0272 7.89464 17.9034 7.97733 17.7671 8.03368C17.6308 8.09004 17.4847 8.11895 17.3372 8.11876Z" fill="#A2A1A2"/>
</svg>
