<svg width="127" height="127" viewBox="0 0 127 127" fill="none" xmlns="http://www.w3.org/2000/svg">
<g filter="url(#filter0_dd_1_4198)">
<rect x="16.2418" y="10.2417" width="94.5164" height="94.5164" rx="17.7218" fill="white"/>
<path d="M36.8395 49.7706H44.6584V48.0844H36.8395V49.7706ZM72.5614 58.8053H67.0944V53.1964H72.5614C74.5139 53.1964 75.8185 54.3235 75.8185 56.0009C75.8185 57.6782 74.5139 58.8053 72.5614 58.8053ZM74.3719 60.1189C76.2445 59.5864 77.4604 57.9711 77.4604 56.0009C77.4604 53.4537 75.4901 51.7409 72.5614 51.7409H65.4525V66.8106H67.0944V60.2875H72.659L76.2001 66.8106H77.9751L74.2831 60.1455L74.3719 60.1189ZM56.9325 67.0946C60.9618 67.0946 63.7662 64.2635 63.7662 60.2165V51.7409H62.08V60.1011C62.08 63.2251 59.9589 65.3995 56.9325 65.3995C54.4209 65.3995 51.714 63.7399 51.714 60.1011V51.7409H50.0277V60.2165C50.0277 64.2635 52.8678 67.0946 56.9325 67.0946ZM86.3797 53.7022L89.9386 61.4856H82.8031L86.3797 53.7022ZM85.5899 51.7409L78.7029 66.8106H80.469L82.173 62.95H90.5776L92.2816 66.8106H94.0477L87.1607 51.7409H85.5899ZM40.7445 51.4569C36.4313 51.4569 32.9256 54.9625 32.9256 59.2757C32.9256 63.589 36.4313 67.0946 40.7445 67.0946C45.0577 67.0946 48.5634 63.589 48.5634 59.2757C48.5634 54.9625 45.0577 51.4569 40.7445 51.4569ZM40.7445 65.4084C37.3631 65.4084 34.6119 62.6571 34.6119 59.2757C34.6119 55.8944 37.3631 53.1431 40.7445 53.1431C44.1259 53.1431 46.8771 55.8944 46.8771 59.2757C46.8771 62.6571 44.1259 65.4084 40.7445 65.4084Z" fill="#1D1D1B"/>
</g>
<defs>
<filter id="filter0_dd_1_4198" x="0.356656" y="0.710637" width="126.287" height="126.287" filterUnits="userSpaceOnUse" color-interpolation-filters="sRGB">
<feFlood flood-opacity="0" result="BackgroundImageFix"/>
<feColorMatrix in="SourceAlpha" type="matrix" values="0 0 0 0 0 0 0 0 0 0 0 0 0 0 0 0 0 0 127 0" result="hardAlpha"/>
<feOffset dy="6.35404"/>
<feGaussianBlur stdDeviation="7.94255"/>
<feComposite in2="hardAlpha" operator="out"/>
<feColorMatrix type="matrix" values="0 0 0 0 0.2 0 0 0 0 0.2 0 0 0 0 0.2 0 0 0 0.12 0"/>
<feBlend mode="normal" in2="BackgroundImageFix" result="effect1_dropShadow_1_4198"/>
<feColorMatrix in="SourceAlpha" type="matrix" values="0 0 0 0 0 0 0 0 0 0 0 0 0 0 0 0 0 0 127 0" result="hardAlpha"/>
<feOffset dy="3.17702"/>
<feGaussianBlur stdDeviation="3.17702"/>
<feComposite in2="hardAlpha" operator="out"/>
<feColorMatrix type="matrix" values="0 0 0 0 0.2 0 0 0 0 0.2 0 0 0 0 0.2 0 0 0 0.04 0"/>
<feBlend mode="normal" in2="effect1_dropShadow_1_4198" result="effect2_dropShadow_1_4198"/>
<feBlend mode="normal" in="SourceGraphic" in2="effect2_dropShadow_1_4198" result="shape"/>
</filter>
</defs>
</svg>
