<svg width="147" height="146" viewBox="0 0 147 146" fill="none" xmlns="http://www.w3.org/2000/svg">
<g filter="url(#filter0_dd_1_4167)">
<rect x="14" y="27.9622" width="100" height="100" rx="18.75" transform="rotate(-12.1002 14 27.9622)" fill="white"/>
<g clip-path="url(#clip0_1_4167)">
<path d="M54.2771 71.0221C54.089 70.7857 53.6927 70.6447 53.3964 70.7082L52.7948 70.8372C52.4992 70.9006 52.2002 71.1933 52.1295 71.4872L49.4951 82.4785C49.419 82.7706 49.6036 82.9285 49.8998 82.865L51.0024 82.6286C51.4378 82.5353 51.5948 82.2946 51.6606 82.0268C51.7268 81.759 51.8767 81.1752 51.904 81.0569C51.9407 80.8968 52.1314 80.7627 52.427 80.6996L57.5615 79.6017C57.8575 79.5388 58.0597 79.5543 58.1848 79.7104C58.2663 79.812 58.6303 80.2301 58.8148 80.4612C59.0004 80.6921 59.2643 80.8574 59.6884 80.7665L61.2883 80.4235C61.5841 80.3601 61.6656 80.1077 61.5144 79.922C61.3625 79.736 54.277 71.0221 54.277 71.0221L54.2771 71.0221ZM52.8348 79.0019C52.5393 79.0652 52.3528 78.8749 52.4198 78.5807L53.4364 74.1496C53.5041 73.8545 53.7068 73.813 53.8863 74.055L56.5804 77.6905C56.7601 77.9331 56.6654 78.1836 56.3701 78.2469L52.8348 79.0019ZM91.1633 63.1948L93.2835 73.0842C93.3418 73.3565 93.6237 73.4913 93.9198 73.4278L95.2237 73.1483C95.5193 73.0849 95.7208 72.8441 95.6574 72.5483L93.5385 62.6648C93.475 62.3686 93.2323 62.1683 92.9367 62.2317L91.5818 62.5222C91.2856 62.5854 91.0828 62.8192 91.1633 63.1948ZM70.6412 74.0736C70.4194 73.8679 70.4554 73.5806 70.7202 73.4354C70.7202 73.4354 71.7745 72.8566 72.2101 72.2575C72.6457 71.6568 72.7668 70.8986 72.5712 69.9861C72.4433 69.3894 72.2314 68.9102 71.9362 68.5465C71.6412 68.184 71.2719 67.9147 70.8299 67.7428C70.3874 67.5696 69.8833 67.481 69.3178 67.4791C68.7519 67.4778 68.0147 67.6 68.0147 67.6C67.6536 67.6619 67.2936 67.7305 66.935 67.8059L61.5202 68.9667C61.2248 69.0301 61.0345 69.3232 61.098 69.6193L63.217 79.5031C63.2805 79.7992 63.5627 79.936 63.8583 79.8726L65.1397 79.5979C65.4355 79.5345 65.6368 79.2938 65.5733 78.998C65.5733 78.998 64.7314 75.0665 64.7338 75.066C64.736 75.0655 64.7369 75.0632 64.7364 75.0604C64.7356 75.0571 67.1641 74.5336 67.1641 74.5336C67.4595 74.4703 67.8833 74.5861 68.1062 74.7914L71.389 77.8014C71.6907 78.0656 71.9398 78.14 72.2354 78.0766L73.9104 77.7175C74.2062 77.6541 74.1928 77.3652 74.0594 77.2424C73.9271 77.1201 70.6412 74.0736 70.6412 74.0736ZM69.1912 72.2847C68.8757 72.4322 68.5055 72.5276 68.5055 72.5276C68.1506 72.6186 67.794 72.7032 67.436 72.7813L64.926 73.3195C64.6302 73.3829 64.3364 73.1926 64.2731 72.897L63.8438 70.8945C63.7803 70.5987 63.9703 70.305 64.2661 70.2416L66.7761 69.7035C67.072 69.6401 67.5575 69.5471 67.8555 69.4962C67.8555 69.4962 68.2322 69.4308 68.5804 69.4363C68.9286 69.4418 69.2149 69.4921 69.4369 69.5887C69.6601 69.6861 69.8331 69.8193 69.9567 69.9886C70.0792 70.1583 70.1648 70.353 70.2126 70.5757C70.2601 70.7971 70.2621 71.0113 70.2198 71.2158C70.1764 71.4209 70.0734 71.6132 69.9096 71.7935C69.7469 71.9737 69.5068 72.1383 69.1912 72.2847ZM107.053 59.2051C106.757 59.2685 106.56 59.5146 106.621 59.7995L107.979 66.121C108.043 66.4173 107.89 66.5205 107.639 66.3515L99.901 61.1425C99.6499 60.9736 99.312 60.8646 98.9067 60.9515L97.7162 61.2067C97.342 61.287 97.2209 61.5219 97.2643 61.7242L99.4316 71.834C99.4749 72.0357 99.7083 72.1869 100.004 72.1234L101.197 71.8678C101.492 71.8046 101.664 71.5994 101.606 71.3271C101.577 71.1905 100.184 64.6656 100.184 64.6656C100.121 64.37 100.274 64.2667 100.524 64.4363L108.596 69.8832C108.851 70.0481 109.142 70.1646 109.595 70.0675L110.491 69.8755C110.787 69.812 110.977 69.5183 110.913 69.2224L108.806 59.3919C108.742 59.0957 108.449 58.9064 108.153 58.9698L107.053 59.2056L107.053 59.2051ZM82.5646 70.903C82.4764 71.192 82.2399 71.2419 82.0429 71.0134L77.7302 65.9941C77.5422 65.7585 77.2259 65.5996 76.8499 65.6802L75.1717 66.04C74.8759 66.1034 74.6852 66.3966 74.7487 66.6927L76.865 76.5639C76.9283 76.8592 77.1659 77.0196 77.5098 76.9459L78.553 76.7222C78.8491 76.6587 79.0224 76.4263 78.9613 76.1412C78.932 76.0045 77.4265 68.9607 77.4377 68.9583C77.4492 68.9559 82.8386 75.3078 82.8386 75.3078C83.0339 75.5384 83.3764 75.4662 83.4629 75.1763C83.4629 75.1763 85.8104 67.1847 85.8219 67.1823C85.834 67.1797 87.3203 74.1339 87.3644 74.3396C87.4256 74.625 87.6936 74.7625 87.9897 74.699L89.1912 74.4414C89.4873 74.378 89.697 74.1788 89.6133 73.7885L87.5058 63.958C87.475 63.8156 87.3891 63.6912 87.2667 63.6121C87.1444 63.5329 86.9957 63.5055 86.8532 63.5358L85.2444 63.8807C84.8338 63.9688 84.6317 64.2311 84.54 64.5196L82.5645 70.903L82.5646 70.903ZM34.7028 80.4094C35.8445 85.735 41.3497 84.8373 42.4418 84.6031C46.0567 83.8282 47.3748 82.5239 47.4292 82.4682C47.6278 82.2917 47.8478 81.9747 47.7442 81.4914L46.9562 77.8155C46.921 77.6526 46.8227 77.5103 46.6827 77.4198C46.5428 77.3293 46.3727 77.298 46.2098 77.3328L41.6684 78.3064C41.3289 78.3792 41.1652 78.7028 41.2378 79.0414L41.3194 79.4221C41.3921 79.7613 41.6743 79.9901 42.0138 79.9174L44.6404 79.3542C44.7623 79.3281 44.8896 79.3515 44.9942 79.4192C45.0989 79.4868 45.1724 79.5933 45.1987 79.7151C45.1987 79.7151 45.5416 81.3269 45.5635 81.429C45.09 81.7521 42.8744 82.9494 40.8783 82.9036C37.9821 82.8352 37.2801 80.6085 37.1342 79.9277C37.0117 79.3563 36.5694 76.4571 39.8907 75.4423C42.579 74.6208 44.6196 75.3397 44.6398 75.3468C44.9974 75.4446 45.3051 75.2543 45.4116 74.875C45.4118 74.8722 45.6048 74.1094 45.6048 74.1094C45.6858 73.7953 45.5749 73.5112 45.1783 73.3506C45.1524 73.3423 43.0094 72.713 40.0304 73.3516C33.6735 74.7147 34.5787 79.8306 34.7028 80.4094ZM112.446 68.0361L111.978 68.1364L111.941 67.9676L113.081 67.7234L113.117 67.8922L112.647 67.993L112.94 69.3622L112.739 69.4052L112.446 68.0361ZM114.847 68.247C114.789 68.0348 114.72 67.7776 114.679 67.5882L114.675 67.5892C114.657 67.7984 114.634 68.0071 114.606 68.2151L114.494 69.0193L114.344 69.0516L113.936 68.3732C113.816 68.1699 113.715 67.986 113.632 67.8129L113.627 67.8139C113.669 68.0421 113.708 68.2709 113.743 68.5003L113.844 69.1682L113.654 69.2088L113.432 67.6479L113.685 67.5935L114.107 68.2811C114.202 68.4395 114.291 68.6012 114.373 68.7659L114.378 68.7649C114.386 68.6011 114.404 68.4205 114.431 68.2117L114.546 67.409L114.799 67.3547L115.225 68.8721L115.028 68.9142L114.847 68.247Z" fill="black"/>
<path d="M105.867 56.6087L98.7331 58.1377C98.4716 58.1938 98.2192 58.1118 98.0401 57.9134C97.861 57.715 97.8054 57.4559 97.8877 57.2014L100.131 50.2622C100.213 50.0081 100.409 49.8305 100.671 49.7744C100.932 49.7184 101.185 49.7998 101.364 49.998L106.254 55.4081C106.434 55.6064 106.489 55.8657 106.407 56.1202C106.325 56.3744 106.128 56.5526 105.867 56.6087Z" fill="#007CC2"/>
</g>
</g>
<defs>
<filter id="filter0_dd_1_4167" x="-2.80672" y="-3.08403" width="152.354" height="152.354" filterUnits="userSpaceOnUse" color-interpolation-filters="sRGB">
<feFlood flood-opacity="0" result="BackgroundImageFix"/>
<feColorMatrix in="SourceAlpha" type="matrix" values="0 0 0 0 0 0 0 0 0 0 0 0 0 0 0 0 0 0 127 0" result="hardAlpha"/>
<feOffset dy="6.72269"/>
<feGaussianBlur stdDeviation="8.40336"/>
<feComposite in2="hardAlpha" operator="out"/>
<feColorMatrix type="matrix" values="0 0 0 0 0.2 0 0 0 0 0.2 0 0 0 0 0.2 0 0 0 0.12 0"/>
<feBlend mode="normal" in2="BackgroundImageFix" result="effect1_dropShadow_1_4167"/>
<feColorMatrix in="SourceAlpha" type="matrix" values="0 0 0 0 0 0 0 0 0 0 0 0 0 0 0 0 0 0 127 0" result="hardAlpha"/>
<feOffset dy="3.36134"/>
<feGaussianBlur stdDeviation="3.36134"/>
<feComposite in2="hardAlpha" operator="out"/>
<feColorMatrix type="matrix" values="0 0 0 0 0.2 0 0 0 0 0.2 0 0 0 0 0.2 0 0 0 0.04 0"/>
<feBlend mode="normal" in2="effect1_dropShadow_1_4167" result="effect2_dropShadow_1_4167"/>
<feBlend mode="normal" in="SourceGraphic" in2="effect2_dropShadow_1_4167" result="shape"/>
</filter>
<clipPath id="clip0_1_4167">
<rect width="81.1618" height="21.8487" fill="white" transform="translate(31.3175 64.6428) rotate(-12.1002)"/>
</clipPath>
</defs>
</svg>
