<svg width="151" height="150" viewBox="0 0 151 150" fill="none" xmlns="http://www.w3.org/2000/svg">
<g filter="url(#filter0_dd_1_4195)">
<rect x="42.8661" y="5.77026" width="100" height="100" rx="18.75" transform="rotate(17.5152 42.8661 5.77026)" fill="white"/>
<g clip-path="url(#clip0_1_4195)">
<path d="M84.6089 47.9058C83.9507 49.9915 81.6741 51.174 79.5884 50.5158C77.5113 49.8603 76.3223 47.5817 76.9798 45.4981C77.6361 43.4188 79.9211 42.2318 81.9961 42.8867C84.0818 43.5449 85.2645 45.8286 84.6089 47.9058ZM78.6051 53.6315C76.357 52.9221 74.0776 54.1061 73.3654 56.3627C72.6553 58.613 73.8386 60.8945 76.0931 61.606C78.3434 62.3162 80.6256 61.1307 81.3364 58.8783C82.0473 56.6259 80.8319 54.3343 78.588 53.6261L78.6051 53.6315ZM75.2135 64.3785C72.9654 63.669 70.4561 64.9708 69.7453 67.2232C69.0344 69.4756 70.344 71.9826 72.5943 72.6928C74.8445 73.403 77.3538 72.1011 78.0646 69.8488C78.7755 67.5964 77.4659 65.0894 75.2178 64.3799L75.2135 64.3785ZM71.7692 75.2922C69.5211 74.5827 67.2417 75.7667 66.5309 78.0191C65.82 80.2715 67.0034 82.553 69.2579 83.2645C71.5082 83.9747 73.7904 82.7892 74.5019 80.5347C75.1574 78.4575 73.996 75.9949 71.7521 75.2868L71.7692 75.2922ZM68.2683 86.3854C66.1912 85.7298 63.9103 86.911 63.2528 88.9946C62.5986 91.0675 63.789 93.3489 65.864 94.0038C67.9519 94.6627 70.2263 93.4794 70.8839 91.3959C71.5401 89.3166 70.354 87.0436 68.2683 86.3854ZM89.3442 56.445C86.9166 55.6789 84.1805 57.1112 83.4157 59.5345C82.651 61.9579 84.0741 64.6934 86.4996 65.4589C88.925 66.2243 91.6576 64.7956 92.4211 62.3765C93.1865 59.951 91.7663 57.2141 89.3429 56.4493L89.3442 56.445ZM85.9519 67.1941C83.3533 66.374 80.6157 67.7964 79.7949 70.3972C78.9748 72.9958 80.4035 75.7283 83 76.5478C85.5965 77.3672 88.3328 75.949 89.1542 73.3462C89.9743 70.7476 88.5484 68.0135 85.9519 67.1941ZM82.507 78.1099C80.0794 77.3438 77.344 78.774 76.5812 81.1909C75.8157 83.6164 77.2382 86.354 79.6637 87.1195C82.0892 87.885 84.8224 86.4541 85.5865 84.0329C86.3506 81.6117 84.9325 78.8754 82.507 78.1099ZM97.0287 70.1141C94.2591 69.2401 91.1243 70.7298 90.1942 73.6767C89.3195 76.4484 90.7994 79.5849 93.7463 80.5149C96.6975 81.4463 99.666 79.8805 100.596 76.9336C101.353 73.925 99.8101 70.9731 97.0341 70.097L97.0287 70.1141ZM67.7 50.7633C65.7938 50.1618 63.7457 51.2308 63.1435 53.1391C62.5426 55.0432 63.6088 57.0927 65.5129 57.6936C67.4212 58.2959 69.4643 57.2276 70.0652 55.3236C70.6675 53.4152 69.6042 51.3713 67.698 50.7698L67.7 50.7633ZM64.3097 61.5061C62.2304 60.8498 60.1787 61.9154 59.5219 63.9968C58.8643 66.0804 59.9141 68.1224 61.9955 68.7793C64.077 69.4362 66.1101 68.3624 66.7663 66.2831C67.4238 64.1995 66.3441 62.1481 64.2605 61.4905L64.3097 61.5061ZM60.8655 72.4197C58.9592 71.8181 56.9105 72.8893 56.311 74.7891C55.7073 76.7017 56.7742 78.7491 58.6783 79.35C60.5867 79.9523 62.6338 78.8712 63.2408 76.9479C63.8478 75.0246 62.7798 72.9957 60.8735 72.3941L60.8655 72.4197ZM53.4067 58.6385C51.6693 58.0902 49.8489 59.0337 49.3006 60.7711C48.7543 62.5021 49.7014 64.326 51.4366 64.8736C53.1676 65.4199 54.9915 64.4728 55.5385 62.7397C56.0854 61.0066 55.1377 59.1848 53.4067 58.6385Z" fill="#00B0B9"/>
</g>
</g>
<defs>
<filter id="filter0_dd_1_4195" x="-4.03652" y="-4.31377" width="159.073" height="159.073" filterUnits="userSpaceOnUse" color-interpolation-filters="sRGB">
<feFlood flood-opacity="0" result="BackgroundImageFix"/>
<feColorMatrix in="SourceAlpha" type="matrix" values="0 0 0 0 0 0 0 0 0 0 0 0 0 0 0 0 0 0 127 0" result="hardAlpha"/>
<feOffset dy="6.72269"/>
<feGaussianBlur stdDeviation="8.40336"/>
<feComposite in2="hardAlpha" operator="out"/>
<feColorMatrix type="matrix" values="0 0 0 0 0.2 0 0 0 0 0.2 0 0 0 0 0.2 0 0 0 0.12 0"/>
<feBlend mode="normal" in2="BackgroundImageFix" result="effect1_dropShadow_1_4195"/>
<feColorMatrix in="SourceAlpha" type="matrix" values="0 0 0 0 0 0 0 0 0 0 0 0 0 0 0 0 0 0 127 0" result="hardAlpha"/>
<feOffset dy="3.36134"/>
<feGaussianBlur stdDeviation="3.36134"/>
<feComposite in2="hardAlpha" operator="out"/>
<feColorMatrix type="matrix" values="0 0 0 0 0.2 0 0 0 0 0.2 0 0 0 0 0.2 0 0 0 0.04 0"/>
<feBlend mode="normal" in2="effect1_dropShadow_1_4195" result="effect2_dropShadow_1_4195"/>
<feBlend mode="normal" in="SourceGraphic" in2="effect2_dropShadow_1_4195" result="shape"/>
</filter>
<clipPath id="clip0_1_4195">
<rect width="53.7815" height="53.7815" fill="white" transform="translate(57.4219 35.0373) rotate(17.5152)"/>
</clipPath>
</defs>
</svg>
