<svg width="131" height="130" viewBox="0 0 131 130" fill="none" xmlns="http://www.w3.org/2000/svg">
<g filter="url(#filter0_dd_1_4172)">
<rect x="21.1528" y="8.5" width="94.5164" height="94.5164" rx="17.7218" transform="rotate(3.42879 21.1528 8.5)" fill="white"/>
<path d="M94.9519 38.3833L92.2918 82.782C92.1872 84.5263 91.3787 86.0692 90.1677 87.1583C88.9417 88.2306 87.3133 88.8492 85.5691 88.7447L41.1704 86.0845C37.6661 85.8745 34.9978 82.8661 35.2077 79.3618L37.8679 34.9632C37.9724 33.2189 38.781 31.676 39.992 30.5869C41.2179 29.5145 42.8464 28.896 44.5906 29.0005L88.9893 31.6607C92.4936 31.8706 95.1619 34.879 94.9519 38.3833Z" fill="#8C9EFF"/>
<path d="M94.9519 38.3834L94.7619 41.5547L85.8179 31.4707L88.9893 31.6607C92.4936 31.8707 95.1619 34.8791 94.9519 38.3834Z" fill="#1DE9B6"/>
<path d="M94.7619 41.5547L94.1919 51.0687L76.3039 30.9006L85.8179 31.4707L94.7619 41.5547Z" fill="#1EE4BC"/>
<path d="M94.1919 51.0688L93.6218 60.5828L66.7899 30.3307L76.3039 30.9007L94.1919 51.0688Z" fill="#1FE0C2"/>
<path d="M93.6218 60.5828L93.0518 70.0968L57.2759 29.7606L66.7899 30.3307L93.6218 60.5828Z" fill="#20DBC7"/>
<path d="M93.0518 70.0967L92.4818 79.6107L47.7619 29.1906L57.2759 29.7606L93.0518 70.0967Z" fill="#21D6CD"/>
<path d="M92.4817 79.6107L92.2917 82.782C92.1872 84.5263 91.3787 86.0692 90.1676 87.1583L39.992 30.5869C41.2179 29.5146 42.8464 28.896 44.5906 29.0006L47.7619 29.1906L92.4817 79.6107Z" fill="#22D2D3"/>
<path d="M90.1676 87.1583C88.9417 88.2306 87.3133 88.8491 85.569 88.7446L82.3977 88.5546L37.6779 38.1345L37.8679 34.9631C37.9724 33.2189 38.781 31.676 39.992 30.5869L90.1676 87.1583Z" fill="#24CDD9"/>
<path d="M82.3977 88.5547L72.8837 87.9847L37.1079 47.6485L37.6779 38.1345L82.3977 88.5547Z" fill="#25C9DF"/>
<path d="M72.8837 87.9847L63.3697 87.4147L36.5378 57.1626L37.1078 47.6486L72.8837 87.9847Z" fill="#26C4E5"/>
<path d="M63.3697 87.4146L53.8557 86.8445L35.9678 66.6765L36.5378 57.1625L63.3697 87.4146Z" fill="#27BFEA"/>
<path d="M53.8557 86.8446L44.3417 86.2745L35.3978 76.1905L35.9678 66.6765L53.8557 86.8446Z" fill="#28BBF0"/>
<path d="M44.3417 86.2746L41.1704 86.0846C37.6661 85.8746 34.9978 82.8662 35.2078 79.3619L35.3978 76.1906L44.3417 86.2746Z" fill="#29B6F6"/>
<path d="M64.5266 79.5272C62.2163 79.3888 59.3445 78.9271 57.1208 77.3441C54.897 75.7611 49.1086 70.7771 48.2759 70.148C47.4447 69.5189 45.8154 67.6819 48.57 65.2387C51.3246 62.7955 57.4819 56.7879 58.4012 55.9725C59.3206 55.1571 60.8154 54.3778 63.3797 55.1107C63.7376 53.972 63.9106 51.0845 62.5699 49.2648C60.7675 50.3169 57.8571 55.359 54.9681 55.1859C52.6577 55.0475 51.2997 53.5164 50.7744 52.6161C51.6229 52.9565 52.5076 52.7199 54.056 51.0733C55.6043 49.4267 57.424 48.086 62.0273 48.6531C61.2653 46.8681 61.3345 45.7137 61.4038 44.5577C61.473 43.4018 63.1944 38.8677 68.1036 39.1618C72.4357 39.4214 74.2497 43.0088 74.1806 44.1632C74.1113 45.3191 73.9902 47.3408 73.9729 47.6294C73.9556 47.918 74.5328 47.9526 74.4982 48.5298C74.4636 49.107 74.3425 51.1287 73.696 52.2501C73.3729 52.81 72.7784 53.064 72.1996 53.0293C71.6209 52.9946 70.7551 52.9427 70.7551 52.9427L69.5952 57.8001C69.5952 57.8001 73.1943 60.624 73.0039 63.8016C72.8135 66.9793 72.4501 73.0445 72.4501 73.0445L78.4863 69.0586C78.2323 68.4641 77.486 66.3904 78.4227 65.2864C79.3577 64.1823 80.5309 63.963 81.1081 63.9976C81.6853 64.0322 82.2295 64.644 82.1775 65.5114C82.1256 66.3787 81.9871 68.6891 81.9526 69.2662C81.918 69.8434 81.9007 70.132 81.2888 70.6762C80.6771 71.2188 74.5371 76.9379 73.3291 77.736C72.1212 78.5341 68.8587 79.7867 64.5266 79.5272ZM58.519 73.3699L57.3049 64.602L53.0711 67.5374L58.519 73.3699Z" fill="white"/>
</g>
<defs>
<filter id="filter0_dd_1_4172" x="-0.385165" y="-1.03106" width="131.77" height="131.77" filterUnits="userSpaceOnUse" color-interpolation-filters="sRGB">
<feFlood flood-opacity="0" result="BackgroundImageFix"/>
<feColorMatrix in="SourceAlpha" type="matrix" values="0 0 0 0 0 0 0 0 0 0 0 0 0 0 0 0 0 0 127 0" result="hardAlpha"/>
<feOffset dy="6.35404"/>
<feGaussianBlur stdDeviation="7.94255"/>
<feComposite in2="hardAlpha" operator="out"/>
<feColorMatrix type="matrix" values="0 0 0 0 0.2 0 0 0 0 0.2 0 0 0 0 0.2 0 0 0 0.12 0"/>
<feBlend mode="normal" in2="BackgroundImageFix" result="effect1_dropShadow_1_4172"/>
<feColorMatrix in="SourceAlpha" type="matrix" values="0 0 0 0 0 0 0 0 0 0 0 0 0 0 0 0 0 0 127 0" result="hardAlpha"/>
<feOffset dy="3.17702"/>
<feGaussianBlur stdDeviation="3.17702"/>
<feComposite in2="hardAlpha" operator="out"/>
<feColorMatrix type="matrix" values="0 0 0 0 0.2 0 0 0 0 0.2 0 0 0 0 0.2 0 0 0 0.04 0"/>
<feBlend mode="normal" in2="effect1_dropShadow_1_4172" result="effect2_dropShadow_1_4172"/>
<feBlend mode="normal" in="SourceGraphic" in2="effect2_dropShadow_1_4172" result="shape"/>
</filter>
</defs>
</svg>
