<svg width="38" height="36" viewBox="0 0 38 36" fill="none" xmlns="http://www.w3.org/2000/svg">
<path d="M31.6117 13.4901L32.0217 12.5467C32.7425 10.8779 34.0627 9.53992 35.7217 8.79672L36.9867 8.23172C37.1401 8.16112 37.2701 8.048 37.3613 7.90577C37.4524 7.76353 37.5008 7.59815 37.5008 7.42922C37.5008 7.26029 37.4524 7.09491 37.3613 6.95267C37.2701 6.81044 37.1401 6.69731 36.9867 6.62672L35.7917 6.09505C34.091 5.33068 32.7482 3.94319 32.04 2.21839L31.6183 1.20005C31.5564 1.04231 31.4484 0.906882 31.3084 0.811427C31.1683 0.715972 31.0028 0.664917 30.8333 0.664917C30.6639 0.664917 30.4983 0.715972 30.3583 0.811427C30.2183 0.906882 30.1103 1.04231 30.0483 1.20005L29.6267 2.21672C28.9192 3.94185 27.577 5.32994 25.8767 6.09505L24.68 6.62839C24.527 6.69918 24.3975 6.81229 24.3067 6.95434C24.2159 7.0964 24.1676 7.26146 24.1676 7.43005C24.1676 7.59864 24.2159 7.76371 24.3067 7.90576C24.3975 8.04782 24.527 8.16092 24.68 8.23172L25.9467 8.79505C27.6053 9.53899 28.9249 10.8776 29.645 12.5467L30.055 13.4901C30.355 14.1801 31.31 14.1801 31.6117 13.4901ZM30.8333 17.3334C31.95 17.3334 33.0217 17.1501 34.025 16.8134C34.1194 17.5301 34.1667 18.2589 34.1667 19.0001C34.1667 28.2051 26.705 35.6667 17.5 35.6667C8.295 35.6667 0.833333 28.2051 0.833333 19.0001C0.833333 9.79505 8.295 2.33339 17.5 2.33339C19.01 2.33339 20.4717 2.53339 21.8617 2.91005C21.1096 4.4349 20.7587 6.12631 20.8422 7.82448C20.9257 9.52265 21.4408 11.1715 22.3389 12.6152C23.2369 14.0589 24.4882 15.2498 25.9745 16.0754C27.4608 16.901 29.1331 17.3339 30.8333 17.3334ZM19.1667 17.3334V9.00005L10.8333 20.6667H15.8333V29.0001L24.1667 17.3334H19.1667Z" fill="url(#paint0_linear_37_838)"/>
<defs>
<linearGradient id="paint0_linear_37_838" x1="19.1671" y1="0.664917" x2="19.1671" y2="35.6667" gradientUnits="userSpaceOnUse">
<stop stop-color="#3B76E4"/>
<stop offset="1" stop-color="#2E4A7E"/>
</linearGradient>
</defs>
</svg>
